999
DXF created from Surfer v8.05
  0
SECTION
  2
HEADER
  9
$ACADVER
  1
AC1006
  0
ENDSEC
  0
SECTION
  2
ENTITIES
  0
POLYLINE
  8
GSLAYER
 62
7
 40
0.0
 41
0.0
 70
128
 30
-4
 66
1
  0
VERTEX
  8
GSLAYER
 10
206292.821362
 20
771194.678638
  0
VERTEX
  8
GSLAYER
 10
206295.465037
 20
771200
  0
SEQEND
  0
POLYLINE
  8
GSLAYER
 62
7
 40
0.0
 41
0.0
 70
128
 30
-4
 66
1
  0
VERTEX
  8
GSLAYER
 10
205768.173284
 20
770700
  0
VERTEX
  8
GSLAYER
 10
205768.348302
 20
770706.651698
  0
SEQEND
  0
POLYLINE
  8
GSLAYER
 62
7
 40
0.0
 41
0.0
 70
128
 30
-4
 66
1
  0
VERTEX
  8
GSLAYER
 10
205753.97386
 20
770721.02614
  0
VERTEX
  8
GSLAYER
 10
205750.49934
 20
770712.5
  0
VERTEX
  8
GSLAYER
 10
205750.527068
 20
770711.972932
  0
SEQEND
  0
POLYLINE
  8
GSLAYER
 62
7
 40
0.0
 41
0.0
 70
128
 30
-4
 66
1
  0
VERTEX
  8
GSLAYER
 10
205762.5
 20
770696.324478
  0
VERTEX
  8
GSLAYER
 10
205768.173284
 20
770700
  0
SEQEND
  0
POLYLINE
  8
GSLAYER
 62
7
 40
0.0
 41
0.0
 70
128
 30
-4
 66
1
  0
VERTEX
  8
GSLAYER
 10
205796.572412
 20
770709.072412
  0
VERTEX
  8
GSLAYER
 10
205800
 20
770710.822479
  0
VERTEX
  8
GSLAYER
 10
205802.464894
 20
770712.5
  0
SEQEND
  0
POLYLINE
  8
GSLAYER
 62
7
 40
0.0
 41
0.0
 70
128
 30
-4
 66
1
  0
VERTEX
  8
GSLAYER
 10
205743.19416
 20
770725
  0
VERTEX
  8
GSLAYER
 10
205737.5
 20
770729.975669
  0
SEQEND
  0
POLYLINE
  8
GSLAYER
 62
7
 40
0.0
 41
0.0
 70
128
 30
-4
 66
1
  0
VERTEX
  8
GSLAYER
 10
205748.794793
 20
770713.705207
  0
VERTEX
  8
GSLAYER
 10
205743.19416
 20
770725
  0
SEQEND
  0
POLYLINE
  8
GSLAYER
 62
7
 40
0.0
 41
0.0
 70
128
 30
0
 66
1
  0
VERTEX
  8
GSLAYER
 10
205700
 20
770612.813998
  0
VERTEX
  8
GSLAYER
 10
205712.5
 20
770613.958936
  0
VERTEX
  8
GSLAYER
 10
205723.839533
 20
770612.5
  0
VERTEX
  8
GSLAYER
 10
205725
 20
770612.07107
  0
VERTEX
  8
GSLAYER
 10
205726.328559
 20
770612.5
  0
VERTEX
  8
GSLAYER
 10
205737.5
 20
770613.939007
  0
VERTEX
  8
GSLAYER
 10
205745.163311
 20
770612.5
  0
VERTEX
  8
GSLAYER
 10
205750
 20
770610.760227
  0
VERTEX
  8
GSLAYER
 10
205762.5
 20
770608.825359
  0
VERTEX
  8
GSLAYER
 10
205766.874294
 20
770612.5
  0
VERTEX
  8
GSLAYER
 10
205775
 20
770616.78926
  0
VERTEX
  8
GSLAYER
 10
205782.713352
 20
770625
  0
VERTEX
  8
GSLAYER
 10
205787.5
 20
770628.494105
  0
VERTEX
  8
GSLAYER
 10
205796.843548
 20
770637.5
  0
VERTEX
  8
GSLAYER
 10
205800
 20
770640.056135
  0
VERTEX
  8
GSLAYER
 10
205812.5
 20
770647.323245
  0
VERTEX
  8
GSLAYER
 10
205825
 20
770649.885088
  0
VERTEX
  8
GSLAYER
 10
205825.250834
 20
770650
  0
VERTEX
  8
GSLAYER
 10
205836.350357
 20
770662.5
  0
VERTEX
  8
GSLAYER
 10
205837.5
 20
770663.961694
  0
VERTEX
  8
GSLAYER
 10
205843.724589
 20
770675
  0
VERTEX
  8
GSLAYER
 10
205850
 20
770681.210384
  0
VERTEX
  8
GSLAYER
 10
205859.400208
 20
770687.5
  0
VERTEX
  8
GSLAYER
 10
205862.5
 20
770694.323786
  0
VERTEX
  8
GSLAYER
 10
205863.716956
 20
770700
  0
VERTEX
  8
GSLAYER
 10
205868.911975
 20
770712.5
  0
VERTEX
  8
GSLAYER
 10
205875
 20
770724.717744
  0
VERTEX
  8
GSLAYER
 10
205875.152312
 20
770725
  0
VERTEX
  8
GSLAYER
 10
205880.231065
 20
770737.5
  0
VERTEX
  8
GSLAYER
 10
205884.836996
 20
770750
  0
VERTEX
  8
GSLAYER
 10
205887.5
 20
770757.574035
  0
VERTEX
  8
GSLAYER
 10
205889.428489
 20
770762.5
  0
VERTEX
  8
GSLAYER
 10
205896.866573
 20
770775
  0
VERTEX
  8
GSLAYER
 10
205900
 20
770780.247857
  0
VERTEX
  8
GSLAYER
 10
205904.427109
 20
770787.5
  0
VERTEX
  8
GSLAYER
 10
205911.000999
 20
770800
  0
VERTEX
  8
GSLAYER
 10
205912.5
 20
770802.709368
  0
VERTEX
  8
GSLAYER
 10
205918.548453
 20
770812.5
  0
VERTEX
  8
GSLAYER
 10
205924.924717
 20
770825
  0
VERTEX
  8
GSLAYER
 10
205925
 20
770825.154025
  0
VERTEX
  8
GSLAYER
 10
205931.356883
 20
770837.5
  0
VERTEX
  8
GSLAYER
 10
205937.5
 20
770844.296626
  0
VERTEX
  8
GSLAYER
 10
205944.630777
 20
770850
  0
VERTEX
  8
GSLAYER
 10
205950
 20
770853.889387
  0
VERTEX
  8
GSLAYER
 10
205960.652616
 20
770862.5
  0
VERTEX
  8
GSLAYER
 10
205962.5
 20
770864.167255
  0
VERTEX
  8
GSLAYER
 10
205974.127953
 20
770875
  0
VERTEX
  8
GSLAYER
 10
205975
 20
770875.80612
  0
VERTEX
  8
GSLAYER
 10
205986.667544
 20
770887.5
  0
VERTEX
  8
GSLAYER
 10
205987.5
 20
770888.387413
  0
VERTEX
  8
GSLAYER
 10
205997.748153
 20
770900
  0
VERTEX
  8
GSLAYER
 10
206000
 20
770901.914716
  0
VERTEX
  8
GSLAYER
 10
206012.5
 20
770910.577129
  0
VERTEX
  8
GSLAYER
 10
206014.796074
 20
770912.5
  0
VERTEX
  8
GSLAYER
 10
206025
 20
770920.684017
  0
VERTEX
  8
GSLAYER
 10
206029.932142
 20
770925
  0
VERTEX
  8
GSLAYER
 10
206037.5
 20
770929.817483
  0
VERTEX
  8
GSLAYER
 10
206050
 20
770934.925532
  0
VERTEX
  8
GSLAYER
 10
206055.308905
 20
770937.5
  0
VERTEX
  8
GSLAYER
 10
206062.5
 20
770941.111488
  0
VERTEX
  8
GSLAYER
 10
206075
 20
770948.860708
  0
VERTEX
  8
GSLAYER
 10
206076.516533
 20
770950
  0
VERTEX
  8
GSLAYER
 10
206087.5
 20
770958.515292
  0
VERTEX
  8
GSLAYER
 10
206091.741146
 20
770962.5
  0
VERTEX
  8
GSLAYER
 10
206100
 20
770971.262597
  0
VERTEX
  8
GSLAYER
 10
206104.131569
 20
770975
  0
VERTEX
  8
GSLAYER
 10
206112.5
 20
770981.560898
  0
VERTEX
  8
GSLAYER
 10
206120.074147
 20
770987.5
  0
VERTEX
  8
GSLAYER
 10
206125
 20
770991.502397
  0
VERTEX
  8
GSLAYER
 10
206135.896665
 20
771000
  0
VERTEX
  8
GSLAYER
 10
206137.5
 20
771001.293141
  0
VERTEX
  8
GSLAYER
 10
206150
 20
771010.834402
  0
VERTEX
  8
GSLAYER
 10
206152.085163
 20
771012.5
  0
VERTEX
  8
GSLAYER
 10
206162.5
 20
771022.747641
  0
VERTEX
  8
GSLAYER
 10
206164.272539
 20
771025
  0
VERTEX
  8
GSLAYER
 10
206174.574345
 20
771037.5
  0
VERTEX
  8
GSLAYER
 10
206175
 20
771037.966392
  0
VERTEX
  8
GSLAYER
 10
206187.386251
 20
771050
  0
VERTEX
  8
GSLAYER
 10
206187.5
 20
771050.100726
  0
VERTEX
  8
GSLAYER
 10
206200
 20
771059.41272
  0
VERTEX
  8
GSLAYER
 10
206204.545293
 20
771062.5
  0
VERTEX
  8
GSLAYER
 10
206212.5
 20
771069.908652
  0
VERTEX
  8
GSLAYER
 10
206216.654332
 20
771075
  0
VERTEX
  8
GSLAYER
 10
206225
 20
771084.969769
  0
VERTEX
  8
GSLAYER
 10
206227.281887
 20
771087.5
  0
VERTEX
  8
GSLAYER
 10
206237.5
 20
771098.97632
  0
VERTEX
  8
GSLAYER
 10
206238.539071
 20
771100
  0
VERTEX
  8
GSLAYER
 10
206250
 20
771110.680318
  0
VERTEX
  8
GSLAYER
 10
206252.225287
 20
771112.5
  0
VERTEX
  8
GSLAYER
 10
206262.5
 20
771120.837981
  0
VERTEX
  8
GSLAYER
 10
206267.739987
 20
771125
  0
VERTEX
  8
GSLAYER
 10
206275
 20
771130.056859
  0
VERTEX
  8
GSLAYER
 10
206287.5
 20
771136.44748
  0
VERTEX
  8
GSLAYER
 10
206289.01911
 20
771137.5
  0
VERTEX
  8
GSLAYER
 10
206300
 20
771148.285268
  0
VERTEX
  8
GSLAYER
 10
206301.302295
 20
771150
  0
VERTEX
  8
GSLAYER
 10
206309.860297
 20
771162.5
  0
VERTEX
  8
GSLAYER
 10
206312.5
 20
771166.23833
  0
VERTEX
  8
GSLAYER
 10
206319.245718
 20
771175
  0
VERTEX
  8
GSLAYER
 10
206324.486618
 20
771187.5
  0
VERTEX
  8
GSLAYER
 10
206325
 20
771190.063275
  0
VERTEX
  8
GSLAYER
 10
206328.12505
 20
771200
  0
SEQEND
  0
POLYLINE
  8
GSLAYER
 62
7
 40
0.0
 41
0.0
 70
128
 30
2
 66
1
  0
VERTEX
  8
GSLAYER
 10
205700
 20
770531.236833
  0
VERTEX
  8
GSLAYER
 10
205712.5
 20
770529.565787
  0
VERTEX
  8
GSLAYER
 10
205724.386594
 20
770537.5
  0
VERTEX
  8
GSLAYER
 10
205725
 20
770537.86376
  0
VERTEX
  8
GSLAYER
 10
205737.5
 20
770547.749134
  0
VERTEX
  8
GSLAYER
 10
205739.20084
 20
770550
  0
VERTEX
  8
GSLAYER
 10
205740.056343
 20
770562.5
  0
VERTEX
  8
GSLAYER
 10
205745.656592
 20
770575
  0
VERTEX
  8
GSLAYER
 10
205750
 20
770578.644882
  0
VERTEX
  8
GSLAYER
 10
205762.5
 20
770581.616561
  0
VERTEX
  8
GSLAYER
 10
205775
 20
770584.687589
  0
VERTEX
  8
GSLAYER
 10
205777.330756
 20
770587.5
  0
VERTEX
  8
GSLAYER
 10
205784.531373
 20
770600
  0
VERTEX
  8
GSLAYER
 10
205787.5
 20
770606.274706
  0
VERTEX
  8
GSLAYER
 10
205789.085606
 20
770612.5
  0
VERTEX
  8
GSLAYER
 10
205798.668523
 20
770625
  0
VERTEX
  8
GSLAYER
 10
205800
 20
770626.301566
  0
VERTEX
  8
GSLAYER
 10
205812.5
 20
770635.665711
  0
VERTEX
  8
GSLAYER
 10
205817.287165
 20
770637.5
  0
VERTEX
  8
GSLAYER
 10
205825
 20
770640.515609
  0
VERTEX
  8
GSLAYER
 10
205837.5
 20
770645.468187
  0
VERTEX
  8
GSLAYER
 10
205843.725029
 20
770650
  0
VERTEX
  8
GSLAYER
 10
205848.893983
 20
770662.5
  0
VERTEX
  8
GSLAYER
 10
205850
 20
770664.222675
  0
VERTEX
  8
GSLAYER
 10
205854.704503
 20
770675
  0
VERTEX
  8
GSLAYER
 10
205862.5
 20
770681.569548
  0
VERTEX
  8
GSLAYER
 10
205867.454469
 20
770687.5
  0
VERTEX
  8
GSLAYER
 10
205873.982063
 20
770700
  0
VERTEX
  8
GSLAYER
 10
205875
 20
770701.824059
  0
VERTEX
  8
GSLAYER
 10
205883.553335
 20
770712.5
  0
VERTEX
  8
GSLAYER
 10
205887.5
 20
770719.445874
  0
VERTEX
  8
GSLAYER
 10
205890.651943
 20
770725
  0
VERTEX
  8
GSLAYER
 10
205895.633227
 20
770737.5
  0
VERTEX
  8
GSLAYER
 10
205900
 20
770747.864985
  0
VERTEX
  8
GSLAYER
 10
205900.93313
 20
770750
  0
VERTEX
  8
GSLAYER
 10
205907.698
 20
770762.5
  0
VERTEX
  8
GSLAYER
 10
205912.5
 20
770769.77642
  0
VERTEX
  8
GSLAYER
 10
205916.409448
 20
770775
  0
VERTEX
  8
GSLAYER
 10
205925
 20
770786.796915
  0
VERTEX
  8
GSLAYER
 10
205925.626506
 20
770787.5
  0
VERTEX
  8
GSLAYER
 10
205934.597159
 20
770800
  0
VERTEX
  8
GSLAYER
 10
205937.5
 20
770805.144216
  0
VERTEX
  8
GSLAYER
 10
205941.400223
 20
770812.5
  0
VERTEX
  8
GSLAYER
 10
205947.605538
 20
770825
  0
VERTEX
  8
GSLAYER
 10
205950
 20
770828.344602
  0
VERTEX
  8
GSLAYER
 10
205956.524418
 20
770837.5
  0
VERTEX
  8
GSLAYER
 10
205962.5
 20
770843.002265
  0
VERTEX
  8
GSLAYER
 10
205969.523307
 20
770850
  0
VERTEX
  8
GSLAYER
 10
205975
 20
770854.914495
  0
VERTEX
  8
GSLAYER
 10
205983.841454
 20
770862.5
  0
VERTEX
  8
GSLAYER
 10
205987.5
 20
770865.850891
  0
VERTEX
  8
GSLAYER
 10
205997.977898
 20
770875
  0
VERTEX
  8
GSLAYER
 10
206000
 20
770877.105128
  0
VERTEX
  8
GSLAYER
 10
206010.321552
 20
770887.5
  0
VERTEX
  8
GSLAYER
 10
206012.5
 20
770889.497576
  0
VERTEX
  8
GSLAYER
 10
206023.788276
 20
770900
  0
VERTEX
  8
GSLAYER
 10
206025
 20
770901.003025
  0
VERTEX
  8
GSLAYER
 10
206037.5
 20
770911.463495
  0
VERTEX
  8
GSLAYER
 10
206039.109503
 20
770912.5
  0
VERTEX
  8
GSLAYER
 10
206050
 20
770918.685369
  0
VERTEX
  8
GSLAYER
 10
206062.5
 20
770924.768946
  0
VERTEX
  8
GSLAYER
 10
206062.882343
 20
770925
  0
VERTEX
  8
GSLAYER
 10
206075
 20
770932.220102
  0
VERTEX
  8
GSLAYER
 10
206082.071054
 20
770937.5
  0
VERTEX
  8
GSLAYER
 10
206087.5
 20
770941.54337
  0
VERTEX
  8
GSLAYER
 10
206097.226049
 20
770950
  0
VERTEX
  8
GSLAYER
 10
206100
 20
770952.594571
  0
VERTEX
  8
GSLAYER
 10
206110.228535
 20
770962.5
  0
VERTEX
  8
GSLAYER
 10
206112.5
 20
770964.577624
  0
VERTEX
  8
GSLAYER
 10
206124.897671
 20
770975
  0
VERTEX
  8
GSLAYER
 10
206125
 20
770975.080891
  0
VERTEX
  8
GSLAYER
 10
206137.5
 20
770984.972563
  0
VERTEX
  8
GSLAYER
 10
206140.65448
 20
770987.5
  0
VERTEX
  8
GSLAYER
 10
206150
 20
770994.937657
  0
VERTEX
  8
GSLAYER
 10
206155.851798
 20
771000
  0
VERTEX
  8
GSLAYER
 10
206162.5
 20
771005.446542
  0
VERTEX
  8
GSLAYER
 10
206169.355167
 20
771012.5
  0
VERTEX
  8
GSLAYER
 10
206175
 20
771019.484933
  0
VERTEX
  8
GSLAYER
 10
206179.576222
 20
771025
  0
VERTEX
  8
GSLAYER
 10
206187.5
 20
771033.766367
  0
VERTEX
  8
GSLAYER
 10
206191.252913
 20
771037.5
  0
VERTEX
  8
GSLAYER
 10
206200
 20
771044.965147
  0
VERTEX
  8
GSLAYER
 10
206206.512582
 20
771050
  0
VERTEX
  8
GSLAYER
 10
206212.5
 20
771054.324575
  0
VERTEX
  8
GSLAYER
 10
206220.967555
 20
771062.5
  0
VERTEX
  8
GSLAYER
 10
206225
 20
771067.230165
  0
VERTEX
  8
GSLAYER
 10
206233.098431
 20
771075
  0
VERTEX
  8
GSLAYER
 10
206237.5
 20
771079.833032
  0
VERTEX
  8
GSLAYER
 10
206245.325079
 20
771087.5
  0
VERTEX
  8
GSLAYER
 10
206250
 20
771092.112911
  0
VERTEX
  8
GSLAYER
 10
206259.231184
 20
771100
  0
VERTEX
  8
GSLAYER
 10
206262.5
 20
771102.719547
  0
VERTEX
  8
GSLAYER
 10
206275
 20
771111.074981
  0
VERTEX
  8
GSLAYER
 10
206278.451584
 20
771112.5
  0
VERTEX
  8
GSLAYER
 10
206287.5
 20
771117.388242
  0
VERTEX
  8
GSLAYER
 10
206300
 20
771123.821499
  0
VERTEX
  8
GSLAYER
 10
206301.404239
 20
771125
  0
VERTEX
  8
GSLAYER
 10
206312.5
 20
771136.042032
  0
VERTEX
  8
GSLAYER
 10
206313.793539
 20
771137.5
  0
VERTEX
  8
GSLAYER
 10
206323.586431
 20
771150
  0
VERTEX
  8
GSLAYER
 10
206325
 20
771151.744785
  0
VERTEX
  8
GSLAYER
 10
206333.436177
 20
771162.5
  0
VERTEX
  8
GSLAYER
 10
206337.5
 20
771168.75979
  0
VERTEX
  8
GSLAYER
 10
206341.778579
 20
771175
  0
VERTEX
  8
GSLAYER
 10
206349.144411
 20
771187.5
  0
VERTEX
  8
GSLAYER
 10
206350
 20
771188.939383
  0
VERTEX
  8
GSLAYER
 10
206357.280708
 20
771200
  0
SEQEND
  0
POLYLINE
  8
GSLAYER
 62
7
 40
0.0
 41
0.0
 70
128
 30
5
 66
1
  0
VERTEX
  8
GSLAYER
 10
205700
 20
770501.340197
  0
VERTEX
  8
GSLAYER
 10
205704.101923
 20
770500
  0
VERTEX
  8
GSLAYER
 10
205712.5
 20
770499.026545
  0
VERTEX
  8
GSLAYER
 10
205715.279233
 20
770500
  0
VERTEX
  8
GSLAYER
 10
205725
 20
770506.032343
  0
VERTEX
  8
GSLAYER
 10
205737.5
 20
770510.287823
  0
VERTEX
  8
GSLAYER
 10
205739.408191
 20
770512.5
  0
VERTEX
  8
GSLAYER
 10
205738.192506
 20
770525
  0
VERTEX
  8
GSLAYER
 10
205741.346806
 20
770537.5
  0
VERTEX
  8
GSLAYER
 10
205750
 20
770547.785792
  0
VERTEX
  8
GSLAYER
 10
205751.522031
 20
770550
  0
VERTEX
  8
GSLAYER
 10
205752.376761
 20
770562.5
  0
VERTEX
  8
GSLAYER
 10
205762.5
 20
770571.072665
  0
VERTEX
  8
GSLAYER
 10
205775
 20
770571.526143
  0
VERTEX
  8
GSLAYER
 10
205787.5
 20
770573.882636
  0
VERTEX
  8
GSLAYER
 10
205788.252097
 20
770575
  0
VERTEX
  8
GSLAYER
 10
205793.476858
 20
770587.5
  0
VERTEX
  8
GSLAYER
 10
205796.865862
 20
770600
  0
VERTEX
  8
GSLAYER
 10
205800
 20
770607.232524
  0
VERTEX
  8
GSLAYER
 10
205802.614385
 20
770612.5
  0
VERTEX
  8
GSLAYER
 10
205812.5
 20
770622.291706
  0
VERTEX
  8
GSLAYER
 10
205817.961315
 20
770625
  0
VERTEX
  8
GSLAYER
 10
205825
 20
770628.377392
  0
VERTEX
  8
GSLAYER
 10
205837.5
 20
770630.906891
  0
VERTEX
  8
GSLAYER
 10
205850
 20
770625.85578
  0
VERTEX
  8
GSLAYER
 10
205862.5
 20
770632.205233
  0
VERTEX
  8
GSLAYER
 10
205865.232487
 20
770637.5
  0
VERTEX
  8
GSLAYER
 10
205866.452321
 20
770650
  0
VERTEX
  8
GSLAYER
 10
205862.5
 20
770656.041608
  0
VERTEX
  8
GSLAYER
 10
205860.108438
 20
770662.5
  0
VERTEX
  8
GSLAYER
 10
205862.5
 20
770667.215262
  0
VERTEX
  8
GSLAYER
 10
205865.462447
 20
770675
  0
VERTEX
  8
GSLAYER
 10
205875
 20
770686.265494
  0
VERTEX
  8
GSLAYER
 10
205876.655765
 20
770687.5
  0
VERTEX
  8
GSLAYER
 10
205887.5
 20
770697.43012
  0
VERTEX
  8
GSLAYER
 10
205894.907533
 20
770700
  0
VERTEX
  8
GSLAYER
 10
205900
 20
770703.815075
  0
VERTEX
  8
GSLAYER
 10
205906.446425
 20
770712.5
  0
VERTEX
  8
GSLAYER
 10
205910.364032
 20
770725
  0
VERTEX
  8
GSLAYER
 10
205912.5
 20
770730.071482
  0
VERTEX
  8
GSLAYER
 10
205915.706418
 20
770737.5
  0
VERTEX
  8
GSLAYER
 10
205923.741204
 20
770750
  0
VERTEX
  8
GSLAYER
 10
205925
 20
770751.692343
  0
VERTEX
  8
GSLAYER
 10
205935.278595
 20
770762.5
  0
VERTEX
  8
GSLAYER
 10
205937.5
 20
770764.767487
  0
VERTEX
  8
GSLAYER
 10
205950
 20
770774.616984
  0
VERTEX
  8
GSLAYER
 10
205950.515552
 20
770775
  0
VERTEX
  8
GSLAYER
 10
205962.5
 20
770785.302543
  0
VERTEX
  8
GSLAYER
 10
205963.90312
 20
770787.5
  0
VERTEX
  8
GSLAYER
 10
205967.173622
 20
770800
  0
VERTEX
  8
GSLAYER
 10
205969.77244
 20
770812.5
  0
VERTEX
  8
GSLAYER
 10
205975
 20
770823.234879
  0
VERTEX
  8
GSLAYER
 10
205975.87886
 20
770825
  0
VERTEX
  8
GSLAYER
 10
205986.55828
 20
770837.5
  0
VERTEX
  8
GSLAYER
 10
205987.5
 20
770838.374256
  0
VERTEX
  8
GSLAYER
 10
206000
 20
770847.775614
  0
VERTEX
  8
GSLAYER
 10
206004.059024
 20
770850
  0
VERTEX
  8
GSLAYER
 10
206012.5
 20
770855.258597
  0
VERTEX
  8
GSLAYER
 10
206024.3997
 20
770862.5
  0
VERTEX
  8
GSLAYER
 10
206025
 20
770863.209658
  0
VERTEX
  8
GSLAYER
 10
206031.325746
 20
770875
  0
VERTEX
  8
GSLAYER
 10
206037.5
 20
770881.816614
  0
VERTEX
  8
GSLAYER
 10
206043.360709
 20
770887.5
  0
VERTEX
  8
GSLAYER
 10
206050
 20
770892.842582
  0
VERTEX
  8
GSLAYER
 10
206062.043494
 20
770900
  0
VERTEX
  8
GSLAYER
 10
206062.5
 20
770900.25821
  0
VERTEX
  8
GSLAYER
 10
206075
 20
770907.088383
  0
VERTEX
  8
GSLAYER
 10
206082.334463
 20
770912.5
  0
VERTEX
  8
GSLAYER
 10
206087.5
 20
770916.691395
  0
VERTEX
  8
GSLAYER
 10
206097.901156
 20
770925
  0
VERTEX
  8
GSLAYER
 10
206100
 20
770926.748426
  0
VERTEX
  8
GSLAYER
 10
206111.984911
 20
770937.5
  0
VERTEX
  8
GSLAYER
 10
206112.5
 20
770937.992015
  0
VERTEX
  8
GSLAYER
 10
206123.989678
 20
770950
  0
VERTEX
  8
GSLAYER
 10
206125
 20
770950.963757
  0
VERTEX
  8
GSLAYER
 10
206137.5
 20
770962.382568
  0
VERTEX
  8
GSLAYER
 10
206137.635248
 20
770962.5
  0
VERTEX
  8
GSLAYER
 10
206150
 20
770972.41808
  0
VERTEX
  8
GSLAYER
 10
206152.960817
 20
770975
  0
VERTEX
  8
GSLAYER
 10
206162.5
 20
770983.812556
  0
VERTEX
  8
GSLAYER
 10
206166.169604
 20
770987.5
  0
VERTEX
  8
GSLAYER
 10
206175
 20
770996.13745
  0
VERTEX
  8
GSLAYER
 10
206178.676396
 20
771000
  0
VERTEX
  8
GSLAYER
 10
206187.5
 20
771009.893375
  0
VERTEX
  8
GSLAYER
 10
206189.733446
 20
771012.5
  0
VERTEX
  8
GSLAYER
 10
206200
 20
771024.104568
  0
VERTEX
  8
GSLAYER
 10
206200.952027
 20
771025
  0
VERTEX
  8
GSLAYER
 10
206212.5
 20
771034.773857
  0
VERTEX
  8
GSLAYER
 10
206216.370241
 20
771037.5
  0
VERTEX
  8
GSLAYER
 10
206225
 20
771044.574188
  0
VERTEX
  8
GSLAYER
 10
206231.309593
 20
771050
  0
VERTEX
  8
GSLAYER
 10
206237.5
 20
771055.701437
  0
VERTEX
  8
GSLAYER
 10
206246.51928
 20
771062.5
  0
VERTEX
  8
GSLAYER
 10
206250
 20
771065.412871
  0
VERTEX
  8
GSLAYER
 10
206259.196309
 20
771075
  0
VERTEX
  8
GSLAYER
 10
206262.5
 20
771078.130401
  0
VERTEX
  8
GSLAYER
 10
206273.020389
 20
771087.5
  0
VERTEX
  8
GSLAYER
 10
206275
 20
771088.944929
  0
VERTEX
  8
GSLAYER
 10
206287.5
 20
771095.465537
  0
VERTEX
  8
GSLAYER
 10
206300
 20
771097.618643
  0
VERTEX
  8
GSLAYER
 10
206310.137304
 20
771100
  0
VERTEX
  8
GSLAYER
 10
206312.5
 20
771101.463462
  0
VERTEX
  8
GSLAYER
 10
206325
 20
771111.790833
  0
VERTEX
  8
GSLAYER
 10
206326.383815
 20
771112.5
  0
VERTEX
  8
GSLAYER
 10
206337.5
 20
771121.427095
  0
VERTEX
  8
GSLAYER
 10
206342.119447
 20
771125
  0
VERTEX
  8
GSLAYER
 10
206350
 20
771133.100776
  0
VERTEX
  8
GSLAYER
 10
206354.493917
 20
771137.5
  0
VERTEX
  8
GSLAYER
 10
206362.5
 20
771146.356287
  0
VERTEX
  8
GSLAYER
 10
206365.887085
 20
771150
  0
VERTEX
  8
GSLAYER
 10
206375
 20
771160.677884
  0
VERTEX
  8
GSLAYER
 10
206376.520809
 20
771162.5
  0
VERTEX
  8
GSLAYER
 10
206385.955909
 20
771175
  0
VERTEX
  8
GSLAYER
 10
206387.5
 20
771177.093997
  0
VERTEX
  8
GSLAYER
 10
206395.274321
 20
771187.5
  0
VERTEX
  8
GSLAYER
 10
206400
 20
771193.958272
  0
VERTEX
  8
GSLAYER
 10
206404.206071
 20
771200
  0
SEQEND
  0
POLYLINE
  8
GSLAYER
 62
7
 40
0.0
 41
0.0
 70
128
 30
10
 66
1
  0
VERTEX
  8
GSLAYER
 10
205700
 20
770487.898123
  0
VERTEX
  8
GSLAYER
 10
205701.150913
 20
770487.5
  0
VERTEX
  8
GSLAYER
 10
205712.5
 20
770482.566073
  0
VERTEX
  8
GSLAYER
 10
205725
 20
770486.998312
  0
VERTEX
  8
GSLAYER
 10
205737.5
 20
770480.543587
  0
VERTEX
  8
GSLAYER
 10
205750
 20
770481.038227
  0
VERTEX
  8
GSLAYER
 10
205754.065759
 20
770487.5
  0
VERTEX
  8
GSLAYER
 10
205756.990503
 20
770500
  0
VERTEX
  8
GSLAYER
 10
205756.717192
 20
770512.5
  0
VERTEX
  8
GSLAYER
 10
205750.50035
 20
770525
  0
VERTEX
  8
GSLAYER
 10
205756.35375
 20
770537.5
  0
VERTEX
  8
GSLAYER
 10
205762.5
 20
770547.671891
  0
VERTEX
  8
GSLAYER
 10
205775
 20
770545.72852
  0
VERTEX
  8
GSLAYER
 10
205781.425114
 20
770537.5
  0
VERTEX
  8
GSLAYER
 10
205787.5
 20
770533.296459
  0
VERTEX
  8
GSLAYER
 10
205800
 20
770528.413611
  0
VERTEX
  8
GSLAYER
 10
205812.5
 20
770533.2699
  0
VERTEX
  8
GSLAYER
 10
205815.024894
 20
770537.5
  0
VERTEX
  8
GSLAYER
 10
205821.399984
 20
770550
  0
VERTEX
  8
GSLAYER
 10
205824.182115
 20
770562.5
  0
VERTEX
  8
GSLAYER
 10
205822.590201
 20
770575
  0
VERTEX
  8
GSLAYER
 10
205815.92492
 20
770587.5
  0
VERTEX
  8
GSLAYER
 10
205812.5
 20
770598.62796
  0
VERTEX
  8
GSLAYER
 10
205812.346772
 20
770600
  0
VERTEX
  8
GSLAYER
 10
205812.5
 20
770600.244942
  0
VERTEX
  8
GSLAYER
 10
205825
 20
770607.836578
  0
VERTEX
  8
GSLAYER
 10
205835.842042
 20
770600
  0
VERTEX
  8
GSLAYER
 10
205837.5
 20
770596.40208
  0
VERTEX
  8
GSLAYER
 10
205850
 20
770587.656865
  0
VERTEX
  8
GSLAYER
 10
205858.611071
 20
770587.5
  0
VERTEX
  8
GSLAYER
 10
205862.5
 20
770587.430195
  0
VERTEX
  8
GSLAYER
 10
205862.577339
 20
770587.5
  0
VERTEX
  8
GSLAYER
 10
205873.515917
 20
770600
  0
VERTEX
  8
GSLAYER
 10
205875
 20
770601.367889
  0
VERTEX
  8
GSLAYER
 10
205884.353343
 20
770612.5
  0
VERTEX
  8
GSLAYER
 10
205887.5
 20
770617.433222
  0
VERTEX
  8
GSLAYER
 10
205893.200883
 20
770625
  0
VERTEX
  8
GSLAYER
 10
205897.726271
 20
770637.5
  0
VERTEX
  8
GSLAYER
 10
205887.5
 20
770644.040915
  0
VERTEX
  8
GSLAYER
 10
205884.966831
 20
770650
  0
VERTEX
  8
GSLAYER
 10
205875
 20
770657.707149
  0
VERTEX
  8
GSLAYER
 10
205870.701949
 20
770662.5
  0
VERTEX
  8
GSLAYER
 10
205875
 20
770670.11287
  0
VERTEX
  8
GSLAYER
 10
205880.501962
 20
770675
  0
VERTEX
  8
GSLAYER
 10
205887.5
 20
770680.375201
  0
VERTEX
  8
GSLAYER
 10
205900
 20
770683.572924
  0
VERTEX
  8
GSLAYER
 10
205912.5
 20
770687.078315
  0
VERTEX
  8
GSLAYER
 10
205913.030656
 20
770687.5
  0
VERTEX
  8
GSLAYER
 10
205923.449884
 20
770700
  0
VERTEX
  8
GSLAYER
 10
205925
 20
770704.508609
  0
VERTEX
  8
GSLAYER
 10
205927.877931
 20
770712.5
  0
VERTEX
  8
GSLAYER
 10
205935.557502
 20
770725
  0
VERTEX
  8
GSLAYER
 10
205937.5
 20
770727.421575
  0
VERTEX
  8
GSLAYER
 10
205950
 20
770736.227101
  0
VERTEX
  8
GSLAYER
 10
205952.916224
 20
770737.5
  0
VERTEX
  8
GSLAYER
 10
205962.5
 20
770742.962901
  0
VERTEX
  8
GSLAYER
 10
205973.104238
 20
770750
  0
VERTEX
  8
GSLAYER
 10
205975
 20
770751.440905
  0
VERTEX
  8
GSLAYER
 10
205987.5
 20
770761.722928
  0
VERTEX
  8
GSLAYER
 10
205988.929076
 20
770762.5
  0
VERTEX
  8
GSLAYER
 10
205994.808236
 20
770775
  0
VERTEX
  8
GSLAYER
 10
205992.430672
 20
770787.5
  0
VERTEX
  8
GSLAYER
 10
205992.49405
 20
770800
  0
VERTEX
  8
GSLAYER
 10
205998.816568
 20
770812.5
  0
VERTEX
  8
GSLAYER
 10
206000
 20
770813.84444
  0
VERTEX
  8
GSLAYER
 10
206012.5
 20
770821.206331
  0
VERTEX
  8
GSLAYER
 10
206025
 20
770824.23587
  0
VERTEX
  8
GSLAYER
 10
206025.86091
 20
770825
  0
VERTEX
  8
GSLAYER
 10
206037.5
 20
770837.372789
  0
VERTEX
  8
GSLAYER
 10
206037.557172
 20
770837.5
  0
VERTEX
  8
GSLAYER
 10
206046.636721
 20
770850
  0
VERTEX
  8
GSLAYER
 10
206050
 20
770854.142981
  0
VERTEX
  8
GSLAYER
 10
206058.068228
 20
770862.5
  0
VERTEX
  8
GSLAYER
 10
206062.5
 20
770866.641123
  0
VERTEX
  8
GSLAYER
 10
206073.654701
 20
770875
  0
VERTEX
  8
GSLAYER
 10
206075
 20
770875.914403
  0
VERTEX
  8
GSLAYER
 10
206087.5
 20
770883.626531
  0
VERTEX
  8
GSLAYER
 10
206093.850609
 20
770887.5
  0
VERTEX
  8
GSLAYER
 10
206100
 20
770891.528721
  0
VERTEX
  8
GSLAYER
 10
206111.777794
 20
770900
  0
VERTEX
  8
GSLAYER
 10
206112.5
 20
770900.514233
  0
VERTEX
  8
GSLAYER
 10
206125
 20
770909.218325
  0
VERTEX
  8
GSLAYER
 10
206127.226901
 20
770912.5
  0
VERTEX
  8
GSLAYER
 10
206137.5
 20
770924.970946
  0
VERTEX
  8
GSLAYER
 10
206137.538935
 20
770925
  0
VERTEX
  8
GSLAYER
 10
206149.014121
 20
770937.5
  0
VERTEX
  8
GSLAYER
 10
206150
 20
770938.45746
  0
VERTEX
  8
GSLAYER
 10
206162.5
 20
770949.058939
  0
VERTEX
  8
GSLAYER
 10
206163.621582
 20
770950
  0
VERTEX
  8
GSLAYER
 10
206175
 20
770960.282843
  0
VERTEX
  8
GSLAYER
 10
206177.604542
 20
770962.5
  0
VERTEX
  8
GSLAYER
 10
206187.5
 20
770972.344075
  0
VERTEX
  8
GSLAYER
 10
206190.076633
 20
770975
  0
VERTEX
  8
GSLAYER
 10
206200
 20
770986.50661
  0
VERTEX
  8
GSLAYER
 10
206200.80229
 20
770987.5
  0
VERTEX
  8
GSLAYER
 10
206211.139979
 20
771000
  0
VERTEX
  8
GSLAYER
 10
206212.5
 20
771001.441492
  0
VERTEX
  8
GSLAYER
 10
206225
 20
771011.871139
  0
VERTEX
  8
GSLAYER
 10
206227.534181
 20
771012.5
  0
VERTEX
  8
GSLAYER
 10
206237.5
 20
771015.286009
  0
VERTEX
  8
GSLAYER
 10
206250
 20
771013.336998
  0
VERTEX
  8
GSLAYER
 10
206262.5
 20
771018.701493
  0
VERTEX
  8
GSLAYER
 10
206275
 20
771024.18835
  0
VERTEX
  8
GSLAYER
 10
206275.948896
 20
771025
  0
VERTEX
  8
GSLAYER
 10
206281.186665
 20
771037.5
  0
VERTEX
  8
GSLAYER
 10
206283.760449
 20
771050
  0
VERTEX
  8
GSLAYER
 10
206287.02736
 20
771062.5
  0
VERTEX
  8
GSLAYER
 10
206287.5
 20
771063.246113
  0
VERTEX
  8
GSLAYER
 10
206292.688128
 20
771075
  0
VERTEX
  8
GSLAYER
 10
206300
 20
771080.528553
  0
VERTEX
  8
GSLAYER
 10
206312.5
 20
771086.502983
  0
VERTEX
  8
GSLAYER
 10
206325
 20
771085.219016
  0
VERTEX
  8
GSLAYER
 10
206337.5
 20
771077.981535
  0
VERTEX
  8
GSLAYER
 10
206344.749204
 20
771075
  0
VERTEX
  8
GSLAYER
 10
206350
 20
771069.624952
  0
VERTEX
  8
GSLAYER
 10
206358.516627
 20
771075
  0
VERTEX
  8
GSLAYER
 10
206362.5
 20
771076.499701
  0
VERTEX
  8
GSLAYER
 10
206375
 20
771085.682699
  0
VERTEX
  8
GSLAYER
 10
206377.012015
 20
771087.5
  0
VERTEX
  8
GSLAYER
 10
206387.5
 20
771096.770637
  0
VERTEX
  8
GSLAYER
 10
206390.704043
 20
771100
  0
VERTEX
  8
GSLAYER
 10
206400
 20
771109.430032
  0
VERTEX
  8
GSLAYER
 10
206402.976129
 20
771112.5
  0
VERTEX
  8
GSLAYER
 10
206412.5
 20
771122.06464
  0
VERTEX
  8
GSLAYER
 10
206415.306328
 20
771125
  0
VERTEX
  8
GSLAYER
 10
206425
 20
771135.373563
  0
VERTEX
  8
GSLAYER
 10
206426.956562
 20
771137.5
  0
VERTEX
  8
GSLAYER
 10
206437.5
 20
771149.292146
  0
VERTEX
  8
GSLAYER
 10
206438.121616
 20
771150
  0
VERTEX
  8
GSLAYER
 10
206448.174079
 20
771162.5
  0
VERTEX
  8
GSLAYER
 10
206450
 20
771165.106089
  0
VERTEX
  8
GSLAYER
 10
206456.75568
 20
771175
  0
VERTEX
  8
GSLAYER
 10
206462.5
 20
771183.95937
  0
VERTEX
  8
GSLAYER
 10
206464.850539
 20
771187.5
  0
VERTEX
  8
GSLAYER
 10
206472.813114
 20
771200
  0
SEQEND
  0
POLYLINE
  8
GSLAYER
 62
7
 40
0.0
 41
0.0
 70
128
 30
15
 66
1
  0
VERTEX
  8
GSLAYER
 10
205700
 20
770395.730928
  0
VERTEX
  8
GSLAYER
 10
205705.784303
 20
770400
  0
VERTEX
  8
GSLAYER
 10
205712.5
 20
770402.687093
  0
VERTEX
  8
GSLAYER
 10
205724.492688
 20
770412.5
  0
VERTEX
  8
GSLAYER
 10
205725
 20
770412.946864
  0
VERTEX
  8
GSLAYER
 10
205735.935001
 20
770425
  0
VERTEX
  8
GSLAYER
 10
205737.5
 20
770426.458794
  0
VERTEX
  8
GSLAYER
 10
205750
 20
770433.269466
  0
VERTEX
  8
GSLAYER
 10
205754.41435
 20
770437.5
  0
VERTEX
  8
GSLAYER
 10
205762.5
 20
770445.381052
  0
VERTEX
  8
GSLAYER
 10
205765.426971
 20
770450
  0
VERTEX
  8
GSLAYER
 10
205772.031055
 20
770462.5
  0
VERTEX
  8
GSLAYER
 10
205775
 20
770466.54215
  0
VERTEX
  8
GSLAYER
 10
205782.162763
 20
770475
  0
VERTEX
  8
GSLAYER
 10
205786.579448
 20
770487.5
  0
VERTEX
  8
GSLAYER
 10
205787.5
 20
770493.186838
  0
VERTEX
  8
GSLAYER
 10
205789.99623
 20
770500
  0
VERTEX
  8
GSLAYER
 10
205800
 20
770504.391661
  0
VERTEX
  8
GSLAYER
 10
205812.5
 20
770509.110185
  0
VERTEX
  8
GSLAYER
 10
205816.761234
 20
770512.5
  0
VERTEX
  8
GSLAYER
 10
205825
 20
770518.62342
  0
VERTEX
  8
GSLAYER
 10
205832.095726
 20
770525
  0
VERTEX
  8
GSLAYER
 10
205837.5
 20
770529.388676
  0
VERTEX
  8
GSLAYER
 10
205850
 20
770535.255809
  0
VERTEX
  8
GSLAYER
 10
205854.190922
 20
770537.5
  0
VERTEX
  8
GSLAYER
 10
205862.5
 20
770542.739232
  0
VERTEX
  8
GSLAYER
 10
205871.638362
 20
770550
  0
VERTEX
  8
GSLAYER
 10
205875
 20
770552.882218
  0
VERTEX
  8
GSLAYER
 10
205882.714501
 20
770562.5
  0
VERTEX
  8
GSLAYER
 10
205887.5
 20
770569.490628
  0
VERTEX
  8
GSLAYER
 10
205890.126866
 20
770575
  0
VERTEX
  8
GSLAYER
 10
205896.288615
 20
770587.5
  0
VERTEX
  8
GSLAYER
 10
205900
 20
770593.080415
  0
VERTEX
  8
GSLAYER
 10
205904.520429
 20
770600
  0
VERTEX
  8
GSLAYER
 10
205912.5
 20
770608.579736
  0
VERTEX
  8
GSLAYER
 10
205917.261576
 20
770612.5
  0
VERTEX
  8
GSLAYER
 10
205925
 20
770620.079169
  0
VERTEX
  8
GSLAYER
 10
205929.861155
 20
770625
  0
VERTEX
  8
GSLAYER
 10
205936.528302
 20
770637.5
  0
VERTEX
  8
GSLAYER
 10
205937.5
 20
770641.78781
  0
VERTEX
  8
GSLAYER
 10
205939.966296
 20
770650
  0
VERTEX
  8
GSLAYER
 10
205943.893856
 20
770662.5
  0
VERTEX
  8
GSLAYER
 10
205950
 20
770671.054237
  0
VERTEX
  8
GSLAYER
 10
205959.654775
 20
770675
  0
VERTEX
  8
GSLAYER
 10
205962.5
 20
770675.480592
  0
VERTEX
  8
GSLAYER
 10
205975
 20
770678.03241
  0
VERTEX
  8
GSLAYER
 10
205987.188537
 20
770687.5
  0
VERTEX
  8
GSLAYER
 10
205987.5
 20
770689.200877
  0
VERTEX
  8
GSLAYER
 10
205989.243003
 20
770700
  0
VERTEX
  8
GSLAYER
 10
205987.5
 20
770707.507836
  0
VERTEX
  8
GSLAYER
 10
205986.551949
 20
770712.5
  0
VERTEX
  8
GSLAYER
 10
205987.5
 20
770714.995313
  0
VERTEX
  8
GSLAYER
 10
205995.075175
 20
770725
  0
VERTEX
  8
GSLAYER
 10
206000
 20
770729.151406
  0
VERTEX
  8
GSLAYER
 10
206012.5
 20
770736.538452
  0
VERTEX
  8
GSLAYER
 10
206014.748987
 20
770737.5
  0
VERTEX
  8
GSLAYER
 10
206025
 20
770740.666454
  0
VERTEX
  8
GSLAYER
 10
206037.5
 20
770745.513982
  0
VERTEX
  8
GSLAYER
 10
206043.474526
 20
770750
  0
VERTEX
  8
GSLAYER
 10
206050
 20
770761.241433
  0
VERTEX
  8
GSLAYER
 10
206050.75975
 20
770762.5
  0
VERTEX
  8
GSLAYER
 10
206053.241874
 20
770775
  0
VERTEX
  8
GSLAYER
 10
206054.31623
 20
770787.5
  0
VERTEX
  8
GSLAYER
 10
206062.361464
 20
770800
  0
VERTEX
  8
GSLAYER
 10
206062.5
 20
770800.458246
  0
VERTEX
  8
GSLAYER
 10
206066.608494
 20
770812.5
  0
VERTEX
  8
GSLAYER
 10
206066.816241
 20
770825
  0
VERTEX
  8
GSLAYER
 10
206073.120954
 20
770837.5
  0
VERTEX
  8
GSLAYER
 10
206075
 20
770838.708395
  0
VERTEX
  8
GSLAYER
 10
206087.5
 20
770848.902079
  0
VERTEX
  8
GSLAYER
 10
206089.258114
 20
770850
  0
VERTEX
  8
GSLAYER
 10
206100
 20
770853.947348
  0
VERTEX
  8
GSLAYER
 10
206112.5
 20
770856.134664
  0
VERTEX
  8
GSLAYER
 10
206125
 20
770861.452254
  0
VERTEX
  8
GSLAYER
 10
206126.523877
 20
770862.5
  0
VERTEX
  8
GSLAYER
 10
206136.033962
 20
770875
  0
VERTEX
  8
GSLAYER
 10
206137.5
 20
770879.609368
  0
VERTEX
  8
GSLAYER
 10
206139.981605
 20
770887.5
  0
VERTEX
  8
GSLAYER
 10
206146.516721
 20
770900
  0
VERTEX
  8
GSLAYER
 10
206150
 20
770904.117344
  0
VERTEX
  8
GSLAYER
 10
206162.5
 20
770910.650777
  0
VERTEX
  8
GSLAYER
 10
206164.965509
 20
770912.5
  0
VERTEX
  8
GSLAYER
 10
206175
 20
770920.300435
  0
VERTEX
  8
GSLAYER
 10
206177.997369
 20
770925
  0
VERTEX
  8
GSLAYER
 10
206187.5
 20
770932.400961
  0
VERTEX
  8
GSLAYER
 10
206200
 20
770933.698869
  0
VERTEX
  8
GSLAYER
 10
206212.5
 20
770934.721385
  0
VERTEX
  8
GSLAYER
 10
206218.358835
 20
770937.5
  0
VERTEX
  8
GSLAYER
 10
206225
 20
770940.136949
  0
VERTEX
  8
GSLAYER
 10
206237.5
 20
770947.665002
  0
VERTEX
  8
GSLAYER
 10
206242.49794
 20
770950
  0
VERTEX
  8
GSLAYER
 10
206250
 20
770952.92357
  0
VERTEX
  8
GSLAYER
 10
206262.5
 20
770955.294196
  0
VERTEX
  8
GSLAYER
 10
206275
 20
770957.765526
  0
VERTEX
  8
GSLAYER
 10
206284.215276
 20
770962.5
  0
VERTEX
  8
GSLAYER
 10
206287.5
 20
770964.410313
  0
VERTEX
  8
GSLAYER
 10
206300
 20
770971.501239
  0
VERTEX
  8
GSLAYER
 10
206306.381673
 20
770975
  0
VERTEX
  8
GSLAYER
 10
206312.5
 20
770978.466873
  0
VERTEX
  8
GSLAYER
 10
206325
 20
770985.220226
  0
VERTEX
  8
GSLAYER
 10
206329.639534
 20
770987.5
  0
VERTEX
  8
GSLAYER
 10
206337.5
 20
770991.587095
  0
VERTEX
  8
GSLAYER
 10
206350
 20
770997.522238
  0
VERTEX
  8
GSLAYER
 10
206355.023841
 20
771000
  0
VERTEX
  8
GSLAYER
 10
206362.5
 20
771003.724646
  0
VERTEX
  8
GSLAYER
 10
206375
 20
771011.076754
  0
VERTEX
  8
GSLAYER
 10
206376.977922
 20
771012.5
  0
VERTEX
  8
GSLAYER
 10
206387.5
 20
771020.136436
  0
VERTEX
  8
GSLAYER
 10
206393.122511
 20
771025
  0
VERTEX
  8
GSLAYER
 10
206400
 20
771031.084276
  0
VERTEX
  8
GSLAYER
 10
206406.434898
 20
771037.5
  0
VERTEX
  8
GSLAYER
 10
206412.5
 20
771043.718917
  0
VERTEX
  8
GSLAYER
 10
206418.165801
 20
771050
  0
VERTEX
  8
GSLAYER
 10
206425
 20
771057.697381
  0
VERTEX
  8
GSLAYER
 10
206429.027845
 20
771062.5
  0
VERTEX
  8
GSLAYER
 10
206437.5
 20
771072.511864
  0
VERTEX
  8
GSLAYER
 10
206439.514456
 20
771075
  0
VERTEX
  8
GSLAYER
 10
206450
 20
771087.314759
  0
VERTEX
  8
GSLAYER
 10
206450.156682
 20
771087.5
  0
VERTEX
  8
GSLAYER
 10
206461.436897
 20
771100
  0
VERTEX
  8
GSLAYER
 10
206462.5
 20
771101.142608
  0
VERTEX
  8
GSLAYER
 10
206473.526023
 20
771112.5
  0
VERTEX
  8
GSLAYER
 10
206475
 20
771114.045959
  0
VERTEX
  8
GSLAYER
 10
206485.914589
 20
771125
  0
VERTEX
  8
GSLAYER
 10
206487.5
 20
771126.68787
  0
VERTEX
  8
GSLAYER
 10
206498.002799
 20
771137.5
  0
VERTEX
  8
GSLAYER
 10
206500
 20
771139.708438
  0
VERTEX
  8
GSLAYER
 10
206509.522314
 20
771150
  0
VERTEX
  8
GSLAYER
 10
206512.5
 20
771153.409609
  0
VERTEX
  8
GSLAYER
 10
206520.509
 20
771162.5
  0
VERTEX
  8
GSLAYER
 10
206525
 20
771167.732979
  0
VERTEX
  8
GSLAYER
 10
206531.215427
 20
771175
  0
VERTEX
  8
GSLAYER
 10
206537.5
 20
771182.240827
  0
VERTEX
  8
GSLAYER
 10
206542.088657
 20
771187.5
  0
VERTEX
  8
GSLAYER
 10
206550
 20
771196.131504
  0
VERTEX
  8
GSLAYER
 10
206553.729433
 20
771200
  0
SEQEND
  0
POLYLINE
  8
GSLAYER
 62
7
 40
0.0
 41
0.0
 70
129
 30
15
 66
1
  0
VERTEX
  8
GSLAYER
 10
205762.120724
 20
770525
  0
VERTEX
  8
GSLAYER
 10
205762.5
 20
770525.646518
  0
VERTEX
  8
GSLAYER
 10
205768.323024
 20
770525
  0
VERTEX
  8
GSLAYER
 10
205762.5
 20
770524.213238
  0
VERTEX
  8
GSLAYER
 10
205762.120724
 20
770525
  0
SEQEND
  0
POLYLINE
  8
GSLAYER
 62
7
 40
0.0
 41
0.0
 70
129
 30
15
 66
1
  0
VERTEX
  8
GSLAYER
 10
205947.090511
 20
770700
  0
VERTEX
  8
GSLAYER
 10
205950
 20
770705.684945
  0
VERTEX
  8
GSLAYER
 10
205951.485418
 20
770700
  0
VERTEX
  8
GSLAYER
 10
205950
 20
770695.575812
  0
VERTEX
  8
GSLAYER
 10
205947.090511
 20
770700
  0
SEQEND
  0
POLYLINE
  8
GSLAYER
 62
7
 40
0.0
 41
0.0
 70
128
 30
20
 66
1
  0
VERTEX
  8
GSLAYER
 10
205721.636827
 20
770200
  0
VERTEX
  8
GSLAYER
 10
205725
 20
770201.704867
  0
VERTEX
  8
GSLAYER
 10
205737.303424
 20
770212.5
  0
VERTEX
  8
GSLAYER
 10
205737.5
 20
770212.66883
  0
VERTEX
  8
GSLAYER
 10
205750
 20
770223.457326
  0
VERTEX
  8
GSLAYER
 10
205751.926223
 20
770225
  0
VERTEX
  8
GSLAYER
 10
205762.5
 20
770233.775147
  0
VERTEX
  8
GSLAYER
 10
205767.295233
 20
770237.5
  0
VERTEX
  8
GSLAYER
 10
205775
 20
770243.692499
  0
VERTEX
  8
GSLAYER
 10
205783.264728
 20
770250
  0
VERTEX
  8
GSLAYER
 10
205787.5
 20
770253.217006
  0
VERTEX
  8
GSLAYER
 10
205800
 20
770260.978618
  0
VERTEX
  8
GSLAYER
 10
205803.007098
 20
770262.5
  0
VERTEX
  8
GSLAYER
 10
205812.5
 20
770267.218338
  0
VERTEX
  8
GSLAYER
 10
205825
 20
770273.551462
  0
VERTEX
  8
GSLAYER
 10
205827.693593
 20
770275
  0
VERTEX
  8
GSLAYER
 10
205837.5
 20
770280.508986
  0
VERTEX
  8
GSLAYER
 10
205849.249613
 20
770287.5
  0
VERTEX
  8
GSLAYER
 10
205850
 20
770287.966038
  0
VERTEX
  8
GSLAYER
 10
205862.5
 20
770296.51551
  0
VERTEX
  8
GSLAYER
 10
205867.06605
 20
770300
  0
VERTEX
  8
GSLAYER
 10
205875
 20
770305.88706
  0
VERTEX
  8
GSLAYER
 10
205883.228911
 20
770312.5
  0
VERTEX
  8
GSLAYER
 10
205887.5
 20
770315.944587
  0
VERTEX
  8
GSLAYER
 10
205895.591319
 20
770325
  0
VERTEX
  8
GSLAYER
 10
205900
 20
770331.732046
  0
VERTEX
  8
GSLAYER
 10
205902.876806
 20
770337.5
  0
VERTEX
  8
GSLAYER
 10
205912.5
 20
770349.675309
  0
VERTEX
  8
GSLAYER
 10
205912.778216
 20
770350
  0
VERTEX
  8
GSLAYER
 10
205925
 20
770360.077902
  0
VERTEX
  8
GSLAYER
 10
205929.267084
 20
770362.5
  0
VERTEX
  8
GSLAYER
 10
205933.692465
 20
770375
  0
VERTEX
  8
GSLAYER
 10
205927.73936
 20
770387.5
  0
VERTEX
  8
GSLAYER
 10
205925
 20
770388.688852
  0
VERTEX
  8
GSLAYER
 10
205912.5
 20
770392.083302
  0
VERTEX
  8
GSLAYER
 10
205900.296962
 20
770400
  0
VERTEX
  8
GSLAYER
 10
205900
 20
770400.254027
  0
VERTEX
  8
GSLAYER
 10
205890.75302
 20
770412.5
  0
VERTEX
  8
GSLAYER
 10
205887.868859
 20
770425
  0
VERTEX
  8
GSLAYER
 10
205889.251389
 20
770437.5
  0
VERTEX
  8
GSLAYER
 10
205895.200503
 20
770450
  0
VERTEX
  8
GSLAYER
 10
205900
 20
770455.57959
  0
VERTEX
  8
GSLAYER
 10
205910.547168
 20
770462.5
  0
VERTEX
  8
GSLAYER
 10
205912.5
 20
770463.562266
  0
VERTEX
  8
GSLAYER
 10
205925
 20
770466.83258
  0
VERTEX
  8
GSLAYER
 10
205937.5
 20
770467.253527
  0
VERTEX
  8
GSLAYER
 10
205950
 20
770466.865295
  0
VERTEX
  8
GSLAYER
 10
205958.637518
 20
770475
  0
VERTEX
  8
GSLAYER
 10
205962.5
 20
770482.398994
  0
VERTEX
  8
GSLAYER
 10
205964.419491
 20
770487.5
  0
VERTEX
  8
GSLAYER
 10
205974.55496
 20
770500
  0
VERTEX
  8
GSLAYER
 10
205975
 20
770500.971164
  0
VERTEX
  8
GSLAYER
 10
205981.971961
 20
770512.5
  0
VERTEX
  8
GSLAYER
 10
205987.5
 20
770519.785663
  0
VERTEX
  8
GSLAYER
 10
205992.278618
 20
770525
  0
VERTEX
  8
GSLAYER
 10
206000
 20
770532.951058
  0
VERTEX
  8
GSLAYER
 10
206002.517275
 20
770537.5
  0
VERTEX
  8
GSLAYER
 10
206000
 20
770547.328165
  0
VERTEX
  8
GSLAYER
 10
205992.258308
 20
770550
  0
VERTEX
  8
GSLAYER
 10
205995.827482
 20
770562.5
  0
VERTEX
  8
GSLAYER
 10
205996.932978
 20
770575
  0
VERTEX
  8
GSLAYER
 10
206000
 20
770587.272487
  0
VERTEX
  8
GSLAYER
 10
206000.145598
 20
770587.5
  0
VERTEX
  8
GSLAYER
 10
206012.5
 20
770596.087575
  0
VERTEX
  8
GSLAYER
 10
206023.192098
 20
770600
  0
VERTEX
  8
GSLAYER
 10
206025
 20
770600.505278
  0
VERTEX
  8
GSLAYER
 10
206037.5
 20
770607.673306
  0
VERTEX
  8
GSLAYER
 10
206040.816694
 20
770612.5
  0
VERTEX
  8
GSLAYER
 10
206044.738245
 20
770625
  0
VERTEX
  8
GSLAYER
 10
206046.27332
 20
770637.5
  0
VERTEX
  8
GSLAYER
 10
206047.053426
 20
770650
  0
VERTEX
  8
GSLAYER
 10
206049.217015
 20
770662.5
  0
VERTEX
  8
GSLAYER
 10
206050
 20
770664.664576
  0
VERTEX
  8
GSLAYER
 10
206053.439762
 20
770675
  0
VERTEX
  8
GSLAYER
 10
206061.742902
 20
770687.5
  0
VERTEX
  8
GSLAYER
 10
206062.5
 20
770688.15349
  0
VERTEX
  8
GSLAYER
 10
206075
 20
770699.72627
  0
VERTEX
  8
GSLAYER
 10
206075.255707
 20
770700
  0
VERTEX
  8
GSLAYER
 10
206087.5
 20
770708.834181
  0
VERTEX
  8
GSLAYER
 10
206092.532908
 20
770712.5
  0
VERTEX
  8
GSLAYER
 10
206100
 20
770716.905035
  0
VERTEX
  8
GSLAYER
 10
206111.02397
 20
770725
  0
VERTEX
  8
GSLAYER
 10
206112.5
 20
770726.337054
  0
VERTEX
  8
GSLAYER
 10
206120.976089
 20
770737.5
  0
VERTEX
  8
GSLAYER
 10
206125
 20
770740.592122
  0
VERTEX
  8
GSLAYER
 10
206137.185411
 20
770750
  0
VERTEX
  8
GSLAYER
 10
206137.5
 20
770750.287599
  0
VERTEX
  8
GSLAYER
 10
206147.967326
 20
770762.5
  0
VERTEX
  8
GSLAYER
 10
206150
 20
770765.099827
  0
VERTEX
  8
GSLAYER
 10
206157.757676
 20
770775
  0
VERTEX
  8
GSLAYER
 10
206162.5
 20
770780.485194
  0
VERTEX
  8
GSLAYER
 10
206169.717708
 20
770787.5
  0
VERTEX
  8
GSLAYER
 10
206175
 20
770791.940417
  0
VERTEX
  8
GSLAYER
 10
206184.402872
 20
770800
  0
VERTEX
  8
GSLAYER
 10
206187.5
 20
770802.720933
  0
VERTEX
  8
GSLAYER
 10
206197.8807
 20
770812.5
  0
VERTEX
  8
GSLAYER
 10
206200
 20
770814.62414
  0
VERTEX
  8
GSLAYER
 10
206211.214239
 20
770825
  0
VERTEX
  8
GSLAYER
 10
206212.5
 20
770826.168045
  0
VERTEX
  8
GSLAYER
 10
206225
 20
770836.493087
  0
VERTEX
  8
GSLAYER
 10
206226.230643
 20
770837.5
  0
VERTEX
  8
GSLAYER
 10
206237.5
 20
770846.797786
  0
VERTEX
  8
GSLAYER
 10
206240.978147
 20
770850
  0
VERTEX
  8
GSLAYER
 10
206250
 20
770858.324141
  0
VERTEX
  8
GSLAYER
 10
206253.517477
 20
770862.5
  0
VERTEX
  8
GSLAYER
 10
206262.5
 20
770872.291681
  0
VERTEX
  8
GSLAYER
 10
206264.605645
 20
770875
  0
VERTEX
  8
GSLAYER
 10
206274.270633
 20
770887.5
  0
VERTEX
  8
GSLAYER
 10
206275
 20
770888.382575
  0
VERTEX
  8
GSLAYER
 10
206286.55248
 20
770900
  0
VERTEX
  8
GSLAYER
 10
206287.5
 20
770900.869779
  0
VERTEX
  8
GSLAYER
 10
206300
 20
770910.349864
  0
VERTEX
  8
GSLAYER
 10
206303.519637
 20
770912.5
  0
VERTEX
  8
GSLAYER
 10
206312.5
 20
770918.101272
  0
VERTEX
  8
GSLAYER
 10
206325
 20
770924.794813
  0
VERTEX
  8
GSLAYER
 10
206325.421926
 20
770925
  0
VERTEX
  8
GSLAYER
 10
206337.5
 20
770931.205799
  0
VERTEX
  8
GSLAYER
 10
206350
 20
770937.088252
  0
VERTEX
  8
GSLAYER
 10
206351.261735
 20
770937.5
  0
VERTEX
  8
GSLAYER
 10
206362.5
 20
770941.0424
  0
VERTEX
  8
GSLAYER
 10
206375
 20
770945.14637
  0
VERTEX
  8
GSLAYER
 10
206387.5
 20
770949.301383
  0
VERTEX
  8
GSLAYER
 10
206389.467053
 20
770950
  0
VERTEX
  8
GSLAYER
 10
206400
 20
770954.152592
  0
VERTEX
  8
GSLAYER
 10
206412.5
 20
770960.969474
  0
VERTEX
  8
GSLAYER
 10
206414.080705
 20
770962.5
  0
VERTEX
  8
GSLAYER
 10
206420.342829
 20
770975
  0
VERTEX
  8
GSLAYER
 10
206425
 20
770980.019411
  0
VERTEX
  8
GSLAYER
 10
206434.101327
 20
770987.5
  0
VERTEX
  8
GSLAYER
 10
206437.5
 20
770990.560723
  0
VERTEX
  8
GSLAYER
 10
206447.411485
 20
771000
  0
VERTEX
  8
GSLAYER
 10
206450
 20
771003.716901
  0
VERTEX
  8
GSLAYER
 10
206456.411576
 20
771012.5
  0
VERTEX
  8
GSLAYER
 10
206462.5
 20
771019.11836
  0
VERTEX
  8
GSLAYER
 10
206467.236964
 20
771025
  0
VERTEX
  8
GSLAYER
 10
206475
 20
771036.780752
  0
VERTEX
  8
GSLAYER
 10
206475.389223
 20
771037.5
  0
VERTEX
  8
GSLAYER
 10
206480.560589
 20
771050
  0
VERTEX
  8
GSLAYER
 10
206486.988706
 20
771062.5
  0
VERTEX
  8
GSLAYER
 10
206487.5
 20
771063.086299
  0
VERTEX
  8
GSLAYER
 10
206500
 20
771071.488749
  0
VERTEX
  8
GSLAYER
 10
206506.730854
 20
771075
  0
VERTEX
  8
GSLAYER
 10
206512.5
 20
771078.474421
  0
VERTEX
  8
GSLAYER
 10
206525
 20
771086.491827
  0
VERTEX
  8
GSLAYER
 10
206526.410969
 20
771087.5
  0
VERTEX
  8
GSLAYER
 10
206537.5
 20
771096.32669
  0
VERTEX
  8
GSLAYER
 10
206541.940451
 20
771100
  0
VERTEX
  8
GSLAYER
 10
206550
 20
771106.737538
  0
VERTEX
  8
GSLAYER
 10
206556.328772
 20
771112.5
  0
VERTEX
  8
GSLAYER
 10
206562.5
 20
771118.741054
  0
VERTEX
  8
GSLAYER
 10
206568.107855
 20
771125
  0
VERTEX
  8
GSLAYER
 10
206575
 20
771133.588396
  0
VERTEX
  8
GSLAYER
 10
206578.060875
 20
771137.5
  0
VERTEX
  8
GSLAYER
 10
206586.53261
 20
771150
  0
VERTEX
  8
GSLAYER
 10
206587.5
 20
771151.751017
  0
VERTEX
  8
GSLAYER
 10
206594.100871
 20
771162.5
  0
VERTEX
  8
GSLAYER
 10
206600
 20
771168.995741
  0
VERTEX
  8
GSLAYER
 10
206612.5
 20
771167.181083
  0
VERTEX
  8
GSLAYER
 10
206625
 20
771166.936464
  0
VERTEX
  8
GSLAYER
 10
206631.763643
 20
771175
  0
VERTEX
  8
GSLAYER
 10
206637.5
 20
771178.450349
  0
VERTEX
  8
GSLAYER
 10
206650
 20
771185.548218
  0
VERTEX
  8
GSLAYER
 10
206651.770764
 20
771187.5
  0
VERTEX
  8
GSLAYER
 10
206661.014717
 20
771200
  0
SEQEND
  0
POLYLINE
  8
GSLAYER
 62
7
 40
0.0
 41
0.0
 70
128
 30
30
 66
1
  0
VERTEX
  8
GSLAYER
 10
205937.67385
 20
770200
  0
VERTEX
  8
GSLAYER
 10
205942.888663
 20
770212.5
  0
VERTEX
  8
GSLAYER
 10
205948.831308
 20
770225
  0
VERTEX
  8
GSLAYER
 10
205950
 20
770227.659149
  0
VERTEX
  8
GSLAYER
 10
205954.116782
 20
770237.5
  0
VERTEX
  8
GSLAYER
 10
205958.772403
 20
770250
  0
VERTEX
  8
GSLAYER
 10
205962.251124
 20
770262.5
  0
VERTEX
  8
GSLAYER
 10
205962.5
 20
770264.081098
  0
VERTEX
  8
GSLAYER
 10
205964.193425
 20
770275
  0
VERTEX
  8
GSLAYER
 10
205964.677868
 20
770287.5
  0
VERTEX
  8
GSLAYER
 10
205964.186924
 20
770300
  0
VERTEX
  8
GSLAYER
 10
205963.70412
 20
770312.5
  0
VERTEX
  8
GSLAYER
 10
205964.904661
 20
770325
  0
VERTEX
  8
GSLAYER
 10
205969.952264
 20
770337.5
  0
VERTEX
  8
GSLAYER
 10
205975
 20
770348.617224
  0
VERTEX
  8
GSLAYER
 10
205975.746673
 20
770350
  0
VERTEX
  8
GSLAYER
 10
205982.225351
 20
770362.5
  0
VERTEX
  8
GSLAYER
 10
205987.5
 20
770369.714807
  0
VERTEX
  8
GSLAYER
 10
205992.114167
 20
770375
  0
VERTEX
  8
GSLAYER
 10
206000
 20
770382.564354
  0
VERTEX
  8
GSLAYER
 10
206006.527947
 20
770387.5
  0
VERTEX
  8
GSLAYER
 10
206012.5
 20
770392.059257
  0
VERTEX
  8
GSLAYER
 10
206025
 20
770398.537908
  0
VERTEX
  8
GSLAYER
 10
206028.827272
 20
770400
  0
VERTEX
  8
GSLAYER
 10
206037.5
 20
770403.913417
  0
VERTEX
  8
GSLAYER
 10
206050
 20
770410.509263
  0
VERTEX
  8
GSLAYER
 10
206052.499157
 20
770412.5
  0
VERTEX
  8
GSLAYER
 10
206062.5
 20
770418.422652
  0
VERTEX
  8
GSLAYER
 10
206075
 20
770424.234131
  0
VERTEX
  8
GSLAYER
 10
206078.4439
 20
770425
  0
VERTEX
  8
GSLAYER
 10
206087.5
 20
770426.890723
  0
VERTEX
  8
GSLAYER
 10
206100
 20
770426.115625
  0
VERTEX
  8
GSLAYER
 10
206103.38918
 20
770425
  0
VERTEX
  8
GSLAYER
 10
206112.5
 20
770423.264902
  0
VERTEX
  8
GSLAYER
 10
206116.386288
 20
770425
  0
VERTEX
  8
GSLAYER
 10
206125
 20
770434.566996
  0
VERTEX
  8
GSLAYER
 10
206125.879772
 20
770437.5
  0
VERTEX
  8
GSLAYER
 10
206129.090385
 20
770450
  0
VERTEX
  8
GSLAYER
 10
206137.5
 20
770460.228395
  0
VERTEX
  8
GSLAYER
 10
206139.493325
 20
770462.5
  0
VERTEX
  8
GSLAYER
 10
206150
 20
770474.22504
  0
VERTEX
  8
GSLAYER
 10
206150.503125
 20
770475
  0
VERTEX
  8
GSLAYER
 10
206154.948856
 20
770487.5
  0
VERTEX
  8
GSLAYER
 10
206162.258753
 20
770500
  0
VERTEX
  8
GSLAYER
 10
206162.5
 20
770500.384038
  0
VERTEX
  8
GSLAYER
 10
206170.581376
 20
770512.5
  0
VERTEX
  8
GSLAYER
 10
206175
 20
770518.405148
  0
VERTEX
  8
GSLAYER
 10
206179.422702
 20
770525
  0
VERTEX
  8
GSLAYER
 10
206186.266834
 20
770537.5
  0
VERTEX
  8
GSLAYER
 10
206187.5
 20
770540.016016
  0
VERTEX
  8
GSLAYER
 10
206192.210163
 20
770550
  0
VERTEX
  8
GSLAYER
 10
206199.023328
 20
770562.5
  0
VERTEX
  8
GSLAYER
 10
206200
 20
770564.684206
  0
VERTEX
  8
GSLAYER
 10
206204.764666
 20
770575
  0
VERTEX
  8
GSLAYER
 10
206209.159932
 20
770587.5
  0
VERTEX
  8
GSLAYER
 10
206212.5
 20
770597.947363
  0
VERTEX
  8
GSLAYER
 10
206213.288236
 20
770600
  0
VERTEX
  8
GSLAYER
 10
206217.800181
 20
770612.5
  0
VERTEX
  8
GSLAYER
 10
206220.123529
 20
770625
  0
VERTEX
  8
GSLAYER
 10
206222.22419
 20
770637.5
  0
VERTEX
  8
GSLAYER
 10
206222.654157
 20
770650
  0
VERTEX
  8
GSLAYER
 10
206217.77064
 20
770662.5
  0
VERTEX
  8
GSLAYER
 10
206212.5
 20
770664.562061
  0
VERTEX
  8
GSLAYER
 10
206200
 20
770673.4296
  0
VERTEX
  8
GSLAYER
 10
206198.619404
 20
770675
  0
VERTEX
  8
GSLAYER
 10
206193.71302
 20
770687.5
  0
VERTEX
  8
GSLAYER
 10
206197.597921
 20
770700
  0
VERTEX
  8
GSLAYER
 10
206200
 20
770703.144812
  0
VERTEX
  8
GSLAYER
 10
206207.900845
 20
770712.5
  0
VERTEX
  8
GSLAYER
 10
206212.5
 20
770718.169801
  0
VERTEX
  8
GSLAYER
 10
206217.461537
 20
770725
  0
VERTEX
  8
GSLAYER
 10
206225
 20
770729.546912
  0
VERTEX
  8
GSLAYER
 10
206237.5
 20
770730.851678
  0
VERTEX
  8
GSLAYER
 10
206240.929728
 20
770737.5
  0
VERTEX
  8
GSLAYER
 10
206250
 20
770745.748927
  0
VERTEX
  8
GSLAYER
 10
206252.701725
 20
770750
  0
VERTEX
  8
GSLAYER
 10
206255.550383
 20
770762.5
  0
VERTEX
  8
GSLAYER
 10
206259.84913
 20
770775
  0
VERTEX
  8
GSLAYER
 10
206262.5
 20
770778.582543
  0
VERTEX
  8
GSLAYER
 10
206270.221428
 20
770787.5
  0
VERTEX
  8
GSLAYER
 10
206275
 20
770791.030786
  0
VERTEX
  8
GSLAYER
 10
206287.5
 20
770796.647626
  0
VERTEX
  8
GSLAYER
 10
206300
 20
770799.994654
  0
VERTEX
  8
GSLAYER
 10
206300.015772
 20
770800
  0
VERTEX
  8
GSLAYER
 10
206308.476002
 20
770812.5
  0
VERTEX
  8
GSLAYER
 10
206304.957065
 20
770825
  0
VERTEX
  8
GSLAYER
 10
206300
 20
770834.282127
  0
VERTEX
  8
GSLAYER
 10
206299.423359
 20
770837.5
  0
VERTEX
  8
GSLAYER
 10
206300
 20
770838.361445
  0
VERTEX
  8
GSLAYER
 10
206312.5
 20
770840.549819
  0
VERTEX
  8
GSLAYER
 10
206325
 20
770842.91731
  0
VERTEX
  8
GSLAYER
 10
206337.5
 20
770846.967324
  0
VERTEX
  8
GSLAYER
 10
206345.709853
 20
770850
  0
VERTEX
  8
GSLAYER
 10
206350
 20
770851.401371
  0
VERTEX
  8
GSLAYER
 10
206362.5
 20
770855.928602
  0
VERTEX
  8
GSLAYER
 10
206375
 20
770860.440785
  0
VERTEX
  8
GSLAYER
 10
206380.608135
 20
770862.5
  0
VERTEX
  8
GSLAYER
 10
206387.5
 20
770865.188589
  0
VERTEX
  8
GSLAYER
 10
206400
 20
770872.149436
  0
VERTEX
  8
GSLAYER
 10
206403.595418
 20
770875
  0
VERTEX
  8
GSLAYER
 10
206412.5
 20
770882.447914
  0
VERTEX
  8
GSLAYER
 10
206418.725284
 20
770887.5
  0
VERTEX
  8
GSLAYER
 10
206425
 20
770892.372649
  0
VERTEX
  8
GSLAYER
 10
206435.131255
 20
770900
  0
VERTEX
  8
GSLAYER
 10
206437.5
 20
770901.723529
  0
VERTEX
  8
GSLAYER
 10
206450
 20
770910.557369
  0
VERTEX
  8
GSLAYER
 10
206452.912762
 20
770912.5
  0
VERTEX
  8
GSLAYER
 10
206462.5
 20
770918.785722
  0
VERTEX
  8
GSLAYER
 10
206473.275054
 20
770925
  0
VERTEX
  8
GSLAYER
 10
206475
 20
770925.998586
  0
VERTEX
  8
GSLAYER
 10
206487.5
 20
770932.476928
  0
VERTEX
  8
GSLAYER
 10
206499.780293
 20
770937.5
  0
VERTEX
  8
GSLAYER
 10
206500
 20
770937.596517
  0
VERTEX
  8
GSLAYER
 10
206512.5
 20
770942.789702
  0
VERTEX
  8
GSLAYER
 10
206524.843064
 20
770950
  0
VERTEX
  8
GSLAYER
 10
206525
 20
770950.122783
  0
VERTEX
  8
GSLAYER
 10
206537.5
 20
770961.10272
  0
VERTEX
  8
GSLAYER
 10
206539.306285
 20
770962.5
  0
VERTEX
  8
GSLAYER
 10
206550
 20
770973.051926
  0
VERTEX
  8
GSLAYER
 10
206551.438546
 20
770975
  0
VERTEX
  8
GSLAYER
 10
206558.271509
 20
770987.5
  0
VERTEX
  8
GSLAYER
 10
206562.5
 20
770993.705473
  0
VERTEX
  8
GSLAYER
 10
206567.110334
 20
771000
  0
VERTEX
  8
GSLAYER
 10
206575
 20
771008.993038
  0
VERTEX
  8
GSLAYER
 10
206578.487725
 20
771012.5
  0
VERTEX
  8
GSLAYER
 10
206587.5
 20
771020.439769
  0
VERTEX
  8
GSLAYER
 10
206593.592231
 20
771025
  0
VERTEX
  8
GSLAYER
 10
206600
 20
771029.539404
  0
VERTEX
  8
GSLAYER
 10
206612.5
 20
771037.065575
  0
VERTEX
  8
GSLAYER
 10
206612.932005
 20
771037.5
  0
VERTEX
  8
GSLAYER
 10
206621.562284
 20
771050
  0
VERTEX
  8
GSLAYER
 10
206625
 20
771054.052267
  0
VERTEX
  8
GSLAYER
 10
206631.575594
 20
771062.5
  0
VERTEX
  8
GSLAYER
 10
206637.445364
 20
771075
  0
VERTEX
  8
GSLAYER
 10
206637.5
 20
771075.125567
  0
VERTEX
  8
GSLAYER
 10
206642.228012
 20
771087.5
  0
VERTEX
  8
GSLAYER
 10
206649.154827
 20
771100
  0
VERTEX
  8
GSLAYER
 10
206650
 20
771101.261457
  0
VERTEX
  8
GSLAYER
 10
206657.750528
 20
771112.5
  0
VERTEX
  8
GSLAYER
 10
206662.5
 20
771118.326502
  0
VERTEX
  8
GSLAYER
 10
206668.239627
 20
771125
  0
VERTEX
  8
GSLAYER
 10
206675
 20
771132.41912
  0
VERTEX
  8
GSLAYER
 10
206679.876227
 20
771137.5
  0
VERTEX
  8
GSLAYER
 10
206687.5
 20
771145.924026
  0
VERTEX
  8
GSLAYER
 10
206690.743945
 20
771150
  0
VERTEX
  8
GSLAYER
 10
206697.027997
 20
771162.5
  0
VERTEX
  8
GSLAYER
 10
206700
 20
771166.477319
  0
SEQEND
  0
POLYLINE
  8
GSLAYER
 62
7
 40
0.0
 41
0.0
 70
128
 30
40
 66
1
  0
VERTEX
  8
GSLAYER
 10
205990.608352
 20
770200
  0
VERTEX
  8
GSLAYER
 10
206000
 20
770210.726886
  0
VERTEX
  8
GSLAYER
 10
206001.673938
 20
770212.5
  0
VERTEX
  8
GSLAYER
 10
206012.5
 20
770224.126217
  0
VERTEX
  8
GSLAYER
 10
206013.358317
 20
770225
  0
VERTEX
  8
GSLAYER
 10
206025
 20
770237.264504
  0
VERTEX
  8
GSLAYER
 10
206025.231563
 20
770237.5
  0
VERTEX
  8
GSLAYER
 10
206036.676074
 20
770250
  0
VERTEX
  8
GSLAYER
 10
206037.5
 20
770251.011886
  0
VERTEX
  8
GSLAYER
 10
206046.580126
 20
770262.5
  0
VERTEX
  8
GSLAYER
 10
206050
 20
770266.907531
  0
VERTEX
  8
GSLAYER
 10
206056.216489
 20
770275
  0
VERTEX
  8
GSLAYER
 10
206062.5
 20
770283.043563
  0
VERTEX
  8
GSLAYER
 10
206065.649229
 20
770287.5
  0
VERTEX
  8
GSLAYER
 10
206074.838328
 20
770300
  0
VERTEX
  8
GSLAYER
 10
206075
 20
770300.188931
  0
VERTEX
  8
GSLAYER
 10
206082.777882
 20
770312.5
  0
VERTEX
  8
GSLAYER
 10
206087.5
 20
770318.837889
  0
VERTEX
  8
GSLAYER
 10
206090.410853
 20
770325
  0
VERTEX
  8
GSLAYER
 10
206095.852951
 20
770337.5
  0
VERTEX
  8
GSLAYER
 10
206099.112324
 20
770350
  0
VERTEX
  8
GSLAYER
 10
206099.056576
 20
770362.5
  0
VERTEX
  8
GSLAYER
 10
206095.113175
 20
770375
  0
VERTEX
  8
GSLAYER
 10
206089.658385
 20
770387.5
  0
VERTEX
  8
GSLAYER
 10
206093.753623
 20
770400
  0
VERTEX
  8
GSLAYER
 10
206100
 20
770403.614859
  0
VERTEX
  8
GSLAYER
 10
206112.5
 20
770402.407398
  0
VERTEX
  8
GSLAYER
 10
206125
 20
770403.000211
  0
VERTEX
  8
GSLAYER
 10
206137.081848
 20
770412.5
  0
VERTEX
  8
GSLAYER
 10
206137.5
 20
770413.29628
  0
VERTEX
  8
GSLAYER
 10
206141.587151
 20
770425
  0
VERTEX
  8
GSLAYER
 10
206143.315098
 20
770437.5
  0
VERTEX
  8
GSLAYER
 10
206148.250384
 20
770450
  0
VERTEX
  8
GSLAYER
 10
206150
 20
770451.879889
  0
VERTEX
  8
GSLAYER
 10
206159.557171
 20
770462.5
  0
VERTEX
  8
GSLAYER
 10
206162.5
 20
770466.50284
  0
VERTEX
  8
GSLAYER
 10
206171.25123
 20
770475
  0
VERTEX
  8
GSLAYER
 10
206175
 20
770479.80661
  0
VERTEX
  8
GSLAYER
 10
206182.097602
 20
770487.5
  0
VERTEX
  8
GSLAYER
 10
206187.5
 20
770493.666072
  0
VERTEX
  8
GSLAYER
 10
206192.989308
 20
770500
  0
VERTEX
  8
GSLAYER
 10
206200
 20
770511.506597
  0
VERTEX
  8
GSLAYER
 10
206200.43067
 20
770512.5
  0
VERTEX
  8
GSLAYER
 10
206207.36296
 20
770525
  0
VERTEX
  8
GSLAYER
 10
206212.5
 20
770532.021627
  0
VERTEX
  8
GSLAYER
 10
206217.122276
 20
770537.5
  0
VERTEX
  8
GSLAYER
 10
206225
 20
770546.00974
  0
VERTEX
  8
GSLAYER
 10
206229.019323
 20
770550
  0
VERTEX
  8
GSLAYER
 10
206237.5
 20
770562.116821
  0
VERTEX
  8
GSLAYER
 10
206237.682979
 20
770562.5
  0
VERTEX
  8
GSLAYER
 10
206247.003473
 20
770575
  0
VERTEX
  8
GSLAYER
 10
206250
 20
770578.599677
  0
VERTEX
  8
GSLAYER
 10
206258.194625
 20
770587.5
  0
VERTEX
  8
GSLAYER
 10
206262.5
 20
770594.163826
  0
VERTEX
  8
GSLAYER
 10
206265.432668
 20
770600
  0
VERTEX
  8
GSLAYER
 10
206273.27345
 20
770612.5
  0
VERTEX
  8
GSLAYER
 10
206275
 20
770615.139785
  0
VERTEX
  8
GSLAYER
 10
206282.632793
 20
770625
  0
VERTEX
  8
GSLAYER
 10
206287.5
 20
770633.416344
  0
VERTEX
  8
GSLAYER
 10
206289.757003
 20
770637.5
  0
VERTEX
  8
GSLAYER
 10
206292.150347
 20
770650
  0
VERTEX
  8
GSLAYER
 10
206291.380302
 20
770662.5
  0
VERTEX
  8
GSLAYER
 10
206287.9475
 20
770675
  0
VERTEX
  8
GSLAYER
 10
206287.5
 20
770676.072651
  0
VERTEX
  8
GSLAYER
 10
206282.402718
 20
770687.5
  0
VERTEX
  8
GSLAYER
 10
206276.640944
 20
770700
  0
VERTEX
  8
GSLAYER
 10
206275
 20
770707.080066
  0
VERTEX
  8
GSLAYER
 10
206274.264055
 20
770712.5
  0
VERTEX
  8
GSLAYER
 10
206275
 20
770714.015857
  0
VERTEX
  8
GSLAYER
 10
206282.822486
 20
770725
  0
VERTEX
  8
GSLAYER
 10
206287.5
 20
770732.210545
  0
VERTEX
  8
GSLAYER
 10
206291.362217
 20
770737.5
  0
VERTEX
  8
GSLAYER
 10
206300
 20
770748.43083
  0
VERTEX
  8
GSLAYER
 10
206301.579788
 20
770750
  0
VERTEX
  8
GSLAYER
 10
206312.5
 20
770758.455288
  0
VERTEX
  8
GSLAYER
 10
206318.4277
 20
770762.5
  0
VERTEX
  8
GSLAYER
 10
206325
 20
770766.43912
  0
VERTEX
  8
GSLAYER
 10
206337.5
 20
770774.872133
  0
VERTEX
  8
GSLAYER
 10
206337.67914
 20
770775
  0
VERTEX
  8
GSLAYER
 10
206350
 20
770784.181883
  0
VERTEX
  8
GSLAYER
 10
206354.618665
 20
770787.5
  0
VERTEX
  8
GSLAYER
 10
206362.5
 20
770793.428081
  0
VERTEX
  8
GSLAYER
 10
206372.255642
 20
770800
  0
VERTEX
  8
GSLAYER
 10
206375
 20
770801.887368
  0
VERTEX
  8
GSLAYER
 10
206387.5
 20
770810.047145
  0
VERTEX
  8
GSLAYER
 10
206391.158575
 20
770812.5
  0
VERTEX
  8
GSLAYER
 10
206400
 20
770818.489396
  0
VERTEX
  8
GSLAYER
 10
206408.759838
 20
770825
  0
VERTEX
  8
GSLAYER
 10
206412.5
 20
770827.703037
  0
VERTEX
  8
GSLAYER
 10
206424.946754
 20
770837.5
  0
VERTEX
  8
GSLAYER
 10
206425
 20
770837.541396
  0
VERTEX
  8
GSLAYER
 10
206437.5
 20
770847.799978
  0
VERTEX
  8
GSLAYER
 10
206440.153953
 20
770850
  0
VERTEX
  8
GSLAYER
 10
206450
 20
770858.209082
  0
VERTEX
  8
GSLAYER
 10
206455.127986
 20
770862.5
  0
VERTEX
  8
GSLAYER
 10
206462.5
 20
770868.55847
  0
VERTEX
  8
GSLAYER
 10
206470.43912
 20
770875
  0
VERTEX
  8
GSLAYER
 10
206475
 20
770878.54348
  0
VERTEX
  8
GSLAYER
 10
206486.885441
 20
770887.5
  0
VERTEX
  8
GSLAYER
 10
206487.5
 20
770887.937714
  0
VERTEX
  8
GSLAYER
 10
206500
 20
770896.787578
  0
VERTEX
  8
GSLAYER
 10
206504.525398
 20
770900
  0
VERTEX
  8
GSLAYER
 10
206512.5
 20
770905.266753
  0
VERTEX
  8
GSLAYER
 10
206522.831974
 20
770912.5
  0
VERTEX
  8
GSLAYER
 10
206525
 20
770913.908591
  0
VERTEX
  8
GSLAYER
 10
206537.5
 20
770923.395398
  0
VERTEX
  8
GSLAYER
 10
206539.35763
 20
770925
  0
VERTEX
  8
GSLAYER
 10
206550
 20
770933.947095
  0
VERTEX
  8
GSLAYER
 10
206554.140175
 20
770937.5
  0
VERTEX
  8
GSLAYER
 10
206562.5
 20
770944.803144
  0
VERTEX
  8
GSLAYER
 10
206568.470509
 20
770950
  0
VERTEX
  8
GSLAYER
 10
206575
 20
770956.542334
  0
VERTEX
  8
GSLAYER
 10
206581.086375
 20
770962.5
  0
VERTEX
  8
GSLAYER
 10
206587.5
 20
770969.537281
  0
VERTEX
  8
GSLAYER
 10
206592.787111
 20
770975
  0
VERTEX
  8
GSLAYER
 10
206600
 20
770982.576163
  0
VERTEX
  8
GSLAYER
 10
206604.934433
 20
770987.5
  0
VERTEX
  8
GSLAYER
 10
206612.5
 20
770994.840143
  0
VERTEX
  8
GSLAYER
 10
206617.755081
 20
771000
  0
VERTEX
  8
GSLAYER
 10
206625
 20
771006.940329
  0
VERTEX
  8
GSLAYER
 10
206630.319274
 20
771012.5
  0
VERTEX
  8
GSLAYER
 10
206637.5
 20
771020.146942
  0
VERTEX
  8
GSLAYER
 10
206641.781166
 20
771025
  0
VERTEX
  8
GSLAYER
 10
206650
 20
771035.124889
  0
VERTEX
  8
GSLAYER
 10
206651.861433
 20
771037.5
  0
VERTEX
  8
GSLAYER
 10
206660.458582
 20
771050
  0
VERTEX
  8
GSLAYER
 10
206662.5
 20
771053.349568
  0
VERTEX
  8
GSLAYER
 10
206668.21105
 20
771062.5
  0
VERTEX
  8
GSLAYER
 10
206675
 20
771072.833338
  0
VERTEX
  8
GSLAYER
 10
206676.645098
 20
771075
  0
VERTEX
  8
GSLAYER
 10
206687.344808
 20
771087.5
  0
VERTEX
  8
GSLAYER
 10
206687.5
 20
771087.672864
  0
VERTEX
  8
GSLAYER
 10
206700
 20
771099.159505
  0
SEQEND
  0
POLYLINE
  8
GSLAYER
 62
7
 40
0.0
 41
0.0
 70
128
 30
50
 66
1
  0
VERTEX
  8
GSLAYER
 10
206700
 20
770213.020054
  0
VERTEX
  8
GSLAYER
 10
206699.337037
 20
770212.5
  0
VERTEX
  8
GSLAYER
 10
206687.5
 20
770200.175037
  0
VERTEX
  8
GSLAYER
 10
206687.412323
 20
770200
  0
SEQEND
  0
POLYLINE
  8
GSLAYER
 62
7
 40
0.0
 41
0.0
 70
128
 30
50
 66
1
  0
VERTEX
  8
GSLAYER
 10
206033.001314
 20
770200
  0
VERTEX
  8
GSLAYER
 10
206037.5
 20
770204.713683
  0
VERTEX
  8
GSLAYER
 10
206043.181866
 20
770212.5
  0
VERTEX
  8
GSLAYER
 10
206050
 20
770219.929235
  0
VERTEX
  8
GSLAYER
 10
206054.61291
 20
770225
  0
VERTEX
  8
GSLAYER
 10
206062.5
 20
770232.910896
  0
VERTEX
  8
GSLAYER
 10
206065.603178
 20
770237.5
  0
VERTEX
  8
GSLAYER
 10
206073.420565
 20
770250
  0
VERTEX
  8
GSLAYER
 10
206075
 20
770251.875995
  0
VERTEX
  8
GSLAYER
 10
206085.338571
 20
770262.5
  0
VERTEX
  8
GSLAYER
 10
206087.5
 20
770265.033155
  0
VERTEX
  8
GSLAYER
 10
206092.942091
 20
770275
  0
VERTEX
  8
GSLAYER
 10
206099.957288
 20
770287.5
  0
VERTEX
  8
GSLAYER
 10
206100
 20
770287.562771
  0
VERTEX
  8
GSLAYER
 10
206107.902265
 20
770300
  0
VERTEX
  8
GSLAYER
 10
206112.5
 20
770310.368489
  0
VERTEX
  8
GSLAYER
 10
206113.177409
 20
770312.5
  0
VERTEX
  8
GSLAYER
 10
206117.163392
 20
770325
  0
VERTEX
  8
GSLAYER
 10
206120.504981
 20
770337.5
  0
VERTEX
  8
GSLAYER
 10
206123.153277
 20
770350
  0
VERTEX
  8
GSLAYER
 10
206125
 20
770357.96473
  0
VERTEX
  8
GSLAYER
 10
206126.182097
 20
770362.5
  0
VERTEX
  8
GSLAYER
 10
206131.659539
 20
770375
  0
VERTEX
  8
GSLAYER
 10
206137.5
 20
770380.982596
  0
VERTEX
  8
GSLAYER
 10
206143.414413
 20
770387.5
  0
VERTEX
  8
GSLAYER
 10
206150
 20
770393.447447
  0
VERTEX
  8
GSLAYER
 10
206156.750896
 20
770400
  0
VERTEX
  8
GSLAYER
 10
206162.5
 20
770408.961226
  0
VERTEX
  8
GSLAYER
 10
206164.024762
 20
770412.5
  0
VERTEX
  8
GSLAYER
 10
206162.5
 20
770416.337805
  0
VERTEX
  8
GSLAYER
 10
206159.440733
 20
770425
  0
VERTEX
  8
GSLAYER
 10
206156.043178
 20
770437.5
  0
VERTEX
  8
GSLAYER
 10
206160.941702
 20
770450
  0
VERTEX
  8
GSLAYER
 10
206162.5
 20
770451.694634
  0
VERTEX
  8
GSLAYER
 10
206175
 20
770457.341225
  0
VERTEX
  8
GSLAYER
 10
206182.764197
 20
770462.5
  0
VERTEX
  8
GSLAYER
 10
206187.5
 20
770467.518735
  0
VERTEX
  8
GSLAYER
 10
206191.178728
 20
770475
  0
VERTEX
  8
GSLAYER
 10
206200
 20
770483.624551
  0
VERTEX
  8
GSLAYER
 10
206203.25157
 20
770487.5
  0
VERTEX
  8
GSLAYER
 10
206210.966346
 20
770500
  0
VERTEX
  8
GSLAYER
 10
206212.5
 20
770502.96661
  0
VERTEX
  8
GSLAYER
 10
206217.102554
 20
770512.5
  0
VERTEX
  8
GSLAYER
 10
206225
 20
770523.613724
  0
VERTEX
  8
GSLAYER
 10
206225.975875
 20
770525
  0
VERTEX
  8
GSLAYER
 10
206237.5
 20
770535.998811
  0
VERTEX
  8
GSLAYER
 10
206238.673437
 20
770537.5
  0
VERTEX
  8
GSLAYER
 10
206246.405753
 20
770550
  0
VERTEX
  8
GSLAYER
 10
206250
 20
770555.604503
  0
VERTEX
  8
GSLAYER
 10
206255.077179
 20
770562.5
  0
VERTEX
  8
GSLAYER
 10
206262.5
 20
770568.878243
  0
VERTEX
  8
GSLAYER
 10
206273.463947
 20
770575
  0
VERTEX
  8
GSLAYER
 10
206275
 20
770577.339789
  0
VERTEX
  8
GSLAYER
 10
206279.08235
 20
770587.5
  0
VERTEX
  8
GSLAYER
 10
206287.226926
 20
770600
  0
VERTEX
  8
GSLAYER
 10
206287.5
 20
770600.333884
  0
VERTEX
  8
GSLAYER
 10
206300
 20
770612.088097
  0
VERTEX
  8
GSLAYER
 10
206300.491129
 20
770612.5
  0
VERTEX
  8
GSLAYER
 10
206312.5
 20
770624.960488
  0
VERTEX
  8
GSLAYER
 10
206312.524705
 20
770625
  0
VERTEX
  8
GSLAYER
 10
206316.78025
 20
770637.5
  0
VERTEX
  8
GSLAYER
 10
206322.349478
 20
770650
  0
VERTEX
  8
GSLAYER
 10
206325
 20
770659.041924
  0
VERTEX
  8
GSLAYER
 10
206325.974934
 20
770662.5
  0
VERTEX
  8
GSLAYER
 10
206330.917153
 20
770675
  0
VERTEX
  8
GSLAYER
 10
206337.5
 20
770684.826578
  0
VERTEX
  8
GSLAYER
 10
206339.918531
 20
770687.5
  0
VERTEX
  8
GSLAYER
 10
206338.339871
 20
770700
  0
VERTEX
  8
GSLAYER
 10
206337.5
 20
770701.876005
  0
VERTEX
  8
GSLAYER
 10
206328.114552
 20
770712.5
  0
VERTEX
  8
GSLAYER
 10
206337.5
 20
770721.430357
  0
VERTEX
  8
GSLAYER
 10
206339.950997
 20
770725
  0
VERTEX
  8
GSLAYER
 10
206350
 20
770733.985398
  0
VERTEX
  8
GSLAYER
 10
206352.926287
 20
770737.5
  0
VERTEX
  8
GSLAYER
 10
206362.5
 20
770746.161055
  0
VERTEX
  8
GSLAYER
 10
206366.552778
 20
770750
  0
VERTEX
  8
GSLAYER
 10
206375
 20
770756.83686
  0
VERTEX
  8
GSLAYER
 10
206382.399473
 20
770762.5
  0
VERTEX
  8
GSLAYER
 10
206387.5
 20
770766.099788
  0
VERTEX
  8
GSLAYER
 10
206400
 20
770774.031305
  0
VERTEX
  8
GSLAYER
 10
206401.641345
 20
770775
  0
VERTEX
  8
GSLAYER
 10
206412.5
 20
770781.526405
  0
VERTEX
  8
GSLAYER
 10
206420.470034
 20
770787.5
  0
VERTEX
  8
GSLAYER
 10
206425
 20
770791.69357
  0
VERTEX
  8
GSLAYER
 10
206433.420909
 20
770800
  0
VERTEX
  8
GSLAYER
 10
206437.5
 20
770803.821101
  0
VERTEX
  8
GSLAYER
 10
206447.212375
 20
770812.5
  0
VERTEX
  8
GSLAYER
 10
206450
 20
770814.916214
  0
VERTEX
  8
GSLAYER
 10
206462.29046
 20
770825
  0
VERTEX
  8
GSLAYER
 10
206462.5
 20
770825.173342
  0
VERTEX
  8
GSLAYER
 10
206475
 20
770835.758127
  0
VERTEX
  8
GSLAYER
 10
206476.96396
 20
770837.5
  0
VERTEX
  8
GSLAYER
 10
206487.5
 20
770847.077363
  0
VERTEX
  8
GSLAYER
 10
206490.850131
 20
770850
  0
VERTEX
  8
GSLAYER
 10
206500
 20
770857.827727
  0
VERTEX
  8
GSLAYER
 10
206505.597175
 20
770862.5
  0
VERTEX
  8
GSLAYER
 10
206512.5
 20
770868.121743
  0
VERTEX
  8
GSLAYER
 10
206520.951672
 20
770875
  0
VERTEX
  8
GSLAYER
 10
206525
 20
770878.219009
  0
VERTEX
  8
GSLAYER
 10
206536.279257
 20
770887.5
  0
VERTEX
  8
GSLAYER
 10
206537.5
 20
770888.492122
  0
VERTEX
  8
GSLAYER
 10
206550
 20
770899.416171
  0
VERTEX
  8
GSLAYER
 10
206550.637595
 20
770900
  0
VERTEX
  8
GSLAYER
 10
206562.5
 20
770911.605685
  0
VERTEX
  8
GSLAYER
 10
206563.458049
 20
770912.5
  0
VERTEX
  8
GSLAYER
 10
206575
 20
770922.169148
  0
VERTEX
  8
GSLAYER
 10
206578.890358
 20
770925
  0
VERTEX
  8
GSLAYER
 10
206587.5
 20
770931.242522
  0
VERTEX
  8
GSLAYER
 10
206595.466734
 20
770937.5
  0
VERTEX
  8
GSLAYER
 10
206600
 20
770941.407062
  0
VERTEX
  8
GSLAYER
 10
206609.60678
 20
770950
  0
VERTEX
  8
GSLAYER
 10
206612.5
 20
770952.819385
  0
VERTEX
  8
GSLAYER
 10
206622.485544
 20
770962.5
  0
VERTEX
  8
GSLAYER
 10
206625
 20
770964.892291
  0
VERTEX
  8
GSLAYER
 10
206636.164852
 20
770975
  0
VERTEX
  8
GSLAYER
 10
206637.5
 20
770976.314264
  0
VERTEX
  8
GSLAYER
 10
206648.255097
 20
770987.5
  0
VERTEX
  8
GSLAYER
 10
206650
 20
770989.497858
  0
VERTEX
  8
GSLAYER
 10
206658.951764
 20
771000
  0
VERTEX
  8
GSLAYER
 10
206662.5
 20
771003.851413
  0
VERTEX
  8
GSLAYER
 10
206671.443565
 20
771012.5
  0
VERTEX
  8
GSLAYER
 10
206675
 20
771016.56425
  0
VERTEX
  8
GSLAYER
 10
206682.254962
 20
771025
  0
VERTEX
  8
GSLAYER
 10
206687.5
 20
771032.79212
  0
VERTEX
  8
GSLAYER
 10
206690.894339
 20
771037.5
  0
VERTEX
  8
GSLAYER
 10
206697.727222
 20
771050
  0
VERTEX
  8
GSLAYER
 10
206700
 20
771053.070106
  0
SEQEND
  0
POLYLINE
  8
GSLAYER
 62
7
 40
0.0
 41
0.0
 70
128
 30
60
 66
1
  0
VERTEX
  8
GSLAYER
 10
206700
 20
770234.577787
  0
VERTEX
  8
GSLAYER
 10
206687.5
 20
770225.715735
  0
VERTEX
  8
GSLAYER
 10
206686.859971
 20
770225
  0
VERTEX
  8
GSLAYER
 10
206677.557672
 20
770212.5
  0
VERTEX
  8
GSLAYER
 10
206675
 20
770206.364138
  0
VERTEX
  8
GSLAYER
 10
206672.782456
 20
770200
  0
SEQEND
  0
POLYLINE
  8
GSLAYER
 62
7
 40
0.0
 41
0.0
 70
128
 30
60
 66
1
  0
VERTEX
  8
GSLAYER
 10
206055.500613
 20
770200
  0
VERTEX
  8
GSLAYER
 10
206062.5
 20
770209.763757
  0
VERTEX
  8
GSLAYER
 10
206064.154337
 20
770212.5
  0
VERTEX
  8
GSLAYER
 10
206073.462772
 20
770225
  0
VERTEX
  8
GSLAYER
 10
206075
 20
770227.148505
  0
VERTEX
  8
GSLAYER
 10
206081.841794
 20
770237.5
  0
VERTEX
  8
GSLAYER
 10
206087.5
 20
770244.960105
  0
VERTEX
  8
GSLAYER
 10
206091.354415
 20
770250
  0
VERTEX
  8
GSLAYER
 10
206100
 20
770260.476528
  0
VERTEX
  8
GSLAYER
 10
206101.453041
 20
770262.5
  0
VERTEX
  8
GSLAYER
 10
206108.647908
 20
770275
  0
VERTEX
  8
GSLAYER
 10
206112.5
 20
770281.390854
  0
VERTEX
  8
GSLAYER
 10
206116.082623
 20
770287.5
  0
VERTEX
  8
GSLAYER
 10
206123.257106
 20
770300
  0
VERTEX
  8
GSLAYER
 10
206125
 20
770304.054107
  0
VERTEX
  8
GSLAYER
 10
206128.88585
 20
770312.5
  0
VERTEX
  8
GSLAYER
 10
206134.058741
 20
770325
  0
VERTEX
  8
GSLAYER
 10
206137.5
 20
770334.387976
  0
VERTEX
  8
GSLAYER
 10
206138.747
 20
770337.5
  0
VERTEX
  8
GSLAYER
 10
206143.671837
 20
770350
  0
VERTEX
  8
GSLAYER
 10
206150
 20
770362.070547
  0
VERTEX
  8
GSLAYER
 10
206150.235378
 20
770362.5
  0
VERTEX
  8
GSLAYER
 10
206158.720102
 20
770375
  0
VERTEX
  8
GSLAYER
 10
206162.5
 20
770379.331304
  0
VERTEX
  8
GSLAYER
 10
206168.816889
 20
770387.5
  0
VERTEX
  8
GSLAYER
 10
206175
 20
770395.275776
  0
VERTEX
  8
GSLAYER
 10
206178.102677
 20
770400
  0
VERTEX
  8
GSLAYER
 10
206183.680828
 20
770412.5
  0
VERTEX
  8
GSLAYER
 10
206187.5
 20
770421.270182
  0
VERTEX
  8
GSLAYER
 10
206189.281161
 20
770425
  0
VERTEX
  8
GSLAYER
 10
206197.19262
 20
770437.5
  0
VERTEX
  8
GSLAYER
 10
206199.873245
 20
770450
  0
VERTEX
  8
GSLAYER
 10
206200
 20
770451.552857
  0
VERTEX
  8
GSLAYER
 10
206200.673285
 20
770462.5
  0
VERTEX
  8
GSLAYER
 10
206203.659932
 20
770475
  0
VERTEX
  8
GSLAYER
 10
206212.5
 20
770484.996634
  0
VERTEX
  8
GSLAYER
 10
206215.014769
 20
770487.5
  0
VERTEX
  8
GSLAYER
 10
206222.884369
 20
770500
  0
VERTEX
  8
GSLAYER
 10
206225
 20
770503.64905
  0
VERTEX
  8
GSLAYER
 10
206230.556553
 20
770512.5
  0
VERTEX
  8
GSLAYER
 10
206237.5
 20
770521.920055
  0
VERTEX
  8
GSLAYER
 10
206239.218121
 20
770525
  0
VERTEX
  8
GSLAYER
 10
206249.178032
 20
770537.5
  0
VERTEX
  8
GSLAYER
 10
206250
 20
770538.723933
  0
VERTEX
  8
GSLAYER
 10
206255.352339
 20
770550
  0
VERTEX
  8
GSLAYER
 10
206262.5
 20
770558.23857
  0
VERTEX
  8
GSLAYER
 10
206269.582875
 20
770562.5
  0
VERTEX
  8
GSLAYER
 10
206275
 20
770566.124843
  0
VERTEX
  8
GSLAYER
 10
206284.332188
 20
770575
  0
VERTEX
  8
GSLAYER
 10
206287.5
 20
770580.556413
  0
VERTEX
  8
GSLAYER
 10
206292.189849
 20
770587.5
  0
VERTEX
  8
GSLAYER
 10
206300
 20
770597.473435
  0
VERTEX
  8
GSLAYER
 10
206301.922831
 20
770600
  0
VERTEX
  8
GSLAYER
 10
206312.5
 20
770609.376049
  0
VERTEX
  8
GSLAYER
 10
206315.294655
 20
770612.5
  0
VERTEX
  8
GSLAYER
 10
206323.748507
 20
770625
  0
VERTEX
  8
GSLAYER
 10
206325
 20
770627.295554
  0
VERTEX
  8
GSLAYER
 10
206331.420953
 20
770637.5
  0
VERTEX
  8
GSLAYER
 10
206337.5
 20
770648.448701
  0
VERTEX
  8
GSLAYER
 10
206338.497559
 20
770650
  0
VERTEX
  8
GSLAYER
 10
206345.958973
 20
770662.5
  0
VERTEX
  8
GSLAYER
 10
206350
 20
770667.91933
  0
VERTEX
  8
GSLAYER
 10
206355.205478
 20
770675
  0
VERTEX
  8
GSLAYER
 10
206362.5
 20
770686.239325
  0
VERTEX
  8
GSLAYER
 10
206363.324043
 20
770687.5
  0
VERTEX
  8
GSLAYER
 10
206368.839585
 20
770700
  0
VERTEX
  8
GSLAYER
 10
206375
 20
770712.396386
  0
VERTEX
  8
GSLAYER
 10
206375.064343
 20
770712.5
  0
VERTEX
  8
GSLAYER
 10
206383.90885
 20
770725
  0
VERTEX
  8
GSLAYER
 10
206387.5
 20
770728.976946
  0
VERTEX
  8
GSLAYER
 10
206396.19064
 20
770737.5
  0
VERTEX
  8
GSLAYER
 10
206400
 20
770740.780124
  0
VERTEX
  8
GSLAYER
 10
206411.757547
 20
770750
  0
VERTEX
  8
GSLAYER
 10
206412.5
 20
770750.536079
  0
VERTEX
  8
GSLAYER
 10
206425
 20
770759.58301
  0
VERTEX
  8
GSLAYER
 10
206428.925521
 20
770762.5
  0
VERTEX
  8
GSLAYER
 10
206437.5
 20
770769.154046
  0
VERTEX
  8
GSLAYER
 10
206444.826745
 20
770775
  0
VERTEX
  8
GSLAYER
 10
206450
 20
770779.467739
  0
VERTEX
  8
GSLAYER
 10
206459.694811
 20
770787.5
  0
VERTEX
  8
GSLAYER
 10
206462.5
 20
770789.913556
  0
VERTEX
  8
GSLAYER
 10
206474.732897
 20
770800
  0
VERTEX
  8
GSLAYER
 10
206475
 20
770800.22288
  0
VERTEX
  8
GSLAYER
 10
206487.5
 20
770810.558294
  0
VERTEX
  8
GSLAYER
 10
206489.871362
 20
770812.5
  0
VERTEX
  8
GSLAYER
 10
206500
 20
770821.046195
  0
VERTEX
  8
GSLAYER
 10
206504.782793
 20
770825
  0
VERTEX
  8
GSLAYER
 10
206512.5
 20
770831.526288
  0
VERTEX
  8
GSLAYER
 10
206519.769115
 20
770837.5
  0
VERTEX
  8
GSLAYER
 10
206525
 20
770841.849593
  0
VERTEX
  8
GSLAYER
 10
206535.015407
 20
770850
  0
VERTEX
  8
GSLAYER
 10
206537.5
 20
770852.043125
  0
VERTEX
  8
GSLAYER
 10
206550
 20
770862.22151
  0
VERTEX
  8
GSLAYER
 10
206550.348145
 20
770862.5
  0
VERTEX
  8
GSLAYER
 10
206562.5
 20
770872.525643
  0
VERTEX
  8
GSLAYER
 10
206565.57444
 20
770875
  0
VERTEX
  8
GSLAYER
 10
206575
 20
770882.909033
  0
VERTEX
  8
GSLAYER
 10
206580.788334
 20
770887.5
  0
VERTEX
  8
GSLAYER
 10
206587.5
 20
770892.954067
  0
VERTEX
  8
GSLAYER
 10
206596.871642
 20
770900
  0
VERTEX
  8
GSLAYER
 10
206600
 20
770902.335651
  0
VERTEX
  8
GSLAYER
 10
206612.5
 20
770911.4454
  0
VERTEX
  8
GSLAYER
 10
206613.980338
 20
770912.5
  0
VERTEX
  8
GSLAYER
 10
206625
 20
770920.698768
  0
VERTEX
  8
GSLAYER
 10
206630.858069
 20
770925
  0
VERTEX
  8
GSLAYER
 10
206637.5
 20
770930.197571
  0
VERTEX
  8
GSLAYER
 10
206647.117933
 20
770937.5
  0
VERTEX
  8
GSLAYER
 10
206650
 20
770939.834954
  0
VERTEX
  8
GSLAYER
 10
206662.5
 20
770949.630053
  0
VERTEX
  8
GSLAYER
 10
206662.997459
 20
770950
  0
VERTEX
  8
GSLAYER
 10
206675
 20
770959.671695
  0
VERTEX
  8
GSLAYER
 10
206678.726032
 20
770962.5
  0
VERTEX
  8
GSLAYER
 10
206687.5
 20
770969.713348
  0
VERTEX
  8
GSLAYER
 10
206694.478596
 20
770975
  0
VERTEX
  8
GSLAYER
 10
206700
 20
770979.496764
  0
SEQEND
  0
POLYLINE
  8
GSLAYER
 62
7
 40
0.0
 41
0.0
 70
128
 30
70
 66
1
  0
VERTEX
  8
GSLAYER
 10
206700
 20
770257.596146
  0
VERTEX
  8
GSLAYER
 10
206690.376946
 20
770250
  0
VERTEX
  8
GSLAYER
 10
206687.5
 20
770247.891093
  0
VERTEX
  8
GSLAYER
 10
206677.627685
 20
770237.5
  0
VERTEX
  8
GSLAYER
 10
206675
 20
770234.514176
  0
VERTEX
  8
GSLAYER
 10
206668.773724
 20
770225
  0
VERTEX
  8
GSLAYER
 10
206662.502918
 20
770212.5
  0
VERTEX
  8
GSLAYER
 10
206662.5
 20
770212.491229
  0
VERTEX
  8
GSLAYER
 10
206658.306852
 20
770200
  0
SEQEND
  0
POLYLINE
  8
GSLAYER
 62
7
 40
0.0
 41
0.0
 70
128
 30
70
 66
1
  0
VERTEX
  8
GSLAYER
 10
206071.670615
 20
770200
  0
VERTEX
  8
GSLAYER
 10
206075
 20
770205.471603
  0
VERTEX
  8
GSLAYER
 10
206078.645417
 20
770212.5
  0
VERTEX
  8
GSLAYER
 10
206086.776975
 20
770225
  0
VERTEX
  8
GSLAYER
 10
206087.5
 20
770226.041819
  0
VERTEX
  8
GSLAYER
 10
206095.665537
 20
770237.5
  0
VERTEX
  8
GSLAYER
 10
206100
 20
770243.029966
  0
VERTEX
  8
GSLAYER
 10
206105.322234
 20
770250
  0
VERTEX
  8
GSLAYER
 10
206112.5
 20
770260.11054
  0
VERTEX
  8
GSLAYER
 10
206114.164406
 20
770262.5
  0
VERTEX
  8
GSLAYER
 10
206121.883095
 20
770275
  0
VERTEX
  8
GSLAYER
 10
206125
 20
770280.142904
  0
VERTEX
  8
GSLAYER
 10
206129.464638
 20
770287.5
  0
VERTEX
  8
GSLAYER
 10
206136.669241
 20
770300
  0
VERTEX
  8
GSLAYER
 10
206137.5
 20
770301.662407
  0
VERTEX
  8
GSLAYER
 10
206143.485315
 20
770312.5
  0
VERTEX
  8
GSLAYER
 10
206149.666723
 20
770325
  0
VERTEX
  8
GSLAYER
 10
206150
 20
770325.739755
  0
VERTEX
  8
GSLAYER
 10
206155.762228
 20
770337.5
  0
VERTEX
  8
GSLAYER
 10
206162.289226
 20
770350
  0
VERTEX
  8
GSLAYER
 10
206162.5
 20
770350.356704
  0
VERTEX
  8
GSLAYER
 10
206169.72096
 20
770362.5
  0
VERTEX
  8
GSLAYER
 10
206175
 20
770370.052147
  0
VERTEX
  8
GSLAYER
 10
206178.307174
 20
770375
  0
VERTEX
  8
GSLAYER
 10
206187.024292
 20
770387.5
  0
VERTEX
  8
GSLAYER
 10
206187.5
 20
770388.242743
  0
VERTEX
  8
GSLAYER
 10
206194.757449
 20
770400
  0
VERTEX
  8
GSLAYER
 10
206200
 20
770409.657033
  0
VERTEX
  8
GSLAYER
 10
206201.571311
 20
770412.5
  0
VERTEX
  8
GSLAYER
 10
206207.61304
 20
770425
  0
VERTEX
  8
GSLAYER
 10
206211.780144
 20
770437.5
  0
VERTEX
  8
GSLAYER
 10
206212.5
 20
770443.441597
  0
VERTEX
  8
GSLAYER
 10
206213.363536
 20
770450
  0
VERTEX
  8
GSLAYER
 10
206213.138052
 20
770462.5
  0
VERTEX
  8
GSLAYER
 10
206212.542448
 20
770475
  0
VERTEX
  8
GSLAYER
 10
206225
 20
770487.354361
  0
VERTEX
  8
GSLAYER
 10
206225.139016
 20
770487.5
  0
VERTEX
  8
GSLAYER
 10
206235.540283
 20
770500
  0
VERTEX
  8
GSLAYER
 10
206237.5
 20
770503.181954
  0
VERTEX
  8
GSLAYER
 10
206242.347449
 20
770512.5
  0
VERTEX
  8
GSLAYER
 10
206248.681618
 20
770525
  0
VERTEX
  8
GSLAYER
 10
206250
 20
770526.641188
  0
VERTEX
  8
GSLAYER
 10
206254.85444
 20
770537.5
  0
VERTEX
  8
GSLAYER
 10
206262.5
 20
770549.686965
  0
VERTEX
  8
GSLAYER
 10
206262.858398
 20
770550
  0
VERTEX
  8
GSLAYER
 10
206275
 20
770558.388593
  0
VERTEX
  8
GSLAYER
 10
206282.311582
 20
770562.5
  0
VERTEX
  8
GSLAYER
 10
206287.5
 20
770567.391207
  0
VERTEX
  8
GSLAYER
 10
206295.025751
 20
770575
  0
VERTEX
  8
GSLAYER
 10
206300
 20
770582.12075
  0
VERTEX
  8
GSLAYER
 10
206303.630289
 20
770587.5
  0
VERTEX
  8
GSLAYER
 10
206312.5
 20
770598.880303
  0
VERTEX
  8
GSLAYER
 10
206313.225111
 20
770600
  0
VERTEX
  8
GSLAYER
 10
206324.431964
 20
770612.5
  0
VERTEX
  8
GSLAYER
 10
206325
 20
770613.317412
  0
VERTEX
  8
GSLAYER
 10
206335.184936
 20
770625
  0
VERTEX
  8
GSLAYER
 10
206337.5
 20
770628.445512
  0
VERTEX
  8
GSLAYER
 10
206344.72705
 20
770637.5
  0
VERTEX
  8
GSLAYER
 10
206350
 20
770645.300026
  0
VERTEX
  8
GSLAYER
 10
206353.582256
 20
770650
  0
VERTEX
  8
GSLAYER
 10
206362.5
 20
770661.789308
  0
VERTEX
  8
GSLAYER
 10
206363.092961
 20
770662.5
  0
VERTEX
  8
GSLAYER
 10
206372.855039
 20
770675
  0
VERTEX
  8
GSLAYER
 10
206375
 20
770678.206766
  0
VERTEX
  8
GSLAYER
 10
206382.169002
 20
770687.5
  0
VERTEX
  8
GSLAYER
 10
206387.5
 20
770695.102999
  0
VERTEX
  8
GSLAYER
 10
206391.731607
 20
770700
  0
VERTEX
  8
GSLAYER
 10
206400
 20
770709.578902
  0
VERTEX
  8
GSLAYER
 10
206403.042973
 20
770712.5
  0
VERTEX
  8
GSLAYER
 10
206412.5
 20
770721.368528
  0
VERTEX
  8
GSLAYER
 10
206416.964744
 20
770725
  0
VERTEX
  8
GSLAYER
 10
206425
 20
770731.429577
  0
VERTEX
  8
GSLAYER
 10
206433.246152
 20
770737.5
  0
VERTEX
  8
GSLAYER
 10
206437.5
 20
770740.650569
  0
VERTEX
  8
GSLAYER
 10
206450
 20
770749.668913
  0
VERTEX
  8
GSLAYER
 10
206450.469211
 20
770750
  0
VERTEX
  8
GSLAYER
 10
206462.5
 20
770758.904286
  0
VERTEX
  8
GSLAYER
 10
206467.4125
 20
770762.5
  0
VERTEX
  8
GSLAYER
 10
206475
 20
770768.326536
  0
VERTEX
  8
GSLAYER
 10
206483.822335
 20
770775
  0
VERTEX
  8
GSLAYER
 10
206487.5
 20
770777.887475
  0
VERTEX
  8
GSLAYER
 10
206499.929195
 20
770787.5
  0
VERTEX
  8
GSLAYER
 10
206500
 20
770787.556381
  0
VERTEX
  8
GSLAYER
 10
206512.5
 20
770797.340665
  0
VERTEX
  8
GSLAYER
 10
206515.955564
 20
770800
  0
VERTEX
  8
GSLAYER
 10
206525
 20
770807.126421
  0
VERTEX
  8
GSLAYER
 10
206531.985019
 20
770812.5
  0
VERTEX
  8
GSLAYER
 10
206537.5
 20
770816.833726
  0
VERTEX
  8
GSLAYER
 10
206548.190916
 20
770825
  0
VERTEX
  8
GSLAYER
 10
206550
 20
770826.410971
  0
VERTEX
  8
GSLAYER
 10
206562.5
 20
770835.856208
  0
VERTEX
  8
GSLAYER
 10
206564.758765
 20
770837.5
  0
VERTEX
  8
GSLAYER
 10
206575
 20
770845.147501
  0
VERTEX
  8
GSLAYER
 10
206581.790761
 20
770850
  0
VERTEX
  8
GSLAYER
 10
206587.5
 20
770854.202647
  0
VERTEX
  8
GSLAYER
 10
206599.416958
 20
770862.5
  0
VERTEX
  8
GSLAYER
 10
206600
 20
770862.918416
  0
VERTEX
  8
GSLAYER
 10
206612.5
 20
770871.295985
  0
VERTEX
  8
GSLAYER
 10
206618.407558
 20
770875
  0
VERTEX
  8
GSLAYER
 10
206625
 20
770879.272654
  0
VERTEX
  8
GSLAYER
 10
206637.5
 20
770886.9087
  0
VERTEX
  8
GSLAYER
 10
206638.540768
 20
770887.5
  0
VERTEX
  8
GSLAYER
 10
206650
 20
770894.338647
  0
VERTEX
  8
GSLAYER
 10
206660.01477
 20
770900
  0
VERTEX
  8
GSLAYER
 10
206662.5
 20
770901.490061
  0
VERTEX
  8
GSLAYER
 10
206675
 20
770908.452369
  0
VERTEX
  8
GSLAYER
 10
206682.783481
 20
770912.5
  0
VERTEX
  8
GSLAYER
 10
206687.5
 20
770915.126695
  0
VERTEX
  8
GSLAYER
 10
206700
 20
770921.50762
  0
SEQEND
  0
POLYLINE
  8
GSLAYER
 62
7
 40
0.0
 41
0.0
 70
128
 30
80
 66
1
  0
VERTEX
  8
GSLAYER
 10
206700
 20
770285.462508
  0
VERTEX
  8
GSLAYER
 10
206688.720451
 20
770275
  0
VERTEX
  8
GSLAYER
 10
206687.5
 20
770273.965241
  0
VERTEX
  8
GSLAYER
 10
206676.544796
 20
770262.5
  0
VERTEX
  8
GSLAYER
 10
206675
 20
770260.891055
  0
VERTEX
  8
GSLAYER
 10
206666.742161
 20
770250
  0
VERTEX
  8
GSLAYER
 10
206662.5
 20
770243.705296
  0
VERTEX
  8
GSLAYER
 10
206659.100069
 20
770237.5
  0
VERTEX
  8
GSLAYER
 10
206653.125988
 20
770225
  0
VERTEX
  8
GSLAYER
 10
206650
 20
770217.562369
  0
VERTEX
  8
GSLAYER
 10
206647.89833
 20
770212.5
  0
VERTEX
  8
GSLAYER
 10
206643.050051
 20
770200
  0
SEQEND
  0
POLYLINE
  8
GSLAYER
 62
7
 40
0.0
 41
0.0
 70
128
 30
80
 66
1
  0
VERTEX
  8
GSLAYER
 10
206085.116701
 20
770200
  0
VERTEX
  8
GSLAYER
 10
206087.5
 20
770204.662446
  0
VERTEX
  8
GSLAYER
 10
206091.24229
 20
770212.5
  0
VERTEX
  8
GSLAYER
 10
206099.492952
 20
770225
  0
VERTEX
  8
GSLAYER
 10
206100
 20
770225.696566
  0
VERTEX
  8
GSLAYER
 10
206108.955245
 20
770237.5
  0
VERTEX
  8
GSLAYER
 10
206112.5
 20
770242.160949
  0
VERTEX
  8
GSLAYER
 10
206118.570129
 20
770250
  0
VERTEX
  8
GSLAYER
 10
206125
 20
770259.441336
  0
VERTEX
  8
GSLAYER
 10
206127.076401
 20
770262.5
  0
VERTEX
  8
GSLAYER
 10
206134.709989
 20
770275
  0
VERTEX
  8
GSLAYER
 10
206137.5
 20
770279.555893
  0
VERTEX
  8
GSLAYER
 10
206142.776365
 20
770287.5
  0
VERTEX
  8
GSLAYER
 10
206150
 20
770298.655791
  0
VERTEX
  8
GSLAYER
 10
206151.025617
 20
770300
  0
VERTEX
  8
GSLAYER
 10
206159.01044
 20
770312.5
  0
VERTEX
  8
GSLAYER
 10
206162.5
 20
770318.838151
  0
VERTEX
  8
GSLAYER
 10
206166.13926
 20
770325
  0
VERTEX
  8
GSLAYER
 10
206172.834757
 20
770337.5
  0
VERTEX
  8
GSLAYER
 10
206175
 20
770341.425055
  0
VERTEX
  8
GSLAYER
 10
206179.723087
 20
770350
  0
VERTEX
  8
GSLAYER
 10
206187.372131
 20
770362.5
  0
VERTEX
  8
GSLAYER
 10
206187.5
 20
770362.690034
  0
VERTEX
  8
GSLAYER
 10
206195.698999
 20
770375
  0
VERTEX
  8
GSLAYER
 10
206200
 20
770381.487685
  0
VERTEX
  8
GSLAYER
 10
206204.047256
 20
770387.5
  0
VERTEX
  8
GSLAYER
 10
206211.816742
 20
770400
  0
VERTEX
  8
GSLAYER
 10
206212.5
 20
770401.245429
  0
VERTEX
  8
GSLAYER
 10
206218.891529
 20
770412.5
  0
VERTEX
  8
GSLAYER
 10
206224.220338
 20
770425
  0
VERTEX
  8
GSLAYER
 10
206225
 20
770427.885211
  0
VERTEX
  8
GSLAYER
 10
206227.901584
 20
770437.5
  0
VERTEX
  8
GSLAYER
 10
206229.759031
 20
770450
  0
VERTEX
  8
GSLAYER
 10
206230.545908
 20
770462.5
  0
VERTEX
  8
GSLAYER
 10
206234.0183
 20
770475
  0
VERTEX
  8
GSLAYER
 10
206237.5
 20
770478.752688
  0
VERTEX
  8
GSLAYER
 10
206242.923622
 20
770487.5
  0
VERTEX
  8
GSLAYER
 10
206249.048128
 20
770500
  0
VERTEX
  8
GSLAYER
 10
206250
 20
770502.375651
  0
VERTEX
  8
GSLAYER
 10
206253.141789
 20
770512.5
  0
VERTEX
  8
GSLAYER
 10
206256.157349
 20
770525
  0
VERTEX
  8
GSLAYER
 10
206260.120978
 20
770537.5
  0
VERTEX
  8
GSLAYER
 10
206262.5
 20
770541.292142
  0
VERTEX
  8
GSLAYER
 10
206272.469747
 20
770550
  0
VERTEX
  8
GSLAYER
 10
206275
 20
770551.748143
  0
VERTEX
  8
GSLAYER
 10
206287.5
 20
770557.517653
  0
VERTEX
  8
GSLAYER
 10
206295.301489
 20
770562.5
  0
VERTEX
  8
GSLAYER
 10
206300
 20
770567.264221
  0
VERTEX
  8
GSLAYER
 10
206306.537524
 20
770575
  0
VERTEX
  8
GSLAYER
 10
206312.5
 20
770584.381605
  0
VERTEX
  8
GSLAYER
 10
206314.11545
 20
770587.5
  0
VERTEX
  8
GSLAYER
 10
206322.064031
 20
770600
  0
VERTEX
  8
GSLAYER
 10
206325
 20
770603.269336
  0
VERTEX
  8
GSLAYER
 10
206335.484908
 20
770612.5
  0
VERTEX
  8
GSLAYER
 10
206337.5
 20
770614.803037
  0
VERTEX
  8
GSLAYER
 10
206348.617502
 20
770625
  0
VERTEX
  8
GSLAYER
 10
206350
 20
770626.742225
  0
VERTEX
  8
GSLAYER
 10
206359.084907
 20
770637.5
  0
VERTEX
  8
GSLAYER
 10
206362.5
 20
770641.933157
  0
VERTEX
  8
GSLAYER
 10
206369.342594
 20
770650
  0
VERTEX
  8
GSLAYER
 10
206375
 20
770656.732544
  0
VERTEX
  8
GSLAYER
 10
206380.551855
 20
770662.5
  0
VERTEX
  8
GSLAYER
 10
206387.5
 20
770670.390251
  0
VERTEX
  8
GSLAYER
 10
206392.223252
 20
770675
  0
VERTEX
  8
GSLAYER
 10
206400
 20
770683.289137
  0
VERTEX
  8
GSLAYER
 10
206404.740491
 20
770687.5
  0
VERTEX
  8
GSLAYER
 10
206412.5
 20
770694.830949
  0
VERTEX
  8
GSLAYER
 10
206418.981515
 20
770700
  0
VERTEX
  8
GSLAYER
 10
206425
 20
770704.95764
  0
VERTEX
  8
GSLAYER
 10
206435.527636
 20
770712.5
  0
VERTEX
  8
GSLAYER
 10
206437.5
 20
770713.950785
  0
VERTEX
  8
GSLAYER
 10
206450
 20
770722.306451
  0
VERTEX
  8
GSLAYER
 10
206454.296223
 20
770725
  0
VERTEX
  8
GSLAYER
 10
206462.5
 20
770730.409358
  0
VERTEX
  8
GSLAYER
 10
206473.439304
 20
770737.5
  0
VERTEX
  8
GSLAYER
 10
206475
 20
770738.564324
  0
VERTEX
  8
GSLAYER
 10
206487.5
 20
770746.984087
  0
VERTEX
  8
GSLAYER
 10
206491.936102
 20
770750
  0
VERTEX
  8
GSLAYER
 10
206500
 20
770755.695489
  0
VERTEX
  8
GSLAYER
 10
206509.556352
 20
770762.5
  0
VERTEX
  8
GSLAYER
 10
206512.5
 20
770764.655058
  0
VERTEX
  8
GSLAYER
 10
206525
 20
770773.749558
  0
VERTEX
  8
GSLAYER
 10
206526.739713
 20
770775
  0
VERTEX
  8
GSLAYER
 10
206537.5
 20
770782.851063
  0
VERTEX
  8
GSLAYER
 10
206544.00573
 20
770787.5
  0
VERTEX
  8
GSLAYER
 10
206550
 20
770791.850374
  0
VERTEX
  8
GSLAYER
 10
206561.578055
 20
770800
  0
VERTEX
  8
GSLAYER
 10
206562.5
 20
770800.660607
  0
VERTEX
  8
GSLAYER
 10
206575
 20
770809.241153
  0
VERTEX
  8
GSLAYER
 10
206579.952708
 20
770812.5
  0
VERTEX
  8
GSLAYER
 10
206587.5
 20
770817.554696
  0
VERTEX
  8
GSLAYER
 10
206599.199925
 20
770825
  0
VERTEX
  8
GSLAYER
 10
206600
 20
770825.519156
  0
VERTEX
  8
GSLAYER
 10
206612.5
 20
770833.06324
  0
VERTEX
  8
GSLAYER
 10
206620.458043
 20
770837.5
  0
VERTEX
  8
GSLAYER
 10
206625
 20
770840.096755
  0
VERTEX
  8
GSLAYER
 10
206637.5
 20
770846.588713
  0
VERTEX
  8
GSLAYER
 10
206644.803319
 20
770850
  0
VERTEX
  8
GSLAYER
 10
206650
 20
770852.526132
  0
VERTEX
  8
GSLAYER
 10
206662.5
 20
770857.93289
  0
VERTEX
  8
GSLAYER
 10
206674.313314
 20
770862.5
  0
VERTEX
  8
GSLAYER
 10
206675
 20
770862.780503
  0
VERTEX
  8
GSLAYER
 10
206687.5
 20
770867.162702
  0
VERTEX
  8
GSLAYER
 10
206700
 20
770871.000762
  0
SEQEND
  0
POLYLINE
  8
GSLAYER
 62
7
 40
0.0
 41
0.0
 70
128
 30
90
 66
1
  0
VERTEX
  8
GSLAYER
 10
206700
 20
770325.018078
  0
VERTEX
  8
GSLAYER
 10
206699.988301
 20
770325
  0
VERTEX
  8
GSLAYER
 10
206690.807162
 20
770312.5
  0
VERTEX
  8
GSLAYER
 10
206687.5
 20
770308.561434
  0
VERTEX
  8
GSLAYER
 10
206681.220822
 20
770300
  0
VERTEX
  8
GSLAYER
 10
206675
 20
770292.656792
  0
VERTEX
  8
GSLAYER
 10
206670.888729
 20
770287.5
  0
VERTEX
  8
GSLAYER
 10
206662.5
 20
770277.059307
  0
VERTEX
  8
GSLAYER
 10
206660.970161
 20
770275
  0
VERTEX
  8
GSLAYER
 10
206652.831806
 20
770262.5
  0
VERTEX
  8
GSLAYER
 10
206650
 20
770257.195854
  0
VERTEX
  8
GSLAYER
 10
206646.638982
 20
770250
  0
VERTEX
  8
GSLAYER
 10
206642.086809
 20
770237.5
  0
VERTEX
  8
GSLAYER
 10
206637.968182
 20
770225
  0
VERTEX
  8
GSLAYER
 10
206637.5
 20
770223.869092
  0
VERTEX
  8
GSLAYER
 10
206632.155152
 20
770212.5
  0
VERTEX
  8
GSLAYER
 10
206625.906454
 20
770200
  0
SEQEND
  0
POLYLINE
  8
GSLAYER
 62
7
 40
0.0
 41
0.0
 70
128
 30
90
 66
1
  0
VERTEX
  8
GSLAYER
 10
206097.123866
 20
770200
  0
VERTEX
  8
GSLAYER
 10
206100
 20
770205.835424
  0
VERTEX
  8
GSLAYER
 10
206104.013357
 20
770212.5
  0
VERTEX
  8
GSLAYER
 10
206112.5
 20
770224.223787
  0
VERTEX
  8
GSLAYER
 10
206113.103232
 20
770225
  0
VERTEX
  8
GSLAYER
 10
206122.95262
 20
770237.5
  0
VERTEX
  8
GSLAYER
 10
206125
 20
770240.190812
  0
VERTEX
  8
GSLAYER
 10
206132.972629
 20
770250
  0
VERTEX
  8
GSLAYER
 10
206137.5
 20
770257.126138
  0
VERTEX
  8
GSLAYER
 10
206140.777902
 20
770262.5
  0
VERTEX
  8
GSLAYER
 10
206147.8566
 20
770275
  0
VERTEX
  8
GSLAYER
 10
206150
 20
770278.155631
  0
VERTEX
  8
GSLAYER
 10
206158.149294
 20
770287.5
  0
VERTEX
  8
GSLAYER
 10
206162.5
 20
770293.275455
  0
VERTEX
  8
GSLAYER
 10
206168.310256
 20
770300
  0
VERTEX
  8
GSLAYER
 10
206175
 20
770309.952742
  0
VERTEX
  8
GSLAYER
 10
206176.779891
 20
770312.5
  0
VERTEX
  8
GSLAYER
 10
206183.993881
 20
770325
  0
VERTEX
  8
GSLAYER
 10
206187.5
 20
770331.868101
  0
VERTEX
  8
GSLAYER
 10
206190.291406
 20
770337.5
  0
VERTEX
  8
GSLAYER
 10
206196.80365
 20
770350
  0
VERTEX
  8
GSLAYER
 10
206200
 20
770355.150582
  0
VERTEX
  8
GSLAYER
 10
206205.001025
 20
770362.5
  0
VERTEX
  8
GSLAYER
 10
206212.5
 20
770373.557746
  0
VERTEX
  8
GSLAYER
 10
206213.523092
 20
770375
  0
VERTEX
  8
GSLAYER
 10
206222.28456
 20
770387.5
  0
VERTEX
  8
GSLAYER
 10
206225
 20
770391.668516
  0
VERTEX
  8
GSLAYER
 10
206231.119637
 20
770400
  0
VERTEX
  8
GSLAYER
 10
206237.5
 20
770411.148713
  0
VERTEX
  8
GSLAYER
 10
206238.361782
 20
770412.5
  0
VERTEX
  8
GSLAYER
 10
206244.355339
 20
770425
  0
VERTEX
  8
GSLAYER
 10
206248.55321
 20
770437.5
  0
VERTEX
  8
GSLAYER
 10
206250
 20
770443.29305
  0
VERTEX
  8
GSLAYER
 10
206252.063452
 20
770450
  0
VERTEX
  8
GSLAYER
 10
206255.610022
 20
770462.5
  0
VERTEX
  8
GSLAYER
 10
206259.410201
 20
770475
  0
VERTEX
  8
GSLAYER
 10
206262.446667
 20
770487.5
  0
VERTEX
  8
GSLAYER
 10
206262.5
 20
770487.880877
  0
VERTEX
  8
GSLAYER
 10
206264.159234
 20
770500
  0
VERTEX
  8
GSLAYER
 10
206264.138096
 20
770512.5
  0
VERTEX
  8
GSLAYER
 10
206263.656963
 20
770525
  0
VERTEX
  8
GSLAYER
 10
206266.411625
 20
770537.5
  0
VERTEX
  8
GSLAYER
 10
206275
 20
770545.254263
  0
VERTEX
  8
GSLAYER
 10
206287.5
 20
770548.298467
  0
VERTEX
  8
GSLAYER
 10
206292.09659
 20
770550
  0
VERTEX
  8
GSLAYER
 10
206300
 20
770553.571106
  0
VERTEX
  8
GSLAYER
 10
206310.672346
 20
770562.5
  0
VERTEX
  8
GSLAYER
 10
206312.5
 20
770564.811464
  0
VERTEX
  8
GSLAYER
 10
206319.07654
 20
770575
  0
VERTEX
  8
GSLAYER
 10
206323.834958
 20
770587.5
  0
VERTEX
  8
GSLAYER
 10
206325
 20
770589.402152
  0
VERTEX
  8
GSLAYER
 10
206332.852211
 20
770600
  0
VERTEX
  8
GSLAYER
 10
206337.5
 20
770604.066663
  0
VERTEX
  8
GSLAYER
 10
206350
 20
770610.607683
  0
VERTEX
  8
GSLAYER
 10
206352.531883
 20
770612.5
  0
VERTEX
  8
GSLAYER
 10
206362.5
 20
770622.143614
  0
VERTEX
  8
GSLAYER
 10
206364.797042
 20
770625
  0
VERTEX
  8
GSLAYER
 10
206374.721387
 20
770637.5
  0
VERTEX
  8
GSLAYER
 10
206375
 20
770637.826865
  0
VERTEX
  8
GSLAYER
 10
206387.379924
 20
770650
  0
VERTEX
  8
GSLAYER
 10
206387.5
 20
770650.124803
  0
VERTEX
  8
GSLAYER
 10
206400
 20
770661.292081
  0
VERTEX
  8
GSLAYER
 10
206401.528213
 20
770662.5
  0
VERTEX
  8
GSLAYER
 10
206412.5
 20
770671.47053
  0
VERTEX
  8
GSLAYER
 10
206417.650083
 20
770675
  0
VERTEX
  8
GSLAYER
 10
206425
 20
770680.485452
  0
VERTEX
  8
GSLAYER
 10
206435.533063
 20
770687.5
  0
VERTEX
  8
GSLAYER
 10
206437.5
 20
770688.856378
  0
VERTEX
  8
GSLAYER
 10
206450
 20
770696.302177
  0
VERTEX
  8
GSLAYER
 10
206457.091101
 20
770700
  0
VERTEX
  8
GSLAYER
 10
206462.5
 20
770703.016474
  0
VERTEX
  8
GSLAYER
 10
206475
 20
770709.599029
  0
VERTEX
  8
GSLAYER
 10
206480.470884
 20
770712.5
  0
VERTEX
  8
GSLAYER
 10
206487.5
 20
770716.442842
  0
VERTEX
  8
GSLAYER
 10
206500
 20
770723.74878
  0
VERTEX
  8
GSLAYER
 10
206502.064914
 20
770725
  0
VERTEX
  8
GSLAYER
 10
206512.5
 20
770731.537264
  0
VERTEX
  8
GSLAYER
 10
206521.489469
 20
770737.5
  0
VERTEX
  8
GSLAYER
 10
206525
 20
770739.865421
  0
VERTEX
  8
GSLAYER
 10
206537.5
 20
770748.451722
  0
VERTEX
  8
GSLAYER
 10
206539.751442
 20
770750
  0
VERTEX
  8
GSLAYER
 10
206550
 20
770757.001506
  0
VERTEX
  8
GSLAYER
 10
206558.180184
 20
770762.5
  0
VERTEX
  8
GSLAYER
 10
206562.5
 20
770765.39007
  0
VERTEX
  8
GSLAYER
 10
206575
 20
770773.372736
  0
VERTEX
  8
GSLAYER
 10
206577.710912
 20
770775
  0
VERTEX
  8
GSLAYER
 10
206587.5
 20
770780.966295
  0
VERTEX
  8
GSLAYER
 10
206598.52364
 20
770787.5
  0
VERTEX
  8
GSLAYER
 10
206600
 20
770788.381556
  0
VERTEX
  8
GSLAYER
 10
206612.5
 20
770795.44355
  0
VERTEX
  8
GSLAYER
 10
206621.038125
 20
770800
  0
VERTEX
  8
GSLAYER
 10
206625
 20
770802.08424
  0
VERTEX
  8
GSLAYER
 10
206637.5
 20
770807.926889
  0
VERTEX
  8
GSLAYER
 10
206648.971894
 20
770812.5
  0
VERTEX
  8
GSLAYER
 10
206650
 20
770812.914929
  0
VERTEX
  8
GSLAYER
 10
206662.5
 20
770816.97299
  0
VERTEX
  8
GSLAYER
 10
206675
 20
770820.123151
  0
VERTEX
  8
GSLAYER
 10
206687.5
 20
770822.376297
  0
VERTEX
  8
GSLAYER
 10
206700
 20
770823.757409
  0
SEQEND
  0
POLYLINE
  8
GSLAYER
 62
7
 40
0.0
 41
0.0
 70
128
 30
100
 66
1
  0
VERTEX
  8
GSLAYER
 10
206700
 20
770411.242707
  0
VERTEX
  8
GSLAYER
 10
206693.693634
 20
770400
  0
VERTEX
  8
GSLAYER
 10
206687.5
 20
770388.866036
  0
VERTEX
  8
GSLAYER
 10
206686.797259
 20
770387.5
  0
VERTEX
  8
GSLAYER
 10
206681.265366
 20
770375
  0
VERTEX
  8
GSLAYER
 10
206675.867962
 20
770362.5
  0
VERTEX
  8
GSLAYER
 10
206675
 20
770359.757024
  0
VERTEX
  8
GSLAYER
 10
206672.219896
 20
770350
  0
VERTEX
  8
GSLAYER
 10
206667.867004
 20
770337.5
  0
VERTEX
  8
GSLAYER
 10
206663.206613
 20
770325
  0
VERTEX
  8
GSLAYER
 10
206662.5
 20
770323.238376
  0
VERTEX
  8
GSLAYER
 10
206657.771948
 20
770312.5
  0
VERTEX
  8
GSLAYER
 10
206650
 20
770301.551603
  0
VERTEX
  8
GSLAYER
 10
206648.83568
 20
770300
  0
VERTEX
  8
GSLAYER
 10
206639.524859
 20
770287.5
  0
VERTEX
  8
GSLAYER
 10
206637.5
 20
770284.041371
  0
VERTEX
  8
GSLAYER
 10
206632.544523
 20
770275
  0
VERTEX
  8
GSLAYER
 10
206627.685096
 20
770262.5
  0
VERTEX
  8
GSLAYER
 10
206625
 20
770250.984838
  0
VERTEX
  8
GSLAYER
 10
206624.741648
 20
770250
  0
VERTEX
  8
GSLAYER
 10
206622.84612
 20
770237.5
  0
VERTEX
  8
GSLAYER
 10
206619.550398
 20
770225
  0
VERTEX
  8
GSLAYER
 10
206612.5
 20
770215.107211
  0
VERTEX
  8
GSLAYER
 10
206610.425736
 20
770212.5
  0
VERTEX
  8
GSLAYER
 10
206601.903721
 20
770200
  0
SEQEND
  0
POLYLINE
  8
GSLAYER
 62
7
 40
0.0
 41
0.0
 70
128
 30
100
 66
1
  0
VERTEX
  8
GSLAYER
 10
206111.018569
 20
770200
  0
VERTEX
  8
GSLAYER
 10
206112.5
 20
770202.480287
  0
VERTEX
  8
GSLAYER
 10
206121.38326
 20
770212.5
  0
VERTEX
  8
GSLAYER
 10
206125
 20
770217.756312
  0
VERTEX
  8
GSLAYER
 10
206130.472133
 20
770225
  0
VERTEX
  8
GSLAYER
 10
206137.5
 20
770232.876087
  0
VERTEX
  8
GSLAYER
 10
206141.841465
 20
770237.5
  0
VERTEX
  8
GSLAYER
 10
206150
 20
770249.000309
  0
VERTEX
  8
GSLAYER
 10
206150.703677
 20
770250
  0
VERTEX
  8
GSLAYER
 10
206157.493182
 20
770262.5
  0
VERTEX
  8
GSLAYER
 10
206162.5
 20
770270.51701
  0
VERTEX
  8
GSLAYER
 10
206166.93803
 20
770275
  0
VERTEX
  8
GSLAYER
 10
206175
 20
770282.021193
  0
VERTEX
  8
GSLAYER
 10
206180.560612
 20
770287.5
  0
VERTEX
  8
GSLAYER
 10
206187.5
 20
770295.937816
  0
VERTEX
  8
GSLAYER
 10
206190.706734
 20
770300
  0
VERTEX
  8
GSLAYER
 10
206198.449479
 20
770312.5
  0
VERTEX
  8
GSLAYER
 10
206200
 20
770315.70175
  0
VERTEX
  8
GSLAYER
 10
206204.684811
 20
770325
  0
VERTEX
  8
GSLAYER
 10
206209.463798
 20
770337.5
  0
VERTEX
  8
GSLAYER
 10
206212.5
 20
770343.75999
  0
VERTEX
  8
GSLAYER
 10
206216.749883
 20
770350
  0
VERTEX
  8
GSLAYER
 10
206225
 20
770360.789546
  0
VERTEX
  8
GSLAYER
 10
206226.330605
 20
770362.5
  0
VERTEX
  8
GSLAYER
 10
206235.063607
 20
770375
  0
VERTEX
  8
GSLAYER
 10
206237.5
 20
770378.040965
  0
VERTEX
  8
GSLAYER
 10
206246.903256
 20
770387.5
  0
VERTEX
  8
GSLAYER
 10
206250
 20
770391.456092
  0
VERTEX
  8
GSLAYER
 10
206256.991253
 20
770400
  0
VERTEX
  8
GSLAYER
 10
206262.5
 20
770408.706279
  0
VERTEX
  8
GSLAYER
 10
206265.093567
 20
770412.5
  0
VERTEX
  8
GSLAYER
 10
206272.071328
 20
770425
  0
VERTEX
  8
GSLAYER
 10
206275
 20
770431.314067
  0
VERTEX
  8
GSLAYER
 10
206278.283015
 20
770437.5
  0
VERTEX
  8
GSLAYER
 10
206284.293676
 20
770450
  0
VERTEX
  8
GSLAYER
 10
206287.5
 20
770457.052536
  0
VERTEX
  8
GSLAYER
 10
206290.111206
 20
770462.5
  0
VERTEX
  8
GSLAYER
 10
206293.916273
 20
770475
  0
VERTEX
  8
GSLAYER
 10
206297.752412
 20
770487.5
  0
VERTEX
  8
GSLAYER
 10
206299.077789
 20
770500
  0
VERTEX
  8
GSLAYER
 10
206287.5
 20
770506.311229
  0
VERTEX
  8
GSLAYER
 10
206283.906674
 20
770512.5
  0
VERTEX
  8
GSLAYER
 10
206275
 20
770521.172671
  0
VERTEX
  8
GSLAYER
 10
206273.858502
 20
770525
  0
VERTEX
  8
GSLAYER
 10
206273.546033
 20
770537.5
  0
VERTEX
  8
GSLAYER
 10
206275
 20
770538.812756
  0
VERTEX
  8
GSLAYER
 10
206286.270313
 20
770537.5
  0
VERTEX
  8
GSLAYER
 10
206287.5
 20
770536.585866
  0
VERTEX
  8
GSLAYER
 10
206300
 20
770536.570835
  0
VERTEX
  8
GSLAYER
 10
206301.596552
 20
770537.5
  0
VERTEX
  8
GSLAYER
 10
206312.5
 20
770541.618
  0
VERTEX
  8
GSLAYER
 10
206321.191123
 20
770550
  0
VERTEX
  8
GSLAYER
 10
206325
 20
770554.789486
  0
VERTEX
  8
GSLAYER
 10
206330.127
 20
770562.5
  0
VERTEX
  8
GSLAYER
 10
206335.277735
 20
770575
  0
VERTEX
  8
GSLAYER
 10
206337.480894
 20
770587.5
  0
VERTEX
  8
GSLAYER
 10
206337.5
 20
770587.527789
  0
VERTEX
  8
GSLAYER
 10
206350
 20
770591.116319
  0
VERTEX
  8
GSLAYER
 10
206362.5
 20
770597.415102
  0
VERTEX
  8
GSLAYER
 10
206365.034767
 20
770600
  0
VERTEX
  8
GSLAYER
 10
206375
 20
770611.959276
  0
VERTEX
  8
GSLAYER
 10
206375.404927
 20
770612.5
  0
VERTEX
  8
GSLAYER
 10
206383.688437
 20
770625
  0
VERTEX
  8
GSLAYER
 10
206387.5
 20
770629.377678
  0
VERTEX
  8
GSLAYER
 10
206398.086419
 20
770637.5
  0
VERTEX
  8
GSLAYER
 10
206400
 20
770638.938245
  0
VERTEX
  8
GSLAYER
 10
206412.5
 20
770649.208847
  0
VERTEX
  8
GSLAYER
 10
206413.780621
 20
770650
  0
VERTEX
  8
GSLAYER
 10
206425
 20
770655.765971
  0
VERTEX
  8
GSLAYER
 10
206437.046081
 20
770662.5
  0
VERTEX
  8
GSLAYER
 10
206437.5
 20
770662.761305
  0
VERTEX
  8
GSLAYER
 10
206450
 20
770669.80995
  0
VERTEX
  8
GSLAYER
 10
206461.775012
 20
770675
  0
VERTEX
  8
GSLAYER
 10
206462.5
 20
770675.284187
  0
VERTEX
  8
GSLAYER
 10
206475
 20
770679.366966
  0
VERTEX
  8
GSLAYER
 10
206487.5
 20
770684.02719
  0
VERTEX
  8
GSLAYER
 10
206495.908906
 20
770687.5
  0
VERTEX
  8
GSLAYER
 10
206500
 20
770689.226488
  0
VERTEX
  8
GSLAYER
 10
206512.5
 20
770694.941694
  0
VERTEX
  8
GSLAYER
 10
206522.184957
 20
770700
  0
VERTEX
  8
GSLAYER
 10
206525
 20
770701.519974
  0
VERTEX
  8
GSLAYER
 10
206537.5
 20
770708.872863
  0
VERTEX
  8
GSLAYER
 10
206543.029938
 20
770712.5
  0
VERTEX
  8
GSLAYER
 10
206550
 20
770717.144337
  0
VERTEX
  8
GSLAYER
 10
206561.828576
 20
770725
  0
VERTEX
  8
GSLAYER
 10
206562.5
 20
770725.421636
  0
VERTEX
  8
GSLAYER
 10
206575
 20
770733.219569
  0
VERTEX
  8
GSLAYER
 10
206581.69113
 20
770737.5
  0
VERTEX
  8
GSLAYER
 10
206587.5
 20
770740.688938
  0
VERTEX
  8
GSLAYER
 10
206600
 20
770745.946328
  0
VERTEX
  8
GSLAYER
 10
206608.678013
 20
770750
  0
VERTEX
  8
GSLAYER
 10
206612.5
 20
770751.750253
  0
VERTEX
  8
GSLAYER
 10
206625
 20
770757.939402
  0
VERTEX
  8
GSLAYER
 10
206633.037068
 20
770762.5
  0
VERTEX
  8
GSLAYER
 10
206637.5
 20
770764.852989
  0
VERTEX
  8
GSLAYER
 10
206650
 20
770770.248735
  0
VERTEX
  8
GSLAYER
 10
206662.5
 20
770773.370802
  0
VERTEX
  8
GSLAYER
 10
206670.012043
 20
770775
  0
VERTEX
  8
GSLAYER
 10
206675
 20
770775.820574
  0
VERTEX
  8
GSLAYER
 10
206684.94102
 20
770775
  0
VERTEX
  8
GSLAYER
 10
206687.5
 20
770774.677371
  0
VERTEX
  8
GSLAYER
 10
206700
 20
770772.313416
  0
SEQEND
  0
POLYLINE
  8
GSLAYER
 62
7
 40
0.0
 41
0.0
 70
128
 30
-1.37466738809E+252
 66
1
  0
VERTEX
  8
GSLAYER
 10
205700
 20
771200
  0
VERTEX
  8
GSLAYER
 10
205712.5
 20
771200
  0
VERTEX
  8
GSLAYER
 10
205725
 20
771200
  0
VERTEX
  8
GSLAYER
 10
205737.5
 20
771200
  0
VERTEX
  8
GSLAYER
 10
205750
 20
771200
  0
VERTEX
  8
GSLAYER
 10
205762.5
 20
771200
  0
VERTEX
  8
GSLAYER
 10
205775
 20
771200
  0
VERTEX
  8
GSLAYER
 10
205787.5
 20
771200
  0
VERTEX
  8
GSLAYER
 10
205800
 20
771200
  0
VERTEX
  8
GSLAYER
 10
205812.5
 20
771200
  0
VERTEX
  8
GSLAYER
 10
205825
 20
771200
  0
VERTEX
  8
GSLAYER
 10
205837.5
 20
771200
  0
VERTEX
  8
GSLAYER
 10
205850
 20
771200
  0
VERTEX
  8
GSLAYER
 10
205862.5
 20
771200
  0
VERTEX
  8
GSLAYER
 10
205875
 20
771200
  0
VERTEX
  8
GSLAYER
 10
205887.5
 20
771200
  0
VERTEX
  8
GSLAYER
 10
205900
 20
771200
  0
VERTEX
  8
GSLAYER
 10
205912.5
 20
771200
  0
VERTEX
  8
GSLAYER
 10
205925
 20
771200
  0
VERTEX
  8
GSLAYER
 10
205937.5
 20
771200
  0
VERTEX
  8
GSLAYER
 10
205950
 20
771200
  0
VERTEX
  8
GSLAYER
 10
205962.5
 20
771200
  0
VERTEX
  8
GSLAYER
 10
205975
 20
771200
  0
VERTEX
  8
GSLAYER
 10
205987.5
 20
771200
  0
VERTEX
  8
GSLAYER
 10
206000
 20
771200
  0
VERTEX
  8
GSLAYER
 10
206012.5
 20
771200
  0
VERTEX
  8
GSLAYER
 10
206025
 20
771200
  0
VERTEX
  8
GSLAYER
 10
206037.5
 20
771200
  0
VERTEX
  8
GSLAYER
 10
206050
 20
771200
  0
VERTEX
  8
GSLAYER
 10
206062.5
 20
771200
  0
VERTEX
  8
GSLAYER
 10
206075
 20
771200
  0
VERTEX
  8
GSLAYER
 10
206087.5
 20
771200
  0
VERTEX
  8
GSLAYER
 10
206100
 20
771200
  0
VERTEX
  8
GSLAYER
 10
206112.5
 20
771200
  0
VERTEX
  8
GSLAYER
 10
206125
 20
771200
  0
VERTEX
  8
GSLAYER
 10
206137.5
 20
771200
  0
VERTEX
  8
GSLAYER
 10
206150
 20
771200
  0
VERTEX
  8
GSLAYER
 10
206162.5
 20
771200
  0
VERTEX
  8
GSLAYER
 10
206175
 20
771200
  0
VERTEX
  8
GSLAYER
 10
206187.5
 20
771200
  0
VERTEX
  8
GSLAYER
 10
206200
 20
771200
  0
VERTEX
  8
GSLAYER
 10
206212.5
 20
771200
  0
VERTEX
  8
GSLAYER
 10
206225
 20
771200
  0
VERTEX
  8
GSLAYER
 10
206237.5
 20
771200
  0
VERTEX
  8
GSLAYER
 10
206250
 20
771200
  0
VERTEX
  8
GSLAYER
 10
206262.5
 20
771200
  0
VERTEX
  8
GSLAYER
 10
206275
 20
771200
  0
VERTEX
  8
GSLAYER
 10
206287.5
 20
771200
  0
VERTEX
  8
GSLAYER
 10
206300
 20
771187.5
  0
VERTEX
  8
GSLAYER
 10
206287.5
 20
771175
  0
VERTEX
  8
GSLAYER
 10
206287.5
 20
771162.5
  0
VERTEX
  8
GSLAYER
 10
206287.5
 20
771150
  0
VERTEX
  8
GSLAYER
 10
206275
 20
771137.5
  0
VERTEX
  8
GSLAYER
 10
206262.5
 20
771137.5
  0
VERTEX
  8
GSLAYER
 10
206250
 20
771125
  0
VERTEX
  8
GSLAYER
 10
206237.5
 20
771112.5
  0
VERTEX
  8
GSLAYER
 10
206225
 20
771100
  0
VERTEX
  8
GSLAYER
 10
206212.5
 20
771100
  0
VERTEX
  8
GSLAYER
 10
206200
 20
771087.5
  0
VERTEX
  8
GSLAYER
 10
206187.5
 20
771075
  0
VERTEX
  8
GSLAYER
 10
206175
 20
771062.5
  0
VERTEX
  8
GSLAYER
 10
206162.5
 20
771050
  0
VERTEX
  8
GSLAYER
 10
206150
 20
771050
  0
VERTEX
  8
GSLAYER
 10
206137.5
 20
771037.5
  0
VERTEX
  8
GSLAYER
 10
206125
 20
771025
  0
VERTEX
  8
GSLAYER
 10
206112.5
 20
771012.5
  0
VERTEX
  8
GSLAYER
 10
206100
 20
771000
  0
VERTEX
  8
GSLAYER
 10
206087.5
 20
770987.5
  0
VERTEX
  8
GSLAYER
 10
206075
 20
770975
  0
VERTEX
  8
GSLAYER
 10
206062.5
 20
770962.5
  0
VERTEX
  8
GSLAYER
 10
206050
 20
770962.5
  0
VERTEX
  8
GSLAYER
 10
206037.5
 20
770950
  0
VERTEX
  8
GSLAYER
 10
206025
 20
770937.5
  0
VERTEX
  8
GSLAYER
 10
206012.5
 20
770925
  0
VERTEX
  8
GSLAYER
 10
206000
 20
770925
  0
VERTEX
  8
GSLAYER
 10
205987.5
 20
770912.5
  0
VERTEX
  8
GSLAYER
 10
205975
 20
770912.5
  0
VERTEX
  8
GSLAYER
 10
205962.5
 20
770900
  0
VERTEX
  8
GSLAYER
 10
205950
 20
770900
  0
VERTEX
  8
GSLAYER
 10
205937.5
 20
770900
  0
VERTEX
  8
GSLAYER
 10
205937.5
 20
770887.5
  0
VERTEX
  8
GSLAYER
 10
205937.5
 20
770875
  0
VERTEX
  8
GSLAYER
 10
205925
 20
770862.5
  0
VERTEX
  8
GSLAYER
 10
205912.5
 20
770850
  0
VERTEX
  8
GSLAYER
 10
205900
 20
770850
  0
VERTEX
  8
GSLAYER
 10
205900
 20
770837.5
  0
VERTEX
  8
GSLAYER
 10
205887.5
 20
770825
  0
VERTEX
  8
GSLAYER
 10
205875
 20
770812.5
  0
VERTEX
  8
GSLAYER
 10
205875
 20
770800
  0
VERTEX
  8
GSLAYER
 10
205862.5
 20
770787.5
  0
VERTEX
  8
GSLAYER
 10
205862.5
 20
770775
  0
VERTEX
  8
GSLAYER
 10
205862.5
 20
770762.5
  0
VERTEX
  8
GSLAYER
 10
205850
 20
770750
  0
VERTEX
  8
GSLAYER
 10
205837.5
 20
770737.5
  0
VERTEX
  8
GSLAYER
 10
205825
 20
770725
  0
VERTEX
  8
GSLAYER
 10
205812.5
 20
770712.5
  0
VERTEX
  8
GSLAYER
 10
205800
 20
770712.5
  0
VERTEX
  8
GSLAYER
 10
205787.5
 20
770700
  0
VERTEX
  8
GSLAYER
 10
205775
 20
770700
  0
VERTEX
  8
GSLAYER
 10
205762.5
 20
770712.5
  0
VERTEX
  8
GSLAYER
 10
205750
 20
770725
  0
VERTEX
  8
GSLAYER
 10
205737.5
 20
770737.5
  0
VERTEX
  8
GSLAYER
 10
205737.5
 20
770725
  0
VERTEX
  8
GSLAYER
 10
205750
 20
770712.5
  0
VERTEX
  8
GSLAYER
 10
205762.5
 20
770700
  0
VERTEX
  8
GSLAYER
 10
205762.5
 20
770687.5
  0
VERTEX
  8
GSLAYER
 10
205762.5
 20
770675
  0
VERTEX
  8
GSLAYER
 10
205750
 20
770662.5
  0
VERTEX
  8
GSLAYER
 10
205737.5
 20
770662.5
  0
VERTEX
  8
GSLAYER
 10
205725
 20
770650
  0
VERTEX
  8
GSLAYER
 10
205712.5
 20
770650
  0
VERTEX
  8
GSLAYER
 10
205700
 20
770650
  0
SEQEND
  0
ENDSEC
  0
EOF
