999
DXF created from Surfer v8.05
  0
SECTION
  2
HEADER
  9
$ACADVER
  1
AC1006
  0
ENDSEC
  0
SECTION
  2
ENTITIES
  0
POLYLINE
  8
GSLAYER
 62
7
 40
0.0
 41
0.0
 70
129
 30
100
 66
1
  0
VERTEX
  8
GSLAYER
 10
205833.399241
 20
770362.5
  0
VERTEX
  8
GSLAYER
 10
205837.5
 20
770368.651179
  0
VERTEX
  8
GSLAYER
 10
205840.575559
 20
770362.5
  0
VERTEX
  8
GSLAYER
 10
205837.5
 20
770358.98505
  0
VERTEX
  8
GSLAYER
 10
205833.399241
 20
770362.5
  0
SEQEND
  0
POLYLINE
  8
GSLAYER
 62
7
 40
0.0
 41
0.0
 70
129
 30
100
 66
1
  0
VERTEX
  8
GSLAYER
 10
205870.899241
 20
770387.5
  0
VERTEX
  8
GSLAYER
 10
205862.5
 20
770394.2322
  0
VERTEX
  8
GSLAYER
 10
205841.415674
 20
770412.5
  0
VERTEX
  8
GSLAYER
 10
205837.5
 20
770420.965372
  0
VERTEX
  8
GSLAYER
 10
205826.511755
 20
770437.5
  0
VERTEX
  8
GSLAYER
 10
205812.5
 20
770458.584273
  0
VERTEX
  8
GSLAYER
 10
205810.688751
 20
770462.5
  0
VERTEX
  8
GSLAYER
 10
205812.5
 20
770464.641417
  0
VERTEX
  8
GSLAYER
 10
205837.5
 20
770479.026244
  0
VERTEX
  8
GSLAYER
 10
205840.687769
 20
770487.5
  0
VERTEX
  8
GSLAYER
 10
205860.930724
 20
770512.5
  0
VERTEX
  8
GSLAYER
 10
205862.5
 20
770517.225895
  0
VERTEX
  8
GSLAYER
 10
205876.957859
 20
770537.5
  0
VERTEX
  8
GSLAYER
 10
205887.5
 20
770548.042141
  0
VERTEX
  8
GSLAYER
 10
205890.226177
 20
770562.5
  0
VERTEX
  8
GSLAYER
 10
205889.156513
 20
770587.5
  0
VERTEX
  8
GSLAYER
 10
205912.5
 20
770608.437244
  0
VERTEX
  8
GSLAYER
 10
205914.319208
 20
770612.5
  0
VERTEX
  8
GSLAYER
 10
205924.608154
 20
770637.5
  0
VERTEX
  8
GSLAYER
 10
205937.5
 20
770658.437244
  0
VERTEX
  8
GSLAYER
 10
205949.579169
 20
770662.5
  0
VERTEX
  8
GSLAYER
 10
205961.016655
 20
770687.5
  0
VERTEX
  8
GSLAYER
 10
205962.5
 20
770688.884349
  0
VERTEX
  8
GSLAYER
 10
205986.115651
 20
770712.5
  0
VERTEX
  8
GSLAYER
 10
205987.5
 20
770713.884349
  0
VERTEX
  8
GSLAYER
 10
206012.5
 20
770715.870128
  0
VERTEX
  8
GSLAYER
 10
206021.384916
 20
770737.5
  0
VERTEX
  8
GSLAYER
 10
206037.5
 20
770748.452306
  0
VERTEX
  8
GSLAYER
 10
206046.988175
 20
770762.5
  0
VERTEX
  8
GSLAYER
 10
206062.5
 20
770782.98195
  0
VERTEX
  8
GSLAYER
 10
206068.825248
 20
770787.5
  0
VERTEX
  8
GSLAYER
 10
206079.781545
 20
770812.5
  0
VERTEX
  8
GSLAYER
 10
206087.5
 20
770818.38875
  0
VERTEX
  8
GSLAYER
 10
206112.5
 20
770826.173715
  0
VERTEX
  8
GSLAYER
 10
206124.608154
 20
770837.5
  0
VERTEX
  8
GSLAYER
 10
206137.5
 20
770854.477097
  0
VERTEX
  8
GSLAYER
 10
206142.877167
 20
770862.5
  0
VERTEX
  8
GSLAYER
 10
206162.5
 20
770882.122833
  0
VERTEX
  8
GSLAYER
 10
206171.482638
 20
770887.5
  0
VERTEX
  8
GSLAYER
 10
206187.5
 20
770901.138921
  0
VERTEX
  8
GSLAYER
 10
206206.226239
 20
770912.5
  0
VERTEX
  8
GSLAYER
 10
206212.5
 20
770921.283286
  0
VERTEX
  8
GSLAYER
 10
206230.876449
 20
770937.5
  0
VERTEX
  8
GSLAYER
 10
206237.5
 20
770940.681945
  0
VERTEX
  8
GSLAYER
 10
206262.5
 20
770960.104595
  0
VERTEX
  8
GSLAYER
 10
206267.779653
 20
770962.5
  0
VERTEX
  8
GSLAYER
 10
206277.277257
 20
770987.5
  0
VERTEX
  8
GSLAYER
 10
206287.5
 20
770996.645069
  0
VERTEX
  8
GSLAYER
 10
206312.5
 20
770998.567172
  0
VERTEX
  8
GSLAYER
 10
206337.5
 20
771004.551725
  0
VERTEX
  8
GSLAYER
 10
206351.582477
 20
770987.5
  0
VERTEX
  8
GSLAYER
 10
206362.5
 20
770979.893699
  0
VERTEX
  8
GSLAYER
 10
206378.898987
 20
770962.5
  0
VERTEX
  8
GSLAYER
 10
206387.5
 20
770954.7818
  0
VERTEX
  8
GSLAYER
 10
206409.245691
 20
770937.5
  0
VERTEX
  8
GSLAYER
 10
206403.312454
 20
770912.5
  0
VERTEX
  8
GSLAYER
 10
206402.428094
 20
770887.5
  0
VERTEX
  8
GSLAYER
 10
206387.5
 20
770873.389501
  0
VERTEX
  8
GSLAYER
 10
206383.377606
 20
770862.5
  0
VERTEX
  8
GSLAYER
 10
206378.615084
 20
770837.5
  0
VERTEX
  8
GSLAYER
 10
206367.86233
 20
770812.5
  0
VERTEX
  8
GSLAYER
 10
206368.011543
 20
770787.5
  0
VERTEX
  8
GSLAYER
 10
206367.86233
 20
770762.5
  0
VERTEX
  8
GSLAYER
 10
206367.420884
 20
770737.5
  0
VERTEX
  8
GSLAYER
 10
206362.5
 20
770731.348821
  0
VERTEX
  8
GSLAYER
 10
206337.5
 20
770714.246757
  0
VERTEX
  8
GSLAYER
 10
206336.776731
 20
770712.5
  0
VERTEX
  8
GSLAYER
 10
206324.095941
 20
770687.5
  0
VERTEX
  8
GSLAYER
 10
206312.5
 20
770670.673181
  0
VERTEX
  8
GSLAYER
 10
206307.970281
 20
770662.5
  0
VERTEX
  8
GSLAYER
 10
206287.5
 20
770646.123841
  0
VERTEX
  8
GSLAYER
 10
206278.876159
 20
770637.5
  0
VERTEX
  8
GSLAYER
 10
206262.5
 20
770625.428819
  0
VERTEX
  8
GSLAYER
 10
206243.011543
 20
770612.5
  0
VERTEX
  8
GSLAYER
 10
206237.5
 20
770606.61836
  0
VERTEX
  8
GSLAYER
 10
206212.5
 20
770600.039578
  0
VERTEX
  8
GSLAYER
 10
206201.100442
 20
770587.5
  0
VERTEX
  8
GSLAYER
 10
206187.5
 20
770570.877197
  0
VERTEX
  8
GSLAYER
 10
206182.656519
 20
770562.5
  0
VERTEX
  8
GSLAYER
 10
206162.5
 20
770543.560265
  0
VERTEX
  8
GSLAYER
 10
206156.016875
 20
770537.5
  0
VERTEX
  8
GSLAYER
 10
206137.5
 20
770514.534007
  0
VERTEX
  8
GSLAYER
 10
206133.872011
 20
770512.5
  0
VERTEX
  8
GSLAYER
 10
206112.5
 20
770497.539558
  0
VERTEX
  8
GSLAYER
 10
206087.5
 20
770489.069741
  0
VERTEX
  8
GSLAYER
 10
206076.26539
 20
770487.5
  0
VERTEX
  8
GSLAYER
 10
206062.5
 20
770477.979471
  0
VERTEX
  8
GSLAYER
 10
206037.5
 20
770463.597246
  0
VERTEX
  8
GSLAYER
 10
206034.245691
 20
770462.5
  0
VERTEX
  8
GSLAYER
 10
206012.5
 20
770445.2182
  0
VERTEX
  8
GSLAYER
 10
205992.408926
 20
770437.5
  0
VERTEX
  8
GSLAYER
 10
205987.5
 20
770433.169598
  0
VERTEX
  8
GSLAYER
 10
205965.575559
 20
770412.5
  0
VERTEX
  8
GSLAYER
 10
205962.5
 20
770408.98505
  0
VERTEX
  8
GSLAYER
 10
205937.5
 20
770400.098946
  0
VERTEX
  8
GSLAYER
 10
205912.697395
 20
770412.5
  0
VERTEX
  8
GSLAYER
 10
205912.5
 20
770412.631593
  0
VERTEX
  8
GSLAYER
 10
205912.302605
 20
770412.5
  0
VERTEX
  8
GSLAYER
 10
205904.100759
 20
770387.5
  0
VERTEX
  8
GSLAYER
 10
205887.5
 20
770375.049472
  0
VERTEX
  8
GSLAYER
 10
205870.899241
 20
770387.5
  0
SEQEND
  0
POLYLINE
  8
GSLAYER
 62
7
 40
0.0
 41
0.0
 70
129
 30
191.8
 66
1
  0
VERTEX
  8
GSLAYER
 10
205866.122071
 20
770437.5
  0
VERTEX
  8
GSLAYER
 10
205871.159781
 20
770462.5
  0
VERTEX
  8
GSLAYER
 10
205862.5
 20
770478.857244
  0
VERTEX
  8
GSLAYER
 10
205856.017919
 20
770487.5
  0
VERTEX
  8
GSLAYER
 10
205862.5
 20
770495.278508
  0
VERTEX
  8
GSLAYER
 10
205878.155947
 20
770512.5
  0
VERTEX
  8
GSLAYER
 10
205887.5
 20
770522.778428
  0
VERTEX
  8
GSLAYER
 10
205896.159781
 20
770537.5
  0
VERTEX
  8
GSLAYER
 10
205900.177785
 20
770562.5
  0
VERTEX
  8
GSLAYER
 10
205912.151814
 20
770587.5
  0
VERTEX
  8
GSLAYER
 10
205912.5
 20
770587.812295
  0
VERTEX
  8
GSLAYER
 10
205923.554583
 20
770612.5
  0
VERTEX
  8
GSLAYER
 10
205937.307708
 20
770637.5
  0
VERTEX
  8
GSLAYER
 10
205937.5
 20
770637.812295
  0
VERTEX
  8
GSLAYER
 10
205962.5
 20
770651.26106
  0
VERTEX
  8
GSLAYER
 10
205987.5
 20
770653.416049
  0
VERTEX
  8
GSLAYER
 10
206001.638593
 20
770662.5
  0
VERTEX
  8
GSLAYER
 10
205987.5
 20
770672.314381
  0
VERTEX
  8
GSLAYER
 10
205973.263454
 20
770687.5
  0
VERTEX
  8
GSLAYER
 10
205987.5
 20
770701.736546
  0
VERTEX
  8
GSLAYER
 10
206004.110552
 20
770687.5
  0
VERTEX
  8
GSLAYER
 10
206012.5
 20
770674.892947
  0
VERTEX
  8
GSLAYER
 10
206023.861927
 20
770687.5
  0
VERTEX
  8
GSLAYER
 10
206034.026908
 20
770712.5
  0
VERTEX
  8
GSLAYER
 10
206037.5
 20
770721.76161
  0
VERTEX
  8
GSLAYER
 10
206045.369195
 20
770737.5
  0
VERTEX
  8
GSLAYER
 10
206056.939783
 20
770762.5
  0
VERTEX
  8
GSLAYER
 10
206062.5
 20
770769.841759
  0
VERTEX
  8
GSLAYER
 10
206087.221452
 20
770787.5
  0
VERTEX
  8
GSLAYER
 10
206087.5
 20
770788.057096
  0
VERTEX
  8
GSLAYER
 10
206107.869195
 20
770812.5
  0
VERTEX
  8
GSLAYER
 10
206112.5
 20
770814.294218
  0
VERTEX
  8
GSLAYER
 10
206137.307708
 20
770837.5
  0
VERTEX
  8
GSLAYER
 10
206137.5
 20
770837.753226
  0
VERTEX
  8
GSLAYER
 10
206154.085959
 20
770862.5
  0
VERTEX
  8
GSLAYER
 10
206162.5
 20
770870.914041
  0
VERTEX
  8
GSLAYER
 10
206187.5
 20
770887.088802
  0
VERTEX
  8
GSLAYER
 10
206188.019923
 20
770887.5
  0
VERTEX
  8
GSLAYER
 10
206212.5
 20
770909.98537
  0
VERTEX
  8
GSLAYER
 10
206214.764767
 20
770912.5
  0
VERTEX
  8
GSLAYER
 10
206237.5
 20
770935.021213
  0
VERTEX
  8
GSLAYER
 10
206240.283052
 20
770937.5
  0
VERTEX
  8
GSLAYER
 10
206262.5
 20
770957.174533
  0
VERTEX
  8
GSLAYER
 10
206274.237729
 20
770962.5
  0
VERTEX
  8
GSLAYER
 10
206287.5
 20
770982.383391
  0
VERTEX
  8
GSLAYER
 10
206312.5
 20
770985.331297
  0
VERTEX
  8
GSLAYER
 10
206337.5
 20
770986.764528
  0
VERTEX
  8
GSLAYER
 10
206362.5
 20
770968.734775
  0
VERTEX
  8
GSLAYER
 10
206368.37822
 20
770962.5
  0
VERTEX
  8
GSLAYER
 10
206387.5
 20
770945.340891
  0
VERTEX
  8
GSLAYER
 10
206397.366194
 20
770937.5
  0
VERTEX
  8
GSLAYER
 10
206387.5
 20
770919.046616
  0
VERTEX
  8
GSLAYER
 10
206386.646633
 20
770912.5
  0
VERTEX
  8
GSLAYER
 10
206386.296393
 20
770887.5
  0
VERTEX
  8
GSLAYER
 10
206374.583728
 20
770862.5
  0
VERTEX
  8
GSLAYER
 10
206362.5
 20
770841.434598
  0
VERTEX
  8
GSLAYER
 10
206361.478164
 20
770837.5
  0
VERTEX
  8
GSLAYER
 10
206337.5
 20
770813.263297
  0
VERTEX
  8
GSLAYER
 10
206337.202849
 20
770812.5
  0
VERTEX
  8
GSLAYER
 10
206337.5
 20
770804.246303
  0
VERTEX
  8
GSLAYER
 10
206346.127106
 20
770787.5
  0
VERTEX
  8
GSLAYER
 10
206339.604046
 20
770762.5
  0
VERTEX
  8
GSLAYER
 10
206337.5
 20
770754.679358
  0
VERTEX
  8
GSLAYER
 10
206336.652008
 20
770737.5
  0
VERTEX
  8
GSLAYER
 10
206324.937191
 20
770712.5
  0
VERTEX
  8
GSLAYER
 10
206312.5
 20
770696.534635
  0
VERTEX
  8
GSLAYER
 10
206309.536221
 20
770687.5
  0
VERTEX
  8
GSLAYER
 10
206287.5
 20
770663.106083
  0
VERTEX
  8
GSLAYER
 10
206287.106446
 20
770662.5
  0
VERTEX
  8
GSLAYER
 10
206262.5
 20
770637.893554
  0
VERTEX
  8
GSLAYER
 10
206261.230998
 20
770637.5
  0
VERTEX
  8
GSLAYER
 10
206237.5
 20
770619.058652
  0
VERTEX
  8
GSLAYER
 10
206212.5
 20
770613.250097
  0
VERTEX
  8
GSLAYER
 10
206211.22307
 20
770612.5
  0
VERTEX
  8
GSLAYER
 10
206187.5
 20
770588.255353
  0
VERTEX
  8
GSLAYER
 10
206186.819455
 20
770587.5
  0
VERTEX
  8
GSLAYER
 10
206170.83844
 20
770562.5
  0
VERTEX
  8
GSLAYER
 10
206162.5
 20
770554.664925
  0
VERTEX
  8
GSLAYER
 10
206144.137378
 20
770537.5
  0
VERTEX
  8
GSLAYER
 10
206137.5
 20
770529.267835
  0
VERTEX
  8
GSLAYER
 10
206112.5
 20
770512.896982
  0
VERTEX
  8
GSLAYER
 10
206111.074619
 20
770512.5
  0
VERTEX
  8
GSLAYER
 10
206087.5
 20
770494.799906
  0
VERTEX
  8
GSLAYER
 10
206062.5
 20
770488.919406
  0
VERTEX
  8
GSLAYER
 10
206059.551027
 20
770487.5
  0
VERTEX
  8
GSLAYER
 10
206037.5
 20
770467.602621
  0
VERTEX
  8
GSLAYER
 10
206022.366194
 20
770462.5
  0
VERTEX
  8
GSLAYER
 10
206012.5
 20
770454.659109
  0
VERTEX
  8
GSLAYER
 10
205987.5
 20
770441.090644
  0
VERTEX
  8
GSLAYER
 10
205974.116714
 20
770437.5
  0
VERTEX
  8
GSLAYER
 10
205962.5
 20
770426.374505
  0
VERTEX
  8
GSLAYER
 10
205937.5
 20
770436.992234
  0
VERTEX
  8
GSLAYER
 10
205936.879032
 20
770437.5
  0
VERTEX
  8
GSLAYER
 10
205912.5
 20
770440.866336
  0
VERTEX
  8
GSLAYER
 10
205903.741341
 20
770437.5
  0
VERTEX
  8
GSLAYER
 10
205887.5
 20
770422.463059
  0
VERTEX
  8
GSLAYER
 10
205866.122071
 20
770437.5
  0
SEQEND
  0
POLYLINE
  8
GSLAYER
 62
7
 40
0.0
 41
0.0
 70
129
 30
1528.4
 66
1
  0
VERTEX
  8
GSLAYER
 10
205954.38869
 20
770487.5
  0
VERTEX
  8
GSLAYER
 10
205939.166594
 20
770512.5
  0
VERTEX
  8
GSLAYER
 10
205945.355652
 20
770537.5
  0
VERTEX
  8
GSLAYER
 10
205962.5
 20
770556.724554
  0
VERTEX
  8
GSLAYER
 10
205965.307255
 20
770562.5
  0
VERTEX
  8
GSLAYER
 10
205981.224458
 20
770587.5
  0
VERTEX
  8
GSLAYER
 10
205987.5
 20
770594.045328
  0
VERTEX
  8
GSLAYER
 10
206000.807625
 20
770612.5
  0
VERTEX
  8
GSLAYER
 10
206012.5
 20
770623.522061
  0
VERTEX
  8
GSLAYER
 10
206021.989666
 20
770637.5
  0
VERTEX
  8
GSLAYER
 10
206037.5
 20
770653.878572
  0
VERTEX
  8
GSLAYER
 10
206044.761071
 20
770662.5
  0
VERTEX
  8
GSLAYER
 10
206062.5
 20
770680.868562
  0
VERTEX
  8
GSLAYER
 10
206068.087208
 20
770687.5
  0
VERTEX
  8
GSLAYER
 10
206087.5
 20
770709.086462
  0
VERTEX
  8
GSLAYER
 10
206094.434426
 20
770712.5
  0
VERTEX
  8
GSLAYER
 10
206112.5
 20
770729.686285
  0
VERTEX
  8
GSLAYER
 10
206123.676589
 20
770737.5
  0
VERTEX
  8
GSLAYER
 10
206119.965036
 20
770762.5
  0
VERTEX
  8
GSLAYER
 10
206132.680366
 20
770787.5
  0
VERTEX
  8
GSLAYER
 10
206137.5
 20
770794.702416
  0
VERTEX
  8
GSLAYER
 10
206146.043873
 20
770812.5
  0
VERTEX
  8
GSLAYER
 10
206162.5
 20
770829.584034
  0
VERTEX
  8
GSLAYER
 10
206167.619867
 20
770837.5
  0
VERTEX
  8
GSLAYER
 10
206187.5
 20
770857.350061
  0
VERTEX
  8
GSLAYER
 10
206191.311727
 20
770862.5
  0
VERTEX
  8
GSLAYER
 10
206212.5
 20
770882.729717
  0
VERTEX
  8
GSLAYER
 10
206215.293454
 20
770887.5
  0
VERTEX
  8
GSLAYER
 10
206237.5
 20
770909.977049
  0
VERTEX
  8
GSLAYER
 10
206239.789373
 20
770912.5
  0
VERTEX
  8
GSLAYER
 10
206262.5
 20
770934.93518
  0
VERTEX
  8
GSLAYER
 10
206268.100164
 20
770937.5
  0
VERTEX
  8
GSLAYER
 10
206287.5
 20
770954.621169
  0
VERTEX
  8
GSLAYER
 10
206312.5
 20
770954.788282
  0
VERTEX
  8
GSLAYER
 10
206337.5
 20
770943.729574
  0
VERTEX
  8
GSLAYER
 10
206343.79026
 20
770937.5
  0
VERTEX
  8
GSLAYER
 10
206357.664476
 20
770912.5
  0
VERTEX
  8
GSLAYER
 10
206358.21663
 20
770887.5
  0
VERTEX
  8
GSLAYER
 10
206343.550748
 20
770862.5
  0
VERTEX
  8
GSLAYER
 10
206337.5
 20
770854.242812
  0
VERTEX
  8
GSLAYER
 10
206330.69442
 20
770837.5
  0
VERTEX
  8
GSLAYER
 10
206314.392605
 20
770812.5
  0
VERTEX
  8
GSLAYER
 10
206312.5
 20
770807.86206
  0
VERTEX
  8
GSLAYER
 10
206295.872663
 20
770787.5
  0
VERTEX
  8
GSLAYER
 10
206301.189094
 20
770762.5
  0
VERTEX
  8
GSLAYER
 10
206299.252395
 20
770737.5
  0
VERTEX
  8
GSLAYER
 10
206287.5
 20
770721.465576
  0
VERTEX
  8
GSLAYER
 10
206285.572148
 20
770712.5
  0
VERTEX
  8
GSLAYER
 10
206279.482681
 20
770687.5
  0
VERTEX
  8
GSLAYER
 10
206262.5
 20
770669.093329
  0
VERTEX
  8
GSLAYER
 10
206253.181899
 20
770662.5
  0
VERTEX
  8
GSLAYER
 10
206237.5
 20
770649.782893
  0
VERTEX
  8
GSLAYER
 10
206212.5
 20
770639.638711
  0
VERTEX
  8
GSLAYER
 10
206204.216197
 20
770637.5
  0
VERTEX
  8
GSLAYER
 10
206187.5
 20
770625.173535
  0
VERTEX
  8
GSLAYER
 10
206175.795085
 20
770612.5
  0
VERTEX
  8
GSLAYER
 10
206162.5
 20
770598.692067
  0
VERTEX
  8
GSLAYER
 10
206157.124369
 20
770587.5
  0
VERTEX
  8
GSLAYER
 10
206137.5
 20
770566.621838
  0
VERTEX
  8
GSLAYER
 10
206134.902937
 20
770562.5
  0
VERTEX
  8
GSLAYER
 10
206112.5
 20
770538.934826
  0
VERTEX
  8
GSLAYER
 10
206110.795644
 20
770537.5
  0
VERTEX
  8
GSLAYER
 10
206087.5
 20
770517.986131
  0
VERTEX
  8
GSLAYER
 10
206062.5
 20
770513.421807
  0
VERTEX
  8
GSLAYER
 10
206058.73093
 20
770512.5
  0
VERTEX
  8
GSLAYER
 10
206037.5
 20
770495.6462
  0
VERTEX
  8
GSLAYER
 10
206012.5
 20
770488.62494
  0
VERTEX
  8
GSLAYER
 10
206006.743609
 20
770487.5
  0
VERTEX
  8
GSLAYER
 10
205987.5
 20
770479.264353
  0
VERTEX
  8
GSLAYER
 10
205962.5
 20
770483.987395
  0
VERTEX
  8
GSLAYER
 10
205954.38869
 20
770487.5
  0
SEQEND
  0
POLYLINE
  8
GSLAYER
 62
7
 40
0.0
 41
0.0
 70
129
 30
5000
 66
1
  0
VERTEX
  8
GSLAYER
 10
205988.402098
 20
770537.5
  0
VERTEX
  8
GSLAYER
 10
205996.263041
 20
770562.5
  0
VERTEX
  8
GSLAYER
 10
206012.5
 20
770586.215097
  0
VERTEX
  8
GSLAYER
 10
206012.986113
 20
770587.5
  0
VERTEX
  8
GSLAYER
 10
206023.702633
 20
770612.5
  0
VERTEX
  8
GSLAYER
 10
206037.5
 20
770627.87009
  0
VERTEX
  8
GSLAYER
 10
206043.441684
 20
770637.5
  0
VERTEX
  8
GSLAYER
 10
206062.5
 20
770657.328869
  0
VERTEX
  8
GSLAYER
 10
206066.702733
 20
770662.5
  0
VERTEX
  8
GSLAYER
 10
206087.5
 20
770684.109516
  0
VERTEX
  8
GSLAYER
 10
206096.950283
 20
770687.5
  0
VERTEX
  8
GSLAYER
 10
206112.5
 20
770699.318909
  0
VERTEX
  8
GSLAYER
 10
206137.5
 20
770701.210827
  0
VERTEX
  8
GSLAYER
 10
206154.054753
 20
770712.5
  0
VERTEX
  8
GSLAYER
 10
206162.5
 20
770721.084126
  0
VERTEX
  8
GSLAYER
 10
206169.656713
 20
770737.5
  0
VERTEX
  8
GSLAYER
 10
206187.5
 20
770758.878196
  0
VERTEX
  8
GSLAYER
 10
206189.882965
 20
770762.5
  0
VERTEX
  8
GSLAYER
 10
206187.983338
 20
770787.5
  0
VERTEX
  8
GSLAYER
 10
206187.5
 20
770788.504966
  0
VERTEX
  8
GSLAYER
 10
206180.157591
 20
770812.5
  0
VERTEX
  8
GSLAYER
 10
206187.5
 20
770822.76096
  0
VERTEX
  8
GSLAYER
 10
206192.180828
 20
770837.5
  0
VERTEX
  8
GSLAYER
 10
206212.5
 20
770860.739419
  0
VERTEX
  8
GSLAYER
 10
206213.285323
 20
770862.5
  0
VERTEX
  8
GSLAYER
 10
206228.919618
 20
770887.5
  0
VERTEX
  8
GSLAYER
 10
206237.5
 20
770896.184901
  0
VERTEX
  8
GSLAYER
 10
206252.304626
 20
770912.5
  0
VERTEX
  8
GSLAYER
 10
206262.5
 20
770922.571719
  0
VERTEX
  8
GSLAYER
 10
206287.5
 20
770935.441305
  0
VERTEX
  8
GSLAYER
 10
206312.5
 20
770932.97803
  0
VERTEX
  8
GSLAYER
 10
206333.98143
 20
770912.5
  0
VERTEX
  8
GSLAYER
 10
206336.65046
 20
770887.5
  0
VERTEX
  8
GSLAYER
 10
206328.25023
 20
770862.5
  0
VERTEX
  8
GSLAYER
 10
206312.5
 20
770842.69022
  0
VERTEX
  8
GSLAYER
 10
206309.964049
 20
770837.5
  0
VERTEX
  8
GSLAYER
 10
206295.168331
 20
770812.5
  0
VERTEX
  8
GSLAYER
 10
206287.5
 20
770804.613218
  0
VERTEX
  8
GSLAYER
 10
206262.870523
 20
770787.5
  0
VERTEX
  8
GSLAYER
 10
206276.852338
 20
770762.5
  0
VERTEX
  8
GSLAYER
 10
206280.203343
 20
770737.5
  0
VERTEX
  8
GSLAYER
 10
206269.666651
 20
770712.5
  0
VERTEX
  8
GSLAYER
 10
206262.5
 20
770699.737251
  0
VERTEX
  8
GSLAYER
 10
206256.569443
 20
770687.5
  0
VERTEX
  8
GSLAYER
 10
206237.5
 20
770670.532245
  0
VERTEX
  8
GSLAYER
 10
206217.560876
 20
770662.5
  0
VERTEX
  8
GSLAYER
 10
206212.5
 20
770659.230009
  0
VERTEX
  8
GSLAYER
 10
206187.5
 20
770650.342688
  0
VERTEX
  8
GSLAYER
 10
206168.597014
 20
770637.5
  0
VERTEX
  8
GSLAYER
 10
206162.5
 20
770631.176252
  0
VERTEX
  8
GSLAYER
 10
206154.071971
 20
770612.5
  0
VERTEX
  8
GSLAYER
 10
206137.5
 20
770591.012726
  0
VERTEX
  8
GSLAYER
 10
206135.712378
 20
770587.5
  0
VERTEX
  8
GSLAYER
 10
206117.622398
 20
770562.5
  0
VERTEX
  8
GSLAYER
 10
206112.5
 20
770557.111858
  0
VERTEX
  8
GSLAYER
 10
206089.204089
 20
770537.5
  0
VERTEX
  8
GSLAYER
 10
206087.5
 20
770536.07255
  0
VERTEX
  8
GSLAYER
 10
206062.5
 20
770523.316418
  0
VERTEX
  8
GSLAYER
 10
206037.5
 20
770518.294068
  0
VERTEX
  8
GSLAYER
 10
206012.5
 20
770516.354
  0
VERTEX
  8
GSLAYER
 10
205988.402098
 20
770537.5
  0
SEQEND
  0
POLYLINE
  8
GSLAYER
 62
7
 40
0.0
 41
0.0
 70
129
 30
10000
 66
1
  0
VERTEX
  8
GSLAYER
 10
206030.981802
 20
770537.5
  0
VERTEX
  8
GSLAYER
 10
206016.95723
 20
770562.5
  0
VERTEX
  8
GSLAYER
 10
206026.050235
 20
770587.5
  0
VERTEX
  8
GSLAYER
 10
206037.5
 20
770606.205218
  0
VERTEX
  8
GSLAYER
 10
206039.887962
 20
770612.5
  0
VERTEX
  8
GSLAYER
 10
206056.892168
 20
770637.5
  0
VERTEX
  8
GSLAYER
 10
206062.5
 20
770643.334564
  0
VERTEX
  8
GSLAYER
 10
206078.076323
 20
770662.5
  0
VERTEX
  8
GSLAYER
 10
206087.5
 20
770672.291724
  0
VERTEX
  8
GSLAYER
 10
206112.5
 20
770682.618271
  0
VERTEX
  8
GSLAYER
 10
206137.5
 20
770678.164209
  0
VERTEX
  8
GSLAYER
 10
206158.881526
 20
770662.5
  0
VERTEX
  8
GSLAYER
 10
206153.212064
 20
770637.5
  0
VERTEX
  8
GSLAYER
 10
206137.728972
 20
770612.5
  0
VERTEX
  8
GSLAYER
 10
206137.5
 20
770612.203114
  0
VERTEX
  8
GSLAYER
 10
206124.928616
 20
770587.5
  0
VERTEX
  8
GSLAYER
 10
206112.5
 20
770572.699042
  0
VERTEX
  8
GSLAYER
 10
206104.905106
 20
770562.5
  0
VERTEX
  8
GSLAYER
 10
206087.5
 20
770546.045431
  0
VERTEX
  8
GSLAYER
 10
206062.5
 20
770537.53564
  0
VERTEX
  8
GSLAYER
 10
206061.302215
 20
770537.5
  0
VERTEX
  8
GSLAYER
 10
206037.5
 20
770535.854201
  0
VERTEX
  8
GSLAYER
 10
206030.981802
 20
770537.5
  0
SEQEND
  0
POLYLINE
  8
GSLAYER
 62
7
 40
0.0
 41
0.0
 70
129
 30
10000
 66
1
  0
VERTEX
  8
GSLAYER
 10
206168.027312
 20
770687.5
  0
VERTEX
  8
GSLAYER
 10
206172.434453
 20
770712.5
  0
VERTEX
  8
GSLAYER
 10
206187.5
 20
770735.387095
  0
VERTEX
  8
GSLAYER
 10
206188.536041
 20
770737.5
  0
VERTEX
  8
GSLAYER
 10
206205.758285
 20
770762.5
  0
VERTEX
  8
GSLAYER
 10
206212.5
 20
770772.940957
  0
VERTEX
  8
GSLAYER
 10
206237.5
 20
770781.954889
  0
VERTEX
  8
GSLAYER
 10
206256.482835
 20
770762.5
  0
VERTEX
  8
GSLAYER
 10
206262.5
 20
770749.565311
  0
VERTEX
  8
GSLAYER
 10
206266.785718
 20
770737.5
  0
VERTEX
  8
GSLAYER
 10
206262.5
 20
770729.566841
  0
VERTEX
  8
GSLAYER
 10
206257.824096
 20
770712.5
  0
VERTEX
  8
GSLAYER
 10
206237.5
 20
770687.793499
  0
VERTEX
  8
GSLAYER
 10
206236.610486
 20
770687.5
  0
VERTEX
  8
GSLAYER
 10
206212.5
 20
770674.474421
  0
VERTEX
  8
GSLAYER
 10
206187.5
 20
770671.256209
  0
VERTEX
  8
GSLAYER
 10
206168.027312
 20
770687.5
  0
SEQEND
  0
POLYLINE
  8
GSLAYER
 62
7
 40
0.0
 41
0.0
 70
129
 30
10000
 66
1
  0
VERTEX
  8
GSLAYER
 10
206207.208216
 20
770812.5
  0
VERTEX
  8
GSLAYER
 10
206209.155197
 20
770837.5
  0
VERTEX
  8
GSLAYER
 10
206212.5
 20
770841.325514
  0
VERTEX
  8
GSLAYER
 10
206221.945076
 20
770862.5
  0
VERTEX
  8
GSLAYER
 10
206237.5
 20
770881.535791
  0
VERTEX
  8
GSLAYER
 10
206241.771009
 20
770887.5
  0
VERTEX
  8
GSLAYER
 10
206262.5
 20
770909.069756
  0
VERTEX
  8
GSLAYER
 10
206269.239636
 20
770912.5
  0
VERTEX
  8
GSLAYER
 10
206287.5
 20
770924.902853
  0
VERTEX
  8
GSLAYER
 10
206312.5
 20
770917.583492
  0
VERTEX
  8
GSLAYER
 10
206317.832577
 20
770912.5
  0
VERTEX
  8
GSLAYER
 10
206327.274612
 20
770887.5
  0
VERTEX
  8
GSLAYER
 10
206313.25912
 20
770862.5
  0
VERTEX
  8
GSLAYER
 10
206312.5
 20
770861.54522
  0
VERTEX
  8
GSLAYER
 10
206300.751459
 20
770837.5
  0
VERTEX
  8
GSLAYER
 10
206287.5
 20
770820.704192
  0
VERTEX
  8
GSLAYER
 10
206273.732727
 20
770812.5
  0
VERTEX
  8
GSLAYER
 10
206262.5
 20
770803.333979
  0
VERTEX
  8
GSLAYER
 10
206237.5
 20
770794.565479
  0
VERTEX
  8
GSLAYER
 10
206212.5
 20
770805.796445
  0
VERTEX
  8
GSLAYER
 10
206207.208216
 20
770812.5
  0
SEQEND
  0
POLYLINE
  8
GSLAYER
 62
7
 40
0.0
 41
0.0
 70
129
 30
15000
 66
1
  0
VERTEX
  8
GSLAYER
 10
206031.187169
 20
770562.5
  0
VERTEX
  8
GSLAYER
 10
206037.5
 20
770582.053448
  0
VERTEX
  8
GSLAYER
 10
206038.387677
 20
770587.5
  0
VERTEX
  8
GSLAYER
 10
206047.984385
 20
770612.5
  0
VERTEX
  8
GSLAYER
 10
206062.5
 20
770631.364734
  0
VERTEX
  8
GSLAYER
 10
206067.023308
 20
770637.5
  0
VERTEX
  8
GSLAYER
 10
206087.5
 20
770660.975248
  0
VERTEX
  8
GSLAYER
 10
206090.681622
 20
770662.5
  0
VERTEX
  8
GSLAYER
 10
206112.5
 20
770673.37141
  0
VERTEX
  8
GSLAYER
 10
206136.201
 20
770662.5
  0
VERTEX
  8
GSLAYER
 10
206137.5
 20
770659.003415
  0
VERTEX
  8
GSLAYER
 10
206141.959225
 20
770637.5
  0
VERTEX
  8
GSLAYER
 10
206137.5
 20
770630.332859
  0
VERTEX
  8
GSLAYER
 10
206130.36691
 20
770612.5
  0
VERTEX
  8
GSLAYER
 10
206114.144854
 20
770587.5
  0
VERTEX
  8
GSLAYER
 10
206112.5
 20
770585.541181
  0
VERTEX
  8
GSLAYER
 10
206095.341984
 20
770562.5
  0
VERTEX
  8
GSLAYER
 10
206087.5
 20
770555.086287
  0
VERTEX
  8
GSLAYER
 10
206062.5
 20
770545.092155
  0
VERTEX
  8
GSLAYER
 10
206037.5
 20
770554.284058
  0
VERTEX
  8
GSLAYER
 10
206031.187169
 20
770562.5
  0
SEQEND
  0
POLYLINE
  8
GSLAYER
 62
7
 40
0.0
 41
0.0
 70
129
 30
15000
 66
1
  0
VERTEX
  8
GSLAYER
 10
206184.636369
 20
770712.5
  0
VERTEX
  8
GSLAYER
 10
206187.5
 20
770716.850336
  0
VERTEX
  8
GSLAYER
 10
206197.625345
 20
770737.5
  0
VERTEX
  8
GSLAYER
 10
206212.5
 20
770755.9971
  0
VERTEX
  8
GSLAYER
 10
206234.438886
 20
770762.5
  0
VERTEX
  8
GSLAYER
 10
206237.5
 20
770763.945702
  0
VERTEX
  8
GSLAYER
 10
206238.910623
 20
770762.5
  0
VERTEX
  8
GSLAYER
 10
206255.855377
 20
770737.5
  0
VERTEX
  8
GSLAYER
 10
206251.019369
 20
770712.5
  0
VERTEX
  8
GSLAYER
 10
206237.5
 20
770696.065502
  0
VERTEX
  8
GSLAYER
 10
206212.5
 20
770687.96864
  0
VERTEX
  8
GSLAYER
 10
206187.5
 20
770694.735421
  0
VERTEX
  8
GSLAYER
 10
206184.636369
 20
770712.5
  0
SEQEND
  0
POLYLINE
  8
GSLAYER
 62
7
 40
0.0
 41
0.0
 70
129
 30
15000
 66
1
  0
VERTEX
  8
GSLAYER
 10
206220.476311
 20
770837.5
  0
VERTEX
  8
GSLAYER
 10
206230.604828
 20
770862.5
  0
VERTEX
  8
GSLAYER
 10
206237.5
 20
770870.938167
  0
VERTEX
  8
GSLAYER
 10
206249.360036
 20
770887.5
  0
VERTEX
  8
GSLAYER
 10
206262.5
 20
770901.17292
  0
VERTEX
  8
GSLAYER
 10
206284.755095
 20
770912.5
  0
VERTEX
  8
GSLAYER
 10
206287.5
 20
770914.364402
  0
VERTEX
  8
GSLAYER
 10
206292.723638
 20
770912.5
  0
VERTEX
  8
GSLAYER
 10
206312.5
 20
770899.056984
  0
VERTEX
  8
GSLAYER
 10
206317.898765
 20
770887.5
  0
VERTEX
  8
GSLAYER
 10
206312.5
 20
770878.061493
  0
VERTEX
  8
GSLAYER
 10
206305.137162
 20
770862.5
  0
VERTEX
  8
GSLAYER
 10
206291.538869
 20
770837.5
  0
VERTEX
  8
GSLAYER
 10
206287.5
 20
770832.38086
  0
VERTEX
  8
GSLAYER
 10
206262.5
 20
770815.505852
  0
VERTEX
  8
GSLAYER
 10
206237.5
 20
770815.326329
  0
VERTEX
  8
GSLAYER
 10
206220.476311
 20
770837.5
  0
SEQEND
  0
POLYLINE
  8
GSLAYER
 62
7
 40
0.0
 41
0.0
 70
129
 30
16826.2
 66
1
  0
VERTEX
  8
GSLAYER
 10
206036.384512
 20
770562.5
  0
VERTEX
  8
GSLAYER
 10
206037.5
 20
770565.955127
  0
VERTEX
  8
GSLAYER
 10
206041.011376
 20
770587.5
  0
VERTEX
  8
GSLAYER
 10
206050.941522
 20
770612.5
  0
VERTEX
  8
GSLAYER
 10
206062.5
 20
770627.521589
  0
VERTEX
  8
GSLAYER
 10
206069.856719
 20
770637.5
  0
VERTEX
  8
GSLAYER
 10
206087.5
 20
770657.726919
  0
VERTEX
  8
GSLAYER
 10
206097.459742
 20
770662.5
  0
VERTEX
  8
GSLAYER
 10
206112.5
 20
770669.994087
  0
VERTEX
  8
GSLAYER
 10
206128.838023
 20
770662.5
  0
VERTEX
  8
GSLAYER
 10
206137.5
 20
770639.184109
  0
VERTEX
  8
GSLAYER
 10
206137.849239
 20
770637.5
  0
VERTEX
  8
GSLAYER
 10
206137.5
 20
770636.938682
  0
VERTEX
  8
GSLAYER
 10
206127.7246
 20
770612.5
  0
VERTEX
  8
GSLAYER
 10
206112.5
 20
770589.794928
  0
VERTEX
  8
GSLAYER
 10
206111.008407
 20
770587.5
  0
VERTEX
  8
GSLAYER
 10
206091.849149
 20
770562.5
  0
VERTEX
  8
GSLAYER
 10
206087.5
 20
770558.388369
  0
VERTEX
  8
GSLAYER
 10
206062.5
 20
770547.852097
  0
VERTEX
  8
GSLAYER
 10
206037.5
 20
770561.048229
  0
VERTEX
  8
GSLAYER
 10
206036.384512
 20
770562.5
  0
SEQEND
  0
POLYLINE
  8
GSLAYER
 62
7
 40
0.0
 41
0.0
 70
129
 30
16826.2
 66
1
  0
VERTEX
  8
GSLAYER
 10
206189.344959
 20
770712.5
  0
VERTEX
  8
GSLAYER
 10
206200.945122
 20
770737.5
  0
VERTEX
  8
GSLAYER
 10
206212.5
 20
770751.868852
  0
VERTEX
  8
GSLAYER
 10
206237.5
 20
770758.541757
  0
VERTEX
  8
GSLAYER
 10
206252.289529
 20
770737.5
  0
VERTEX
  8
GSLAYER
 10
206248.534011
 20
770712.5
  0
VERTEX
  8
GSLAYER
 10
206237.5
 20
770699.086768
  0
VERTEX
  8
GSLAYER
 10
206212.5
 20
770692.440202
  0
VERTEX
  8
GSLAYER
 10
206189.344959
 20
770712.5
  0
SEQEND
  0
POLYLINE
  8
GSLAYER
 62
7
 40
0.0
 41
0.0
 70
129
 30
16826.2
 66
1
  0
VERTEX
  8
GSLAYER
 10
206224.104518
 20
770837.5
  0
VERTEX
  8
GSLAYER
 10
206233.767716
 20
770862.5
  0
VERTEX
  8
GSLAYER
 10
206237.5
 20
770867.067491
  0
VERTEX
  8
GSLAYER
 10
206252.131852
 20
770887.5
  0
VERTEX
  8
GSLAYER
 10
206262.5
 20
770898.288679
  0
VERTEX
  8
GSLAYER
 10
206287.5
 20
770910.659651
  0
VERTEX
  8
GSLAYER
 10
206312.5
 20
770891.726393
  0
VERTEX
  8
GSLAYER
 10
206314.47433
 20
770887.5
  0
VERTEX
  8
GSLAYER
 10
206312.5
 20
770884.048334
  0
VERTEX
  8
GSLAYER
 10
206302.30452
 20
770862.5
  0
VERTEX
  8
GSLAYER
 10
206288.174063
 20
770837.5
  0
VERTEX
  8
GSLAYER
 10
206287.5
 20
770836.645646
  0
VERTEX
  8
GSLAYER
 10
206262.5
 20
770818.078534
  0
VERTEX
  8
GSLAYER
 10
206237.5
 20
770820.052136
  0
VERTEX
  8
GSLAYER
 10
206224.104518
 20
770837.5
  0
SEQEND
  0
POLYLINE
  8
GSLAYER
 62
7
 40
0.0
 41
0.0
 70
129
 30
20000
 66
1
  0
VERTEX
  8
GSLAYER
 10
206044.977861
 20
770562.5
  0
VERTEX
  8
GSLAYER
 10
206045.571169
 20
770587.5
  0
VERTEX
  8
GSLAYER
 10
206056.080808
 20
770612.5
  0
VERTEX
  8
GSLAYER
 10
206062.5
 20
770620.842488
  0
VERTEX
  8
GSLAYER
 10
206074.780976
 20
770637.5
  0
VERTEX
  8
GSLAYER
 10
206087.5
 20
770652.081566
  0
VERTEX
  8
GSLAYER
 10
206109.23961
 20
770662.5
  0
VERTEX
  8
GSLAYER
 10
206112.5
 20
770664.12455
  0
VERTEX
  8
GSLAYER
 10
206116.041716
 20
770662.5
  0
VERTEX
  8
GSLAYER
 10
206132.281797
 20
770637.5
  0
VERTEX
  8
GSLAYER
 10
206123.132462
 20
770612.5
  0
VERTEX
  8
GSLAYER
 10
206112.5
 20
770596.643372
  0
VERTEX
  8
GSLAYER
 10
206106.557246
 20
770587.5
  0
VERTEX
  8
GSLAYER
 10
206087.5
 20
770564.052783
  0
VERTEX
  8
GSLAYER
 10
206084.467361
 20
770562.5
  0
VERTEX
  8
GSLAYER
 10
206062.5
 20
770552.648671
  0
VERTEX
  8
GSLAYER
 10
206044.977861
 20
770562.5
  0
SEQEND
  0
POLYLINE
  8
GSLAYER
 62
7
 40
0.0
 41
0.0
 70
129
 30
20000
 66
1
  0
VERTEX
  8
GSLAYER
 10
206198.31531
 20
770712.5
  0
VERTEX
  8
GSLAYER
 10
206206.714649
 20
770737.5
  0
VERTEX
  8
GSLAYER
 10
206212.5
 20
770744.694265
  0
VERTEX
  8
GSLAYER
 10
206237.5
 20
770749.72474
  0
VERTEX
  8
GSLAYER
 10
206246.09235
 20
770737.5
  0
VERTEX
  8
GSLAYER
 10
206244.214643
 20
770712.5
  0
VERTEX
  8
GSLAYER
 10
206237.5
 20
770704.337505
  0
VERTEX
  8
GSLAYER
 10
206212.5
 20
770700.211444
  0
VERTEX
  8
GSLAYER
 10
206198.31531
 20
770712.5
  0
SEQEND
  0
POLYLINE
  8
GSLAYER
 62
7
 40
0.0
 41
0.0
 70
129
 30
20000
 66
1
  0
VERTEX
  8
GSLAYER
 10
206230.410072
 20
770837.5
  0
VERTEX
  8
GSLAYER
 10
206237.5
 20
770856.947668
  0
VERTEX
  8
GSLAYER
 10
206239.165596
 20
770862.5
  0
VERTEX
  8
GSLAYER
 10
206256.949062
 20
770887.5
  0
VERTEX
  8
GSLAYER
 10
206262.5
 20
770893.276083
  0
VERTEX
  8
GSLAYER
 10
206287.5
 20
770904.456679
  0
VERTEX
  8
GSLAYER
 10
206307.589073
 20
770887.5
  0
VERTEX
  8
GSLAYER
 10
206297.381598
 20
770862.5
  0
VERTEX
  8
GSLAYER
 10
206287.5
 20
770845.148111
  0
VERTEX
  8
GSLAYER
 10
206282.26921
 20
770837.5
  0
VERTEX
  8
GSLAYER
 10
206262.5
 20
770822.549663
  0
VERTEX
  8
GSLAYER
 10
206237.5
 20
770828.265237
  0
VERTEX
  8
GSLAYER
 10
206230.410072
 20
770837.5
  0
SEQEND
  0
POLYLINE
  8
GSLAYER
 62
7
 40
0.0
 41
0.0
 70
129
 30
25000
 66
1
  0
VERTEX
  8
GSLAYER
 10
206058.418312
 20
770562.5
  0
VERTEX
  8
GSLAYER
 10
206052.754662
 20
770587.5
  0
VERTEX
  8
GSLAYER
 10
206062.5
 20
770609.188215
  0
VERTEX
  8
GSLAYER
 10
206064.692982
 20
770612.5
  0
VERTEX
  8
GSLAYER
 10
206082.538644
 20
770637.5
  0
VERTEX
  8
GSLAYER
 10
206087.5
 20
770643.187885
  0
VERTEX
  8
GSLAYER
 10
206112.5
 20
770652.747052
  0
VERTEX
  8
GSLAYER
 10
206123.638445
 20
770637.5
  0
VERTEX
  8
GSLAYER
 10
206115.898014
 20
770612.5
  0
VERTEX
  8
GSLAYER
 10
206112.5
 20
770607.432402
  0
VERTEX
  8
GSLAYER
 10
206099.544894
 20
770587.5
  0
VERTEX
  8
GSLAYER
 10
206087.5
 20
770572.68048
  0
VERTEX
  8
GSLAYER
 10
206067.617178
 20
770562.5
  0
VERTEX
  8
GSLAYER
 10
206062.5
 20
770560.205186
  0
VERTEX
  8
GSLAYER
 10
206058.418312
 20
770562.5
  0
SEQEND
  0
POLYLINE
  8
GSLAYER
 62
7
 40
0.0
 41
0.0
 70
129
 30
25000
 66
1
  0
VERTEX
  8
GSLAYER
 10
206212.447189
 20
770712.5
  0
VERTEX
  8
GSLAYER
 10
206212.5
 20
770712.7544
  0
VERTEX
  8
GSLAYER
 10
206218.003551
 20
770712.5
  0
VERTEX
  8
GSLAYER
 10
206212.5
 20
770712.454249
  0
VERTEX
  8
GSLAYER
 10
206212.447189
 20
770712.5
  0
SEQEND
  0
POLYLINE
  8
GSLAYER
 62
7
 40
0.0
 41
0.0
 70
129
 30
25000
 66
1
  0
VERTEX
  8
GSLAYER
 10
206242.580354
 20
770837.5
  0
VERTEX
  8
GSLAYER
 10
206247.339581
 20
770862.5
  0
VERTEX
  8
GSLAYER
 10
206262.5
 20
770884.337932
  0
VERTEX
  8
GSLAYER
 10
206269.188777
 20
770887.5
  0
VERTEX
  8
GSLAYER
 10
206287.5
 20
770894.684525
  0
VERTEX
  8
GSLAYER
 10
206296.011716
 20
770887.5
  0
VERTEX
  8
GSLAYER
 10
206289.626034
 20
770862.5
  0
VERTEX
  8
GSLAYER
 10
206287.5
 20
770858.766726
  0
VERTEX
  8
GSLAYER
 10
206272.955
 20
770837.5
  0
VERTEX
  8
GSLAYER
 10
206262.5
 20
770829.593474
  0
VERTEX
  8
GSLAYER
 10
206242.580354
 20
770837.5
  0
SEQEND
  0
POLYLINE
  8
GSLAYER
 62
7
 40
0.0
 41
0.0
 70
129
 30
30000
 66
1
  0
VERTEX
  8
GSLAYER
 10
206059.938154
 20
770587.5
  0
VERTEX
  8
GSLAYER
 10
206062.5
 20
770593.201379
  0
VERTEX
  8
GSLAYER
 10
206075.279069
 20
770612.5
  0
VERTEX
  8
GSLAYER
 10
206087.5
 20
770631.551424
  0
VERTEX
  8
GSLAYER
 10
206101.382351
 20
770637.5
  0
VERTEX
  8
GSLAYER
 10
206112.5
 20
770640.91545
  0
VERTEX
  8
GSLAYER
 10
206114.995092
 20
770637.5
  0
VERTEX
  8
GSLAYER
 10
206112.5
 20
770628.68799
  0
VERTEX
  8
GSLAYER
 10
206104.630793
 20
770612.5
  0
VERTEX
  8
GSLAYER
 10
206092.532542
 20
770587.5
  0
VERTEX
  8
GSLAYER
 10
206087.5
 20
770581.308177
  0
VERTEX
  8
GSLAYER
 10
206062.5
 20
770579.03255
  0
VERTEX
  8
GSLAYER
 10
206059.938154
 20
770587.5
  0
SEQEND
  0
POLYLINE
  8
GSLAYER
 62
7
 40
0.0
 41
0.0
 70
129
 30
30000
 66
1
  0
VERTEX
  8
GSLAYER
 10
206260.326483
 20
770837.5
  0
VERTEX
  8
GSLAYER
 10
206255.513565
 20
770862.5
  0
VERTEX
  8
GSLAYER
 10
206262.5
 20
770872.563659
  0
VERTEX
  8
GSLAYER
 10
206276.018975
 20
770862.5
  0
VERTEX
  8
GSLAYER
 10
206263.64079
 20
770837.5
  0
VERTEX
  8
GSLAYER
 10
206262.5
 20
770836.637285
  0
VERTEX
  8
GSLAYER
 10
206260.326483
 20
770837.5
  0
SEQEND
  0
ENDSEC
  0
EOF
